SplineFontDB: 3.0
FontName: PunkNova-Bold
FullName: Punk Nova Bold
FamilyName: Punk Nova
Weight: Medium
Copyright: Unlimited copying and redistribution of this file are permitted as long as this file is not modified. Modifications are permitted, but only if the resulting file is not named punknova.otf and the (internal) fontname differs from 'Punk Nova'.
UComments: "2010-7-8: Created." 
Version: 001.000
ItalicAngle: 0
UnderlinePosition: -100
UnderlineWidth: 50
Ascent: 800
Descent: 200
LayerCount: 2
Layer: 0 0 "Back"  1
Layer: 1 0 "Fore"  0
NeedsXUIDChange: 1
XUID: [1021 743 1482437360 4202175]
OS2Version: 0
OS2_WeightWidthSlopeOnly: 0
OS2_UseTypoMetrics: 1
CreationTime: 1278580685
ModificationTime: 1278580715
OS2TypoAscent: 0
OS2TypoAOffset: 1
OS2TypoDescent: 0
OS2TypoDOffset: 1
OS2TypoLinegap: 0
OS2WinAscent: 0
OS2WinAOffset: 1
OS2WinDescent: 0
OS2WinDOffset: 1
HheadAscent: 0
HheadAOffset: 1
HheadDescent: 0
HheadDOffset: 1
OS2Vendor: 'PfEd'
Lookup: 3 0 0 "Randomize lookup"  {"Randomize subtable"  } ['rand' ('DFLT' <'dflt' > 'grek' <'dflt' > 'latn' <'dflt' > ) ]
Lookup: 258 0 0 "Kern lookup"  {"Kern subtable"  } ['kern' ('DFLT' <'dflt' > 'grek' <'dflt' > 'latn' <'dflt' > ) ]
DEI: 91125
Encoding: UnicodeBmp
UnicodeInterp: none
NameList: Adobe Glyph List
DisplaySize: -24
AntiAlias: 1
FitToEm: 1
BeginChars: 67541 2150

StartChar: P
Encoding: 80 80 0
Width: 445
VWidth: 0
Flags: W
VStem: 70 102<706 868> 88 98<603 655.111> 97 100<30 261>
LayerCount: 2
Fore
SplineSet
180 603 m 1x80
 304 800 l 1
 172 868 l 1
 180 603 l 1x80
230 -32 m 1
 207 -89 l 1
 149 -113 l 1
 92 -89 l 1
 68 -32 l 1
 92 26 l 1
 97 28 l 1x20
 88 334 l 1x40
 53 349 l 1
 29 407 l 1
 53 464 l 1
 84 477 l 1
 70 935 l 2x80
 69 952 92 967 119 967 c 0
 132 967 147 962 152 960 c 2
 396 834 l 2
 413 825 418 809 411 798 c 2
 185 440 l 1
 186 422 l 1
 192 407 l 1
 186 393 l 1x40
 197 30 l 1x20
 207 26 l 1
 230 -32 l 1
EndSplineSet
AlternateSubs2: "Randomize subtable" P.1 P.2 P.3 P.4 P.5 P.6 P.7 P.8 P.9 P.10 P.11 P.12 P.13 P.14 P.15
EndChar

StartChar: semicolon
Encoding: 59 59 1
Width: 280
VWidth: 0
Flags: W
HStem: -65 21G<68.5 138>
VStem: 35 208
LayerCount: 2
Fore
SplineSet
220 278 m 1
 197 221 l 1
 139 197 l 1
 82 221 l 1
 58 278 l 1
 82 336 l 1
 139 359 l 1
 197 336 l 1
 220 278 l 1
214 -208 m 1
 190 -265 l 1
 132 -289 l 1
 75 -265 l 1
 51 -208 l 1
 75 -150 l 1
 110 -136 l 1
 141 -59 l 1
 138 -56 l 1
 116 -65 l 1
 59 -41 l 1
 35 16 l 1
 59 74 l 1
 116 98 l 1
 174 74 l 1
 198 16 l 1
 193 3 l 1
 235 -34 l 2
 244 -41 246 -52 243 -60 c 2
 199 -171 l 1
 214 -208 l 1
EndSplineSet
AlternateSubs2: "Randomize subtable" semicolon.1 semicolon.2 semicolon.3 semicolon.4 semicolon.5 semicolon.6 semicolon.7
EndChar

StartChar: comma
Encoding: 44 44 2
Width: 245
VWidth: 0
Flags: W
VStem: 37 171
LayerCount: 2
Fore
SplineSet
200 -205 m 1
 176 -262 l 1
 118 -286 l 1
 61 -262 l 1
 37 -205 l 1
 61 -147 l 1
 84 -138 l 1
 97 -88 l 1
 69 -77 l 1
 45 -19 l 1
 69 38 l 1
 127 62 l 1
 184 38 l 1
 208 -19 l 1
 198 -42 l 1
 200 -44 l 2
 204 -50 205 -57 204 -62 c 2
 181 -158 l 1
 200 -205 l 1
EndSplineSet
AlternateSubs2: "Randomize subtable" comma.1 comma.2 comma.3 comma.4 comma.5 comma.6 comma.7
EndChar

StartChar: nine
Encoding: 57 57 3
Width: 386
VWidth: 0
Flags: W
LayerCount: 2
Fore
SplineSet
193 -18 m 1
 169 -75 l 1
 111 -99 l 1
 54 -75 l 1
 30 -18 l 1
 54 40 l 1
 92 55 l 1
 113 102 132 151 150 199 c 1
 111 215 l 1
 88 272 l 1
 99 300 l 1
 71 352 51 409 39 467 c 0
 17 576 47 719 188 730 c 0
 205 731 221 730 237 727 c 0
 378 698 364 556 338 462 c 0
 294 304 241 158 178 17 c 1
 193 -18 l 1
180 350 m 1
 201 341 l 1
 215 385 228 429 240 473 c 0
 270 580 240 668 200 668 c 1
 181 667 114 593 138 475 c 0
 147 432 161 390 180 350 c 1
EndSplineSet
AlternateSubs2: "Randomize subtable" nine.1 nine.2 nine.3 nine.4 nine.5 nine.6 nine.7
EndChar

StartChar: dotlessi
Encoding: 305 305 4
Width: 257
VWidth: 0
Flags: W
HStem: 481 20G<62.5 158.333>
VStem: 60 100<81.9382 359>
LayerCount: 2
Fore
SplineSet
192 420 m 1
 168 363 l 1
 157 359 l 1
 157 333 158 307 160 282 c 0
 164 232 156 185 160 142 c 0
 162 122 166 101 171 81 c 1
 203 68 l 1
 226 11 l 1
 203 -46 l 1
 145 -70 l 1
 88 -46 l 1
 64 11 l 1
 79 47 l 1
 69 77 63 107 60 138 c 0
 56 188 64 235 60 278 c 0
 58 306 57 333 57 361 c 1
 53 363 l 1
 29 420 l 1
 53 477 l 1
 110 501 l 1
 168 477 l 1
 192 420 l 1
EndSplineSet
AlternateSubs2: "Randomize subtable" dotlessi.1 dotlessi.2 dotlessi.3 dotlessi.4 dotlessi.5 dotlessi.6 dotlessi.7 dotlessi.8 dotlessi.9 dotlessi.10 dotlessi.11 dotlessi.12 dotlessi.13 dotlessi.14 dotlessi.15 dotlessi.16 dotlessi.17 dotlessi.18 dotlessi.19 dotlessi.20 dotlessi.21 dotlessi.22 dotlessi.23 dotlessi.24 dotlessi.25 dotlessi.26 dotlessi.27 dotlessi.28 dotlessi.29 dotlessi.30 dotlessi.31
EndChar

StartChar: breve
Encoding: 728 728 5
Width: 431
VWidth: 0
Flags: W
HStem: 506 302
LayerCount: 2
Fore
SplineSet
398 690 m 1
 375 633 l 1
 371 632 l 1
 362 572 315 516 229 506 c 0
 210 504 190 504 170 508 c 0
 55 529 20 626 46 698 c 1
 34 727 l 1
 58 784 l 1
 115 808 l 1
 173 784 l 1
 197 727 l 1
 173 669 l 1
 138 655 l 1
 137 607 175 567 210 567 c 1
 227 569 258 593 269 629 c 1
 260 633 l 1
 236 690 l 1
 260 747 l 1
 317 771 l 1
 375 747 l 1
 398 690 l 1
EndSplineSet
AlternateSubs2: "Randomize subtable" breve.1 breve.2 breve.3 breve.4 breve.5 breve.6 breve.7
EndChar

StartChar: G
Encoding: 71 71 6
Width: 444
VWidth: 0
Flags: W
HStem: 488 21G<283.667 379.5> 679 62<191.84 264.167>
VStem: 31 100<305.417 564.753> 279 100<61 241>
LayerCount: 2
Fore
SplineSet
409 0 m 1
 385 -57 l 1
 328 -81 l 1
 270 -57 l 1
 264 -43 l 1
 158 -56 102 6 76 64 c 0
 40 144 31 258 31 367 c 0
 31 513 27 741 227 741 c 0
 321 741 373 688 384 629 c 1
 389 627 l 1
 413 569 l 1
 389 512 l 1
 332 488 l 1
 274 512 l 1
 250 569 l 1
 274 627 l 1
 282 630 l 1
 271 659 246 677 233 678 c 0
 230 678 229 679 227 679 c 0
 174 679 131 549 131 367 c 0
 131 346 131 325 132 304 c 1
 138 318 l 1
 195 342 l 1
 253 318 l 1
 260 301 l 1
 321 310 l 2
 352 314 382 298 382 279 c 2
 379 60 l 1
 385 57 l 1
 409 0 l 1
279 61 m 1
 281 241 l 1
 267 239 l 1
 253 203 l 1
 195 180 l 1
 141 202 l 1
 147 155 157 113 172 81 c 0
 199 20 226 15 250 19 c 2
 254 20 l 1
 270 57 l 1
 279 61 l 1
EndSplineSet
AlternateSubs2: "Randomize subtable" G.1 G.2 G.3 G.4 G.5 G.6 G.7 G.8 G.9 G.10 G.11 G.12 G.13 G.14 G.15
EndChar

StartChar: percent
Encoding: 37 37 7
Width: 602
VWidth: 0
Flags: W
LayerCount: 2
Fore
SplineSet
229 -56 m 1
 205 -114 l 1
 147 -137 l 1
 90 -114 l 1
 66 -56 l 1
 90 1 l 1
 126 16 l 1
 260 339 l 1
 238 314 205 299 154 299 c 1
 37 302 26 394 31 457 c 0
 34 492 43 530 58 567 c 0
 78 615 95 665 107 718 c 1
 86 769 l 1
 110 826 l 1
 167 850 l 1
 225 826 l 1
 249 769 l 1
 241 750 l 1
 259 734 279 724 296 719 c 0
 339 707 398 716 443 777 c 0
 443 778 444 777 444 778 c 0
 451 788 467 796 484 797 c 0
 490 798 496 797 502 796 c 0
 508 795 514 793 519 791 c 0
 530 786 537 778 539 770 c 0
 540 766 540 761 538 757 c 2
 402 430 l 1
 443 447 l 1
 501 423 l 1
 524 366 l 1
 508 327 l 1
 516 304 l 2
 534 251 550 198 563 143 c 0
 585 53 580 -83 446 -95 c 0
 436 -96 425 -96 415 -95 c 0
 279 -81 289 47 311 127 c 0
 313 135 315 144 318 152 c 2
 378 327 l 1
 369 350 l 1
 214 -21 l 1
 229 -56 l 1
442 215 m 1
 416 138 l 2
 413 131 411 123 409 116 c 0
 383 20 421 -32 431 -33 c 1
 432 -33 l 1
 447 -28 486 42 464 133 c 0
 457 160 450 188 442 215 c 1
165 576 m 1
 155 552 l 2
 142 519 133 484 131 454 c 0
 125 379 159 361 159 361 c 1
 174 366 206 443 176 538 c 1
 165 576 l 1
394 660 m 1
 350 649 303 649 256 662 c 0
 251 663 246 665 241 667 c 1
 251 627 263 588 275 550 c 0
 288 509 297 457 291 412 c 1
 394 660 l 1
EndSplineSet
AlternateSubs2: "Randomize subtable" percent.1 percent.2 percent.3 percent.4 percent.5 percent.6 percent.7
EndChar

StartChar: B
Encoding: 66 66 8
Width: 444
VWidth: 0
Flags: W
HStem: 761 20G<104.5 200.333>
VStem: 306 99<156.06 333.831>
LayerCount: 2
Fore
SplineSet
260 442 m 1
 357 415 413 332 410 245 c 0
 409 232 408 219 405 206 c 0
 385 107 302 17 180 -3 c 1
 168 -33 l 1
 110 -57 l 1
 53 -33 l 1
 29 25 l 1
 53 82 l 1
 64 87 l 1
 83 390 l 1
 80 394 77 399 77 403 c 0
 76 410 79 416 85 422 c 1
 98 641 l 1
 95 642 l 1
 71 700 l 1
 95 757 l 1
 152 781 l 1
 210 757 l 1
 234 700 l 1
 230 691 l 1
 400 569 l 2
 416 558 417 538 397 526 c 2
 260 442 l 1
183 387 m 1
 164 84 l 1
 168 82 l 1
 176 64 l 1
 234 82 290 133 306 213 c 0
 308 224 310 235 310 246 c 0
 314 338 238 387 195 388 c 0
 191 388 187 387 183 387 c 1
197 619 m 1
 189 486 l 1
 294 550 l 1
 197 619 l 1
EndSplineSet
AlternateSubs2: "Randomize subtable" B.1 B.2 B.3 B.4 B.5 B.6 B.7 B.8 B.9 B.10 B.11 B.12 B.13 B.14 B.15
EndChar

StartChar: quotedbl
Encoding: 34 34 9
Width: 396
VWidth: 0
Flags: W
LayerCount: 2
Fore
SplineSet
349 493 m 1
 326 435 l 1
 268 412 l 1
 219 432 l 1
 197 375 l 1
 139 352 l 1
 82 375 l 1
 58 433 l 1
 82 490 l 1
 83 490 l 1
 68 625 l 1
 55 631 l 1
 31 688 l 1
 55 745 l 1
 112 769 l 1
 170 745 l 1
 194 688 l 1
 170 631 l 1
 168 630 l 1
 183 496 l 1
 187 494 l 1
 211 550 l 1
 223 555 l 1
 229 621 l 1
 226 622 l 1
 202 680 l 1
 226 737 l 1
 284 761 l 1
 341 737 l 1
 365 680 l 1
 341 622 l 1
 329 617 l 1
 323 551 l 1
 326 550 l 1
 349 493 l 1
EndSplineSet
AlternateSubs2: "Randomize subtable" quotedbl.1 quotedbl.2 quotedbl.3 quotedbl.4 quotedbl.5 quotedbl.6 quotedbl.7
EndChar

StartChar: questiondown
Encoding: 191 191 10
Width: 390
VWidth: 0
Flags: W
HStem: -128 63<163.072 223.248> 479 20G<100.5 196.333> 516 21G<144.5 240.333>
LayerCount: 2
Fore
SplineSet
274 598 m 1
 250 540 l 1
 192 516 l 1
 135 540 l 1
 111 598 l 1
 135 655 l 1
 192 679 l 1
 250 655 l 1
 274 598 l 1
192 55 m 1
 168 -3 l 1
 147 -12 l 1
 155 -51 188 -65 196 -65 c 0
 197 -65 198 -65 199 -65 c 0
 223 -62 280 3 252 95 c 0
 226 180 136 253 107 353 c 1
 91 360 l 1
 67 417 l 1
 91 475 l 1
 148 499 l 1
 206 475 l 1
 230 417 l 1
 207 363 l 1
 235 280 319 211 350 107 c 0
 377 16 352 -110 217 -126 c 0
 211 -127 206 -128 200 -128 c 0
 94 -131 49 -57 46 -3 c 0
 46 2 46 8 46 13 c 1
 29 55 l 1
 53 112 l 1
 110 136 l 1
 168 112 l 1
 192 55 l 1
EndSplineSet
AlternateSubs2: "Randomize subtable" questiondown.1 questiondown.2 questiondown.3 questiondown.4 questiondown.5 questiondown.6 questiondown.7
EndChar

StartChar: slash
Encoding: 47 47 11
Width: 438
VWidth: 0
Flags: W
HStem: -65 21G<62.5 158.333> 764 20G<280.5 375.5>
LayerCount: 2
Fore
SplineSet
409 702 m 1
 385 645 l 1
 357 633 l 1
 174 59 l 1
 192 16 l 1
 168 -41 l 1
 110 -65 l 1
 53 -41 l 1
 29 16 l 1
 53 74 l 1
 81 85 l 1
 264 661 l 1
 247 702 l 1
 271 760 l 1
 328 784 l 1
 385 760 l 1
 409 702 l 1
EndSplineSet
AlternateSubs2: "Randomize subtable" slash.1 slash.2 slash.3 slash.4 slash.5 slash.6 slash.7
EndChar

StartChar: bracketright
Encoding: 93 93 12
Width: 286
VWidth: 0
Flags: W
VStem: 141 99<404 644> 156 100<54 318>
LayerCount: 2
Fore
SplineSet
156 54 m 1x40
 141 644 l 1
 133 641 l 1
 76 664 l 1
 52 722 l 1
 76 779 l 1
 133 803 l 1
 191 779 l 1
 210 733 l 1
 212 732 l 2
 229 727 240 716 240 705 c 2x80
 256 17 l 2
 256 4 244 -8 226 -13 c 2
 186 -23 l 1
 168 -66 l 1
 110 -90 l 1
 53 -66 l 1
 29 -9 l 1
 53 49 l 1
 110 73 l 1
 156 54 l 1x40
EndSplineSet
AlternateSubs2: "Randomize subtable" bracketright.1 bracketright.2 bracketright.3 bracketright.4 bracketright.5 bracketright.6 bracketright.7
EndChar

StartChar: underscore
Encoding: 95 95 13
Width: 512
VWidth: 0
Flags: W
HStem: -155 62<189 323>
LayerCount: 2
Fore
SplineSet
473 -125 m 1
 449 -182 l 1
 392 -206 l 1
 334 -182 l 1
 323 -155 l 1
 189 -155 l 1
 178 -180 l 1
 120 -204 l 1
 63 -180 l 1
 39 -123 l 1
 63 -65 l 1
 120 -42 l 1
 178 -65 l 1
 189 -93 l 1
 323 -93 l 1
 334 -67 l 1
 392 -43 l 1
 449 -67 l 1
 473 -125 l 1
EndSplineSet
AlternateSubs2: "Randomize subtable" underscore.1 underscore.2 underscore.3 underscore.4 underscore.5 underscore.6 underscore.7
EndChar

StartChar: N
Encoding: 78 78 14
Width: 406
VWidth: 0
Flags: W
VStem: 45 99<614.632 655.357> 59 100<38 299> 239 103<346 556>
LayerCount: 2
Fore
SplineSet
375 618 m 1xa0
 351 560 l 1
 342 556 l 1
 334 53 l 2
 334 14 244 15 235 47 c 2
 153 299 l 1
 159 38 l 1
 168 34 l 1
 192 -24 l 1
 168 -81 l 1
 110 -105 l 1
 53 -81 l 1
 29 -24 l 1
 53 34 l 1
 59 36 l 1x60
 45 629 l 2
 45 646 67 661 94 661 c 0
 119 661 140 649 144 636 c 2
 239 346 l 1
 242 558 l 1
 236 560 l 1
 212 618 l 1
 236 675 l 1
 293 699 l 1
 351 675 l 1
 375 618 l 1xa0
EndSplineSet
AlternateSubs2: "Randomize subtable" N.1 N.2 N.3 N.4 N.5 N.6 N.7 N.8 N.9 N.10 N.11 N.12 N.13 N.14 N.15
EndChar

StartChar: parenleft
Encoding: 40 40 15
Width: 328
VWidth: 0
Flags: W
HStem: 771 20G<170.5 265.5>
VStem: 31 268
LayerCount: 2
Fore
SplineSet
273 -1 m 1
 250 -59 l 1
 192 -82 l 1
 135 -59 l 1
 111 -1 l 1
 121 24 l 1
 55 129 24 249 31 372 c 0
 37 486 77 596 146 689 c 1
 137 710 l 1
 161 767 l 1
 218 791 l 1
 275 767 l 1
 299 710 l 1
 275 652 l 1
 218 628 l 1
 214 630 l 1
 166 553 136 463 131 370 c 0
 125 268 149 167 196 78 c 1
 250 56 l 1
 273 -1 l 1
EndSplineSet
AlternateSubs2: "Randomize subtable" parenleft.1 parenleft.2 parenleft.3 parenleft.4 parenleft.5 parenleft.6 parenleft.7
EndChar

StartChar: i
Encoding: 105 105 16
Width: 253
VWidth: 0
Flags: W
HStem: -59 21G<92.5 188.333> 481 20G<62.5 158.333>
VStem: 60 100<93.75 359>
LayerCount: 2
Fore
SplineSet
192 420 m 1
 168 363 l 1
 158 359 l 1
 158 333 158 308 160 282 c 0
 164 232 157 185 160 141 c 0
 161 125 164 109 168 93 c 1
 198 80 l 1
 222 23 l 1
 198 -35 l 1
 140 -59 l 1
 83 -35 l 1
 59 23 l 1
 75 60 l 1
 67 86 62 112 60 139 c 0
 56 189 63 235 60 279 c 0
 58 307 57 334 57 361 c 1
 53 363 l 1
 29 420 l 1
 53 477 l 1
 110 501 l 1
 168 477 l 1
 192 420 l 1
EndSplineSet
AlternateSubs2: "Randomize subtable" i.1 i.2 i.3 i.4 i.5 i.6 i.7 i.8 i.9 i.10 i.11 i.12 i.13 i.14 i.15 i.16 i.17 i.18 i.19 i.20 i.21 i.22 i.23 i.24 i.25 i.26 i.27 i.28 i.29 i.30 i.31
EndChar

StartChar: Omega
Encoding: 937 937 17
Width: 485
VWidth: 0
Flags: W
HStem: 697 62<197.854 274.224>
VStem: 52 99<404.903 641.651>
LayerCount: 2
Fore
SplineSet
263 152 m 1
 277 264 314 371 327 478 c 0
 342 608 276 695 238 697 c 1
 233 697 l 1
 196 695 136 621 150 505 c 0
 150 502 151 498 151 495 c 0
 168 380 228 271 263 152 c 1
454 39 m 1
 430 -18 l 1
 373 -42 l 1
 315 -18 l 1
 292 39 l 1
 293 43 l 1
 284 48 l 1
 286 33 287 17 287 1 c 0
 287 -3 284 -10 279 -15 c 0
 264 -29 233 -34 210 -25 c 2
 167 -8 l 1
 112 -31 l 1
 55 -7 l 1
 31 50 l 1
 55 108 l 1
 112 132 l 1
 170 108 l 1
 178 90 l 1
 177 93 l 1
 150 222 73 347 52 490 c 0
 51 494 50 496 50 500 c 0
 38 605 68 752 226 759 c 1
 245 759 l 1
 409 752 441 590 427 473 c 0
 412 348 369 232 360 115 c 1
 373 120 l 1
 430 97 l 1
 454 39 l 1
EndSplineSet
AlternateSubs2: "Randomize subtable" Omega.1 Omega.2 Omega.3 Omega.4 Omega.5 Omega.6 Omega.7 Omega.8 Omega.9 Omega.10 Omega.11 Omega.12 Omega.13 Omega.14 Omega.15
EndChar

StartChar: braceleft
Encoding: 123 123 18
Width: 381
VWidth: 0
Flags: W
VStem: 39 100<63.3179 208.6>
LayerCount: 2
Fore
SplineSet
318 -12 m 1
 294 -69 l 1
 237 -93 l 1
 179 -69 l 1
 164 -33 l 1
 74 -5 39 76 39 137 c 0
 39 181 55 227 95 263 c 1
 53 281 l 1
 29 338 l 1
 53 396 l 1
 110 420 l 1
 122 415 l 1
 127 420 l 1
 32 507 56 657 183 710 c 0
 187 712 192 713 197 715 c 1
 213 754 l 1
 271 777 l 1
 328 754 l 1
 352 696 l 1
 328 639 l 1
 271 615 l 1
 213 639 l 1
 212 642 l 1
 161 595 155 490 224 444 c 0
 239 434 241 418 231 407 c 2
 184 356 l 1
 192 338 l 1
 190 333 l 1
 240 302 l 2
 259 290 259 270 240 258 c 0
 235 255 227 252 221 251 c 0
 175 241 139 195 139 137 c 0
 139 96 155 63 178 43 c 1
 179 45 l 1
 237 69 l 1
 294 45 l 1
 318 -12 l 1
EndSplineSet
AlternateSubs2: "Randomize subtable" braceleft.1 braceleft.2 braceleft.3 braceleft.4 braceleft.5 braceleft.6 braceleft.7
EndChar

StartChar: three
Encoding: 51 51 19
Width: 405
VWidth: 0
Flags: W
HStem: 528 20G<138 208.5> 658 62<155.952 224.596>
VStem: 31 100<538.381 633.951>
LayerCount: 2
Fore
SplineSet
217 142 m 1
 194 85 l 1
 180 79 l 1
 188 60 203 48 210 46 c 0
 213 46 237 46 259 90 c 0
 272 116 278 150 273 185 c 0
 262 263 212 326 152 354 c 1
 132 362 126 381 139 395 c 1
 103 409 l 1
 80 467 l 1
 81 469 l 1
 44 498 31 539 31 574 c 0
 31 633 72 720 195 720 c 0
 323 720 360 613 353 539 c 0
 347 475 314 417 257 378 c 1
 323 332 363 264 373 190 c 0
 379 147 372 106 355 71 c 0
 332 25 275 -31 180 -13 c 0
 110 1 77 47 75 94 c 1
 55 142 l 1
 79 200 l 1
 136 224 l 1
 194 200 l 1
 217 142 l 1
236 482 m 1
 245 500 251 521 253 543 c 0
 260 621 207 658 195 658 c 0
 172 658 131 629 131 574 c 0
 131 561 134 549 138 538 c 1
 161 548 l 1
 218 524 l 1
 236 482 l 1
EndSplineSet
AlternateSubs2: "Randomize subtable" three.1 three.2 three.3 three.4 three.5 three.6 three.7
EndChar

StartChar: Xi
Encoding: 926 926 20
Width: 494
VWidth: 0
Flags: W
HStem: 469 20G<145.667 241.5> 583 21G<62.4348 162.435>
LayerCount: 2
Fore
SplineSet
422 -30 m 1
 398 -87 l 1
 341 -111 l 1
 283 -87 l 1
 270 -56 l 1
 183 -48 l 1
 175 -69 l 1
 117 -92 l 1
 60 -69 l 1
 36 -11 l 1
 60 46 l 1
 117 70 l 1
 175 46 l 1
 188 15 l 1
 274 7 l 1
 283 28 l 1
 341 51 l 1
 398 28 l 1
 422 -30 l 1
373 373 m 1
 349 316 l 1
 292 292 l 1
 234 316 l 1
 224 339 l 1
 194 327 l 1
 136 350 l 1
 112 408 l 1
 136 465 l 1
 194 489 l 1
 251 465 l 1
 261 442 l 1
 292 455 l 1
 349 431 l 1
 373 373 l 1
463 697 m 1
 439 639 l 1
 382 615 l 1
 324 639 l 1
 317 657 l 1
 184 641 l 1
 170 606 l 1
 112 583 l 1
 55 606 l 1
 31 664 l 1
 55 721 l 1
 112 745 l 1
 170 721 l 1
 178 703 l 1
 309 719 l 1
 324 754 l 1
 382 778 l 1
 439 754 l 1
 463 697 l 1
EndSplineSet
AlternateSubs2: "Randomize subtable" Xi.1 Xi.2 Xi.3 Xi.4 Xi.5 Xi.6 Xi.7 Xi.8 Xi.9 Xi.10 Xi.11 Xi.12 Xi.13 Xi.14 Xi.15
EndChar

StartChar: dieresis
Encoding: 168 168 21
Width: 439
VWidth: 0
Flags: W
HStem: 539 192 568 21G<66.5 162.333>
LayerCount: 2
Fore
SplineSet
405 621 m 1x80
 381 563 l 1
 324 539 l 1
 266 563 l 1
 242 621 l 1
 266 678 l 1
 324 702 l 1
 381 678 l 1
 405 621 l 1x80
196 649 m 1
 172 592 l 1
 114 568 l 1x40
 57 592 l 1
 33 649 l 1
 57 707 l 1
 114 731 l 1
 172 707 l 1
 196 649 l 1
EndSplineSet
AlternateSubs2: "Randomize subtable" dieresis.1 dieresis.2 dieresis.3 dieresis.4 dieresis.5 dieresis.6 dieresis.7
EndChar

StartChar: acute
Encoding: 180 180 22
Width: 263
VWidth: 0
Flags: W
HStem: 512 271
VStem: 32 198
LayerCount: 2
Fore
SplineSet
230 593 m 1
 206 536 l 1
 148 512 l 1
 91 536 l 1
 67 593 l 1
 84 633 l 1
 56 645 l 1
 32 702 l 1
 56 760 l 1
 113 783 l 1
 171 760 l 1
 195 702 l 1
 178 662 l 1
 206 651 l 1
 230 593 l 1
EndSplineSet
AlternateSubs2: "Randomize subtable" acute.1 acute.2 acute.3 acute.4 acute.5 acute.6 acute.7
EndChar

StartChar: endash
Encoding: 8211 8211 23
Width: 445
VWidth: 0
Flags: W
HStem: 172 240
LayerCount: 2
Fore
SplineSet
410 254 m 1
 387 196 l 1
 329 172 l 1
 272 196 l 1
 252 245 l 1
 173 274 l 1
 116 250 l 1
 59 274 l 1
 35 331 l 1
 59 388 l 1
 116 412 l 1
 174 388 l 1
 195 339 l 1
 272 311 l 1
 329 335 l 1
 387 311 l 1
 410 254 l 1
EndSplineSet
AlternateSubs2: "Randomize subtable" endash.1 endash.2 endash.3 endash.4 endash.5 endash.6 endash.7
EndChar

StartChar: greater
Encoding: 62 62 24
Width: 397
VWidth: 0
Flags: W
HStem: 539 21G<63.5 116>
LayerCount: 2
Fore
SplineSet
244 65 m 1
 220 8 l 1
 163 -16 l 1
 105 8 l 1
 81 65 l 1
 105 123 l 1
 152 142 l 1
 264 346 l 1
 116 541 l 1
 111 539 l 1
 54 563 l 1
 30 620 l 1
 54 678 l 1
 111 701 l 1
 169 678 l 1
 193 620 l 1
 183 597 l 1
 363 361 l 2
 369 353 368 344 365 338 c 2
 232 95 l 1
 244 65 l 1
EndSplineSet
AlternateSubs2: "Randomize subtable" greater.1 greater.2 greater.3 greater.4 greater.5 greater.6 greater.7
EndChar

StartChar: parenright
Encoding: 41 41 25
Width: 303
VWidth: 0
Flags: W
HStem: 760 20G<63.5 159.333>
VStem: 173 100<193.627 503.897>
LayerCount: 2
Fore
SplineSet
192 0 m 1
 168 -57 l 1
 110 -81 l 1
 53 -57 l 1
 29 0 l 1
 53 58 l 1
 106 79 l 1
 149 161 173 253 173 348 c 0
 173 444 149 537 106 620 c 1
 54 642 l 1
 30 699 l 1
 54 756 l 1
 111 780 l 1
 169 756 l 1
 193 699 l 1
 182 674 l 1
 242 576 273 463 273 348 c 0
 273 234 241 122 181 25 c 1
 192 0 l 1
EndSplineSet
AlternateSubs2: "Randomize subtable" parenright.1 parenright.2 parenright.3 parenright.4 parenright.5 parenright.6 parenright.7
EndChar

StartChar: seven
Encoding: 55 55 26
Width: 389
VWidth: 0
Flags: W
HStem: 744 20G<62.5 158.333>
VStem: 122 100<21 229.987>
LayerCount: 2
Fore
SplineSet
252 -39 m 1
 229 -97 l 1
 171 -121 l 1
 114 -97 l 1
 90 -39 l 1
 114 18 l 1
 122 21 l 1
 129 225 172 426 250 616 c 1
 172 635 l 1
 168 625 l 1
 110 602 l 1
 53 625 l 1
 29 683 l 1
 53 740 l 1
 110 764 l 1
 168 740 l 1
 185 698 l 1
 328 665 l 2
 352 659 365 641 359 627 c 0
 277 435 230 230 222 21 c 1
 229 18 l 1
 252 -39 l 1
EndSplineSet
AlternateSubs2: "Randomize subtable" seven.1 seven.2 seven.3 seven.4 seven.5 seven.6 seven.7
EndChar

StartChar: Oslash
Encoding: 216 216 27
Width: 543
VWidth: 0
Flags: W
HStem: 779 20G<324.435 424.476>
LayerCount: 2
Fore
SplineSet
239 48 m 1
 266 33 287 31 315 40 c 0
 412 70 420 231 393 401 c 0
 390 419 387 438 385 456 c 1
 239 48 l 1
229 -62 m 1
 205 -120 l 1
 148 -143 l 1
 90 -120 l 1
 67 -62 l 1
 90 -5 l 1
 122 8 l 1
 130 31 l 1
 124 36 119 42 114 48 c 0
 42 125 9 249 44 380 c 0
 81 518 168 638 294 716 c 1
 293 718 l 1
 317 776 l 1
 374 799 l 1
 427 778 l 1
 432 779 437 779 443 779 c 0
 470 778 491 762 489 745 c 0
 474 633 475 520 492 408 c 0
 516 253 547 43 360 -16 c 0
 312 -31 260 -31 216 -17 c 1
 213 -25 l 1
 229 -62 l 1
352 646 m 1
 337 652 l 1
 244 585 174 486 143 369 c 0
 119 278 131 191 165 128 c 1
 352 646 l 1
EndSplineSet
AlternateSubs2: "Randomize subtable" Oslash.1 Oslash.2 Oslash.3 Oslash.4 Oslash.5 Oslash.6 Oslash.7 Oslash.8 Oslash.9 Oslash.10 Oslash.11 Oslash.12 Oslash.13 Oslash.14 Oslash.15
EndChar

StartChar: Psi
Encoding: 936 936 28
Width: 512
VWidth: 0
Flags: W
HStem: -62 21G<253.5 349.333> 761 20G<253.5 349.333>
VStem: 111 100<202.64 467.161> 251 100<80 118.741 585 639>
LayerCount: 2
Fore
SplineSet
481 524 m 1
 457 466 l 1
 436 457 l 1
 443 363 484 170 351 124 c 1
 351 80 l 1
 359 77 l 1
 383 19 l 1
 359 -38 l 1
 301 -62 l 1
 244 -38 l 1
 220 19 l 1
 244 77 l 1
 251 80 l 1
 251 116 l 1
 113 131 111 244 111 320 c 0
 111 376 104 430 104 469 c 1
 55 490 l 1
 31 547 l 1
 55 605 l 1
 112 629 l 1
 170 605 l 1
 194 547 l 1
 187 531 l 1
 226 472 211 388 211 320 c 0
 211 243 222 200 251 184 c 1
 251 639 l 1
 244 642 l 1
 220 700 l 1
 244 757 l 1
 301 781 l 1
 359 757 l 1
 383 700 l 1
 359 642 l 1
 351 639 l 1
 351 585 l 1
 399 605 l 1
 457 581 l 1
 481 524 l 1
EndSplineSet
AlternateSubs2: "Randomize subtable" Psi.1 Psi.2 Psi.3 Psi.4 Psi.5 Psi.6 Psi.7 Psi.8 Psi.9 Psi.10 Psi.11 Psi.12 Psi.13 Psi.14 Psi.15
EndChar

StartChar: ring
Encoding: 730 730 29
Width: 245
VWidth: 0
Flags: W
HStem: 431 229
VStem: 75 99<436.393 509.367>
LayerCount: 2
Fore
SplineSet
174 456 m 2
 172 448 166 442 158 438 c 0
 148 432 134 429 119 431 c 0
 97 433 79 443 75 456 c 1
 75 457 l 0
 63 502 -29 645 109 660 c 0
 114 661 120 661 125 661 c 0
 195 661 211 618 211 595 c 0
 211 554 186 502 174 457 c 0
 174 456 l 2
EndSplineSet
AlternateSubs2: "Randomize subtable" ring.1 ring.2 ring.3 ring.4 ring.5 ring.6 ring.7
EndChar

StartChar: less
Encoding: 60 60 30
Width: 390
VWidth: 0
Flags: W
VStem: 33 327
LayerCount: 2
Fore
SplineSet
360 55 m 1
 337 -2 l 1
 279 -26 l 1
 222 -2 l 1
 198 55 l 1
 208 79 l 1
 34 329 l 2
 30 335 28 344 33 352 c 2
 206 634 l 1
 194 661 l 1
 218 719 l 1
 276 742 l 1
 333 719 l 1
 357 661 l 1
 333 604 l 1
 280 582 l 1
 134 342 l 1
 277 136 l 1
 279 137 l 1
 337 113 l 1
 360 55 l 1
EndSplineSet
AlternateSubs2: "Randomize subtable" less.1 less.2 less.3 less.4 less.5 less.6 less.7
EndChar

StartChar: bracketleft
Encoding: 91 91 31
Width: 293
VWidth: 0
Flags: W
VStem: 30 234
LayerCount: 2
Fore
SplineSet
264 -5 m 1
 240 -63 l 1
 183 -87 l 1
 125 -63 l 1
 116 -41 l 1
 85 -43 l 2
 62 -44 29 -31 30 -10 c 2
 80 703 l 2
 82 717 95 726 112 730 c 1
 112 731 l 1
 169 755 l 1
 226 731 l 1
 250 674 l 1
 226 617 l 1
 173 594 l 1
 134 56 l 1
 183 76 l 1
 240 52 l 1
 264 -5 l 1
EndSplineSet
AlternateSubs2: "Randomize subtable" bracketleft.1 bracketleft.2 bracketleft.3 bracketleft.4 bracketleft.5 bracketleft.6 bracketleft.7
EndChar

StartChar: emdash
Encoding: 8212 8212 32
Width: 687
VWidth: 0
Flags: W
HStem: 206 217
LayerCount: 2
Fore
SplineSet
652 287 m 1
 628 229 l 1
 571 206 l 1
 513 229 l 1
 499 264 l 1
 182 302 l 1
 174 284 l 1
 116 260 l 1
 59 284 l 1
 35 341 l 1
 59 399 l 1
 116 423 l 1
 174 399 l 1
 188 364 l 1
 506 326 l 1
 513 344 l 1
 571 368 l 1
 628 344 l 1
 652 287 l 1
EndSplineSet
AlternateSubs2: "Randomize subtable" emdash.1 emdash.2 emdash.3 emdash.4 emdash.5 emdash.6 emdash.7
EndChar

StartChar: f
Encoding: 102 102 33
Width: 418
VWidth: 0
Flags: W
HStem: 415 65<156 236> 501 20G<257.667 353.5>
VStem: 59 100<91 240 366 415>
LayerCount: 2
Fore
SplineSet
376 275 m 1
 352 217 l 1
 295 194 l 1
 237 217 l 1
 231 233 l 1
 209 234 187 237 166 243 c 1
 158 240 l 1
 159 91 l 1
 168 87 l 1
 192 30 l 1
 168 -28 l 1
 110 -52 l 1
 53 -28 l 1
 29 30 l 1
 53 87 l 1
 59 90 l 1
 58 244 l 1
 56 245 l 1
 32 302 l 1
 56 360 l 1
 57 360 l 1
 56 449 l 2
 56 469 87 481 110 480 c 2
 238 474 l 1
 248 497 l 1
 306 521 l 1
 363 497 l 1
 387 439 l 1
 363 382 l 1
 306 358 l 1
 248 382 l 1
 236 411 l 1
 156 415 l 1
 157 366 l 1
 171 360 l 1
 193 304 l 1
 203 301 212 298 222 296 c 1
 237 332 l 1
 295 356 l 1
 352 332 l 1
 376 275 l 1
EndSplineSet
AlternateSubs2: "Randomize subtable" f.1 f.2 f.3 f.4 f.5 f.6 f.7 f.8 f.9 f.10 f.11 f.12 f.13 f.14 f.15 f.16 f.17 f.18 f.19 f.20 f.21 f.22 f.23 f.24 f.25 f.26 f.27 f.28 f.29 f.30 f.31
EndChar

StartChar: D
Encoding: 68 68 34
Width: 486
VWidth: 0
Flags: W
LayerCount: 2
Fore
SplineSet
165 57 m 1
 268 123 343 239 353 374 c 0
 361 487 300 584 219 632 c 1
 207 627 l 1
 165 57 l 1
237 702 m 1
 382 647 463 511 453 371 c 0
 441 210 346 63 191 -12 c 1
 168 -66 l 1
 110 -89 l 1
 53 -66 l 1
 29 -8 l 1
 53 49 l 1
 64 54 l 1
 107 631 l 1
 104 632 l 1
 80 690 l 1
 104 747 l 1
 161 771 l 1
 219 747 l 1
 237 702 l 1
EndSplineSet
AlternateSubs2: "Randomize subtable" D.1 D.2 D.3 D.4 D.5 D.6 D.7 D.8 D.9 D.10 D.11 D.12 D.13 D.14 D.15
EndChar

StartChar: F
Encoding: 70 70 35
Width: 443
VWidth: 0
Flags: W
HStem: 470 20G<258.435 358.435>
VStem: 72 99<97 166 443 622> 82 100<443 794>
LayerCount: 2
Fore
SplineSet
228 374 m 1xa0
 204 316 l 1
 174 303 l 1
 172 229 l 1
 215 238 260 286 266 346 c 1
 251 352 l 1
 227 409 l 1
 251 467 l 1
 308 490 l 1
 366 467 l 1
 389 409 l 1
 366 352 l 1
 364 271 310 193 205 170 c 0
 193 167 182 166 171 166 c 1
 170 96 l 1
 176 93 l 1
 200 36 l 1
 176 -22 l 1
 119 -46 l 1
 61 -22 l 1
 37 36 l 1
 61 93 l 1
 70 97 l 1
 72 199 l 1xc0
 60 209 51 220 45 231 c 0
 23 271 18 332 66 372 c 1
 65 374 l 1
 75 397 l 1
 82 847 l 2
 82 864 106 878 133 878 c 0
 141 878 154 875 157 874 c 2
 272 834 l 1
 273 835 l 1
 330 859 l 1
 388 835 l 1
 412 778 l 1
 388 720 l 1
 330 697 l 1
 273 720 l 1
 253 769 l 1
 182 794 l 1
 176 443 l 1
 204 431 l 1
 228 374 l 1xa0
EndSplineSet
AlternateSubs2: "Randomize subtable" F.1 F.2 F.3 F.4 F.5 F.6 F.7 F.8 F.9 F.10 F.11 F.12 F.13 F.14 F.15
EndChar

StartChar: r
Encoding: 114 114 36
Width: 562
VWidth: 0
Flags: W
HStem: 411 63<204.484 342.812>
VStem: 61 101<42 75 206 302> 68 97<42 75 206 302> 417 100<168.445 333.1>
LayerCount: 2
Fore
SplineSet
165 206 m 1xb0
 358 128 l 1
 391 152 419 195 417 256 c 0
 413 366 325 412 271 411 c 0
 249 411 220 404 193 381 c 1
 200 364 l 1
 177 306 l 1
 168 302 l 1
 165 206 l 1xb0
531 53 m 1
 507 -4 l 1
 449 -28 l 1
 392 -4 l 1
 370 48 l 1
 361 52 l 1
 296 33 219 41 162 75 c 1
 161 41 l 1
 168 38 l 1
 192 -19 l 1
 168 -77 l 1
 110 -101 l 1
 53 -77 l 1
 29 -19 l 1
 53 38 l 1
 61 42 l 1xd0
 68 304 l 1
 62 306 l 1
 38 364 l 1
 62 421 l 1
 119 445 l 1
 139 437 l 1
 176 460 220 473 268 474 c 0
 409 476 512 380 517 257 c 0
 519 205 502 160 473 124 c 1
 507 111 l 1
 531 53 l 1
EndSplineSet
AlternateSubs2: "Randomize subtable" r.1 r.2 r.3 r.4 r.5 r.6 r.7 r.8 r.9 r.10 r.11 r.12 r.13 r.14 r.15 r.16 r.17 r.18 r.19 r.20 r.21 r.22 r.23 r.24 r.25 r.26 r.27 r.28 r.29 r.30 r.31
EndChar

StartChar: hungarumlaut
Encoding: 733 733 37
Width: 429
VWidth: 0
Flags: W
HStem: 471 308 745 20G<268.5 364.333>
LayerCount: 2
Fore
SplineSet
397 684 m 1x40
 374 626 l 1
 356 619 l 1
 340 518 l 2
 338 506 321 492 298 490 c 2
 96 471 l 2
 93 471 88 470 84 470 c 0
 57 471 37 487 39 504 c 2
 57 641 l 1
 33 698 l 1
 57 755 l 1
 114 779 l 1x80
 172 755 l 1
 196 698 l 1
 172 640 l 1
 156 634 l 1
 143 539 l 1
 244 548 l 1
 257 631 l 1
 235 684 l 1
 259 741 l 1
 316 765 l 1
 374 741 l 1
 397 684 l 1x40
EndSplineSet
AlternateSubs2: "Randomize subtable" hungarumlaut.1 hungarumlaut.2 hungarumlaut.3 hungarumlaut.4 hungarumlaut.5 hungarumlaut.6 hungarumlaut.7
EndChar

StartChar: tilde
Encoding: 732 732 38
Width: 456
VWidth: 0
Flags: W
HStem: 501 168
LayerCount: 2
Fore
SplineSet
422 588 m 1
 398 531 l 1
 341 507 l 1
 323 514 l 1
 320 514 317 514 314 514 c 0
 260 514 219 542 189 564 c 1
 173 524 l 1
 115 501 l 1
 58 524 l 1
 34 582 l 1
 58 639 l 1
 115 663 l 1
 132 656 l 2
 133 656 l 0
 191 661 236 629 267 606 c 1
 283 645 l 1
 341 669 l 1
 398 645 l 1
 422 588 l 1
EndSplineSet
AlternateSubs2: "Randomize subtable" tilde.1 tilde.2 tilde.3 tilde.4 tilde.5 tilde.6 tilde.7
EndChar

StartChar: cedilla
Encoding: 184 184 39
Width: 363
VWidth: 0
Flags: W
HStem: -83 62<188 223> -80 111<223.391 317.024>
VStem: 37 289
LayerCount: 2
Fore
SplineSet
266 31 m 0x60
 293 32 317 20 319 3 c 2
 326 -46 l 2
 329 -64 304 -79 280 -80 c 2x60
 188 -83 l 1
 176 -112 l 1
 118 -136 l 1
 61 -112 l 1
 37 -55 l 1
 61 3 l 1
 118 26 l 1
 176 3 l 1
 186 -21 l 1xa0
 223 -20 l 1
 221 -3 l 2
 219 14 239 30 266 31 c 0x60
EndSplineSet
AlternateSubs2: "Randomize subtable" cedilla.1 cedilla.2 cedilla.3 cedilla.4 cedilla.5 cedilla.6 cedilla.7
EndChar

StartChar: Lambda
Encoding: 923 923 40
Width: 510
VWidth: 0
Flags: W
LayerCount: 2
Fore
SplineSet
479 -47 m 1
 455 -105 l 1
 398 -129 l 1
 340 -105 l 1
 317 -47 l 1
 336 1 l 1
 235 464 l 1
 171 44 l 1
 194 -11 l 1
 170 -68 l 1
 112 -92 l 1
 55 -68 l 1
 31 -11 l 1
 55 46 l 1
 71 53 l 1
 176 738 l 2
 179 755 204 768 231 766 c 0
 256 765 273 750 275 739 c 2
 433 19 l 1
 455 10 l 1
 479 -47 l 1
EndSplineSet
AlternateSubs2: "Randomize subtable" Lambda.1 Lambda.2 Lambda.3 Lambda.4 Lambda.5 Lambda.6 Lambda.7 Lambda.8 Lambda.9 Lambda.10 Lambda.11 Lambda.12 Lambda.13 Lambda.14 Lambda.15
EndChar

StartChar: two
Encoding: 50 50 41
Width: 337
VWidth: 0
Flags: W
LayerCount: 2
Fore
SplineSet
301 -22 m 1
 277 -80 l 1
 220 -104 l 1
 184 -89 l 1
 163 -103 l 2
 155 -108 142 -113 129 -113 c 0
 102 -113 78 -99 77 -82 c 0
 69 94 102 269 173 431 c 0
 216 530 201 610 173 618 c 0
 169 619 161 624 146 603 c 0
 139 594 135 583 134 571 c 1
 170 556 l 1
 194 498 l 1
 170 441 l 1
 112 417 l 1
 55 441 l 1
 31 498 l 1
 40 521 l 1
 23 558 33 598 55 629 c 0
 79 662 140 697 215 675 c 0
 346 637 307 501 269 414 c 0
 218 296 186 170 178 42 c 1
 220 59 l 1
 277 35 l 1
 301 -22 l 1
EndSplineSet
AlternateSubs2: "Randomize subtable" two.1 two.2 two.3 two.4 two.5 two.6 two.7
EndChar

StartChar: y
Encoding: 121 121 42
Width: 452
VWidth: 0
Flags: W
HStem: 486 20G<292.5 388.333>
LayerCount: 2
Fore
SplineSet
327 -25 m 1
 303 -82 l 1
 246 -106 l 1
 188 -82 l 1
 165 -25 l 1
 188 33 l 1
 190 34 l 1
 165 282 l 1
 129 315 l 1
 110 307 l 1
 53 331 l 1
 29 388 l 1
 53 445 l 1
 110 469 l 1
 168 445 l 1
 192 388 l 1
 186 374 l 1
 211 351 l 1
 266 408 l 1
 259 425 l 1
 283 482 l 1
 340 506 l 1
 398 482 l 1
 421 425 l 1
 398 367 l 1
 340 344 l 1
 326 350 l 1
 265 285 l 1
 290 38 l 1
 303 33 l 1
 327 -25 l 1
EndSplineSet
AlternateSubs2: "Randomize subtable" y.1 y.2 y.3 y.4 y.5 y.6 y.7 y.8 y.9 y.10 y.11 y.12 y.13 y.14 y.15 y.16 y.17 y.18 y.19 y.20 y.21 y.22 y.23 y.24 y.25 y.26 y.27 y.28 y.29 y.30 y.31
EndChar

StartChar: Z
Encoding: 90 90 43
Width: 395
VWidth: 0
Flags: W
HStem: 503 21G<62.5 158.333>
LayerCount: 2
Fore
SplineSet
364 40 m 1
 341 -17 l 1
 283 -41 l 1
 226 -17 l 1
 225 -15 l 1
 110 -54 l 1
 78 -66 30 -49 36 -22 c 2
 170 531 l 1
 168 527 l 1
 110 503 l 1
 53 527 l 1
 29 585 l 1
 53 642 l 1
 110 666 l 1
 159 646 l 1
 219 673 l 2
 241 683 273 681 289 667 c 0
 297 660 300 652 298 644 c 2
 150 31 l 1
 206 50 l 1
 226 98 l 1
 283 122 l 1
 341 98 l 1
 364 40 l 1
EndSplineSet
AlternateSubs2: "Randomize subtable" Z.1 Z.2 Z.3 Z.4 Z.5 Z.6 Z.7 Z.8 Z.9 Z.10 Z.11 Z.12 Z.13 Z.14 Z.15
EndChar

StartChar: U
Encoding: 85 85 44
Width: 468
VWidth: 0
Flags: W
VStem: 61 100<92.3654 620> 68 100<73.1428 612.806> 305 100<130.815 711>
LayerCount: 2
Fore
SplineSet
437 772 m 1x60
 413 714 l 1
 405 711 l 1
 405 198 l 2
 405 122 351 58 274 24 c 0
 216 -2 137 0 95 37 c 0
 78 52 68 72 68 92 c 2x60
 61 620 l 1xa0
 53 623 l 1
 29 680 l 1
 53 738 l 1
 110 761 l 1
 168 738 l 1
 192 680 l 1
 168 623 l 1x60
 161 620 l 1xa0
 163 470 168 94 168 92 c 0
 168 82 173 76 176 73 c 0
 181 69 191 63 215 74 c 0
 262 95 305 141 305 198 c 2
 305 711 l 1
 298 714 l 1
 274 772 l 1
 298 829 l 1
 355 853 l 1
 413 829 l 1
 437 772 l 1x60
EndSplineSet
AlternateSubs2: "Randomize subtable" U.1 U.2 U.3 U.4 U.5 U.6 U.7 U.8 U.9 U.10 U.11 U.12 U.13 U.14 U.15
EndChar

StartChar: u
Encoding: 117 117 45
Width: 447
VWidth: 0
Flags: W
HStem: 464 20G<62.5 158.333>
VStem: 275 100<7.3436 319.633> 282 100<63.2137 322>
LayerCount: 2
Fore
SplineSet
416 383 m 1xa0
 392 326 l 1
 382 322 l 1xa0
 375 61 l 2
 374 14 347 -60 251 -59 c 0
 237 -59 223 -56 211 -52 c 0
 117 -20 41 52 46 142 c 0
 46 143 53 265 57 343 c 1
 53 345 l 1
 29 403 l 1
 53 460 l 1
 110 484 l 1
 168 460 l 1
 192 403 l 1
 168 345 l 1
 157 340 l 1
 146 140 l 2
 143 76 194 27 251 5 c 1
 261 14 274 36 275 63 c 0xc0
 275 65 279 232 282 324 c 1
 277 326 l 1
 253 383 l 1
 277 441 l 1
 334 465 l 1
 392 441 l 1
 416 383 l 1xa0
EndSplineSet
AlternateSubs2: "Randomize subtable" u.1 u.2 u.3 u.4 u.5 u.6 u.7 u.8 u.9 u.10 u.11 u.12 u.13 u.14 u.15 u.16 u.17 u.18 u.19 u.20 u.21 u.22 u.23 u.24 u.25 u.26 u.27 u.28 u.29 u.30 u.31
EndChar

StartChar: b
Encoding: 98 98 46
Width: 421
VWidth: 0
Flags: W
VStem: 64 100<106 201 271 327> 269 100<50.5066 174.663>
LayerCount: 2
Fore
SplineSet
193 210 m 1
 163 201 l 1
 164 106 l 1
 173 102 l 1
 197 45 l 1
 191 31 l 1
 202 27 211 28 217 30 c 0
 235 35 268 58 269 106 c 0
 271 173 220 206 193 210 c 1
296 242 m 1
 344 210 370 158 369 105 c 0
 367 43 327 -9 257 -28 c 0
 218 -38 179 -36 145 -24 c 1
 115 -36 l 1
 58 -13 l 1
 34 45 l 1
 58 102 l 1
 64 105 l 1
 61 327 l 1
 53 330 l 1
 29 388 l 1
 53 445 l 1
 110 469 l 1
 168 445 l 1
 190 392 l 1
 368 316 l 2
 372 314 381 308 385 303 c 0
 397 288 386 269 361 262 c 2
 296 242 l 1
165 272 m 2
 240 294 l 1
 162 328 l 1
 161 327 l 1
 162 271 l 1
 163 271 164 272 165 272 c 2
EndSplineSet
AlternateSubs2: "Randomize subtable" b.1 b.2 b.3 b.4 b.5 b.6 b.7 b.8 b.9 b.10 b.11 b.12 b.13 b.14 b.15 b.16 b.17 b.18 b.19 b.20 b.21 b.22 b.23 b.24 b.25 b.26 b.27 b.28 b.29 b.30 b.31
EndChar

StartChar: J
Encoding: 74 74 47
Width: 420
VWidth: 0
Flags: W
LayerCount: 2
Fore
SplineSet
353 818 m 1
 329 761 l 1
 326 760 l 1
 389 -18 l 2
 390 -35 368 -50 341 -51 c 0
 336 -51 330 -50 328 -50 c 2
 175 -28 l 1
 168 -44 l 1
 110 -68 l 1
 53 -44 l 1
 29 13 l 1
 53 71 l 1
 110 94 l 1
 168 71 l 1
 183 35 l 1
 286 20 l 1
 226 756 l 1
 214 761 l 1
 190 818 l 1
 214 876 l 1
 271 899 l 1
 329 876 l 1
 353 818 l 1
EndSplineSet
AlternateSubs2: "Randomize subtable" J.1 J.2 J.3 J.4 J.5 J.6 J.7 J.8 J.9 J.10 J.11 J.12 J.13 J.14 J.15
EndChar

StartChar: one
Encoding: 49 49 48
Width: 314
VWidth: 0
Flags: W
VStem: 145 93<378 393 685 704.024> 153 100<34 335>
LayerCount: 2
Fore
SplineSet
285 -27 m 1x40
 261 -84 l 1
 204 -108 l 1
 146 -84 l 1
 123 -27 l 1
 146 31 l 1
 153 34 l 1x40
 145 393 l 1
 110 379 l 1
 53 402 l 1
 29 460 l 1
 53 517 l 1
 83 530 l 1
 139 685 l 2
 145 702 172 713 199 709 c 0
 224 706 238 690 238 679 c 2x80
 253 34 l 1
 261 31 l 1
 285 -27 l 1x40
EndSplineSet
AlternateSubs2: "Randomize subtable" one.1 one.2 one.3 one.4 one.5 one.6 one.7
EndChar

StartChar: g
Encoding: 103 103 49
Width: 456
VWidth: 0
Flags: W
HStem: -36 63<207.316 273> 381 62<193.183 270.531>
LayerCount: 2
Fore
SplineSet
425 0 m 1
 401 -57 l 1
 344 -81 l 1
 286 -57 l 1
 277 -36 l 1
 272 -36 l 2
 122 -46 50 71 34 169 c 0
 33 177 32 187 31 195 c 0
 22 306 79 439 226 443 c 0
 244 443 261 442 278 438 c 0
 306 431 329 419 346 404 c 1
 396 384 l 1
 420 326 l 1
 396 269 l 1
 339 245 l 1
 281 269 l 1
 257 326 l 1
 271 361 l 1
 261 372 250 378 243 380 c 0
 238 381 234 381 230 381 c 0
 198 380 122 313 131 198 c 0
 132 191 132 183 133 176 c 0
 150 74 221 23 262 26 c 0
 262 26 266 27 273 27 c 1
 286 57 l 1
 301 63 l 1
 309 133 l 1
 296 132 l 1
 283 102 l 1
 226 78 l 1
 168 102 l 1
 145 159 l 1
 168 217 l 1
 226 241 l 1
 283 217 l 1
 292 195 l 1
 358 199 l 2
 391 201 415 182 413 166 c 2
 401 57 l 1
 425 0 l 1
EndSplineSet
AlternateSubs2: "Randomize subtable" g.1 g.2 g.3 g.4 g.5 g.6 g.7 g.8 g.9 g.10 g.11 g.12 g.13 g.14 g.15 g.16 g.17 g.18 g.19 g.20 g.21 g.22 g.23 g.24 g.25 g.26 g.27 g.28 g.29 g.30 g.31
EndChar

StartChar: OE
Encoding: 338 338 50
Width: 584
VWidth: 0
Flags: W
VStem: 250 99<154 282 370 425.923> 263 100<407.25 659>
LayerCount: 2
Fore
SplineSet
553 250 m 1x40
 529 192 l 1
 472 169 l 1
 414 192 l 1
 391 250 l 1
 393 256 l 1
 353 282 l 1
 349 122 l 1x80
 434 64 l 1
 467 78 l 1
 524 54 l 1
 548 -3 l 1
 524 -61 l 1
 467 -85 l 1
 409 -61 l 1
 385 -3 l 1
 388 3 l 1
 275 79 l 1
 145 90 73 189 46 281 c 0
 -6 454 67 641 235 732 c 1
 258 787 l 1
 315 810 l 1
 372 787 l 1
 384 759 l 1
 398 759 l 1
 409 784 l 1
 466 808 l 1
 524 784 l 1
 547 727 l 1
 524 670 l 1
 466 646 l 1
 409 670 l 1
 398 697 l 1
 382 697 l 1
 372 672 l 1
 363 668 l 1
 355 370 l 1
 438 317 l 1
 472 331 l 1
 529 307 l 1
 553 250 l 1x40
250 154 m 1
 263 659 l 1x40
 159 580 103 435 145 293 c 0
 166 224 208 176 250 154 c 1
EndSplineSet
AlternateSubs2: "Randomize subtable" OE.1 OE.2 OE.3 OE.4 OE.5 OE.6 OE.7 OE.8 OE.9 OE.10 OE.11 OE.12 OE.13 OE.14 OE.15
EndChar

StartChar: period
Encoding: 46 46 51
Width: 237
VWidth: 0
Flags: W
HStem: -56 163
VStem: 37 163
LayerCount: 2
Fore
SplineSet
200 25 m 1
 176 -32 l 1
 118 -56 l 1
 61 -32 l 1
 37 25 l 1
 61 83 l 1
 118 107 l 1
 176 83 l 1
 200 25 l 1
EndSplineSet
AlternateSubs2: "Randomize subtable" period.1 period.2 period.3 period.4 period.5 period.6 period.7
EndChar

StartChar: colon
Encoding: 58 58 52
Width: 260
VWidth: 0
Flags: W
VStem: 35 190
LayerCount: 2
Fore
SplineSet
225 252 m 1
 201 195 l 1
 144 171 l 1
 86 195 l 1
 62 252 l 1
 86 310 l 1
 144 333 l 1
 201 310 l 1
 225 252 l 1
198 5 m 1
 174 -52 l 1
 116 -76 l 1
 59 -52 l 1
 35 5 l 1
 59 63 l 1
 116 86 l 1
 174 63 l 1
 198 5 l 1
EndSplineSet
AlternateSubs2: "Randomize subtable" colon.1 colon.2 colon.3 colon.4 colon.5 colon.6 colon.7
EndChar

StartChar: macron
Encoding: 175 175 53
Width: 473
VWidth: 0
Flags: W
HStem: 521 62<185 289>
LayerCount: 2
Fore
SplineSet
439 556 m 1
 416 499 l 1
 358 475 l 1
 301 499 l 1
 291 524 l 1
 185 521 l 1
 173 494 l 1
 115 470 l 1
 58 494 l 1
 34 551 l 1
 58 609 l 1
 115 633 l 1
 173 609 l 1
 184 583 l 1
 289 586 l 1
 301 614 l 1
 358 637 l 1
 416 614 l 1
 439 556 l 1
EndSplineSet
AlternateSubs2: "Randomize subtable" macron.1 macron.2 macron.3 macron.4 macron.5 macron.6 macron.7
EndChar

StartChar: Y
Encoding: 89 89 54
Width: 460
VWidth: 0
Flags: W
LayerCount: 2
Fore
SplineSet
263 -59 m 1
 239 -116 l 1
 182 -140 l 1
 124 -116 l 1
 100 -59 l 1
 124 -1 l 1
 139 5 l 1
 172 283 l 1
 82 548 l 1
 53 560 l 1
 29 617 l 1
 53 674 l 1
 110 698 l 1
 168 674 l 1
 192 617 l 1
 175 576 l 1
 224 433 l 1
 282 597 l 1
 266 637 l 1
 290 694 l 1
 348 718 l 1
 405 694 l 1
 429 637 l 1
 405 579 l 1
 373 566 l 1
 273 281 l 1
 239 -1 l 1
 263 -59 l 1
EndSplineSet
AlternateSubs2: "Randomize subtable" Y.1 Y.2 Y.3 Y.4 Y.5 Y.6 Y.7 Y.8 Y.9 Y.10 Y.11 Y.12 Y.13 Y.14 Y.15
EndChar

StartChar: Sigma
Encoding: 931 931 55
Width: 516
VWidth: 0
Flags: W
HStem: 653 63<226 335> 745 20G<355.5 451.333>
LayerCount: 2
Fore
SplineSet
476 -43 m 1
 452 -101 l 1
 395 -125 l 1
 337 -101 l 1
 320 -59 l 1
 63 2 l 2
 41 7 25 24 33 40 c 2
 204 382 l 1
 160 478 133 581 123 686 c 0
 122 701 142 720 174 719 c 2
 336 716 l 1
 346 741 l 1
 403 765 l 1
 461 741 l 1
 485 684 l 1
 461 626 l 1
 403 602 l 1
 346 626 l 1
 335 653 l 1
 226 655 l 1
 238 563 265 475 304 391 c 0
 307 385 306 378 304 373 c 2
 143 50 l 1
 333 5 l 1
 337 14 l 1
 395 38 l 1
 452 14 l 1
 476 -43 l 1
EndSplineSet
AlternateSubs2: "Randomize subtable" Sigma.1 Sigma.2 Sigma.3 Sigma.4 Sigma.5 Sigma.6 Sigma.7 Sigma.8 Sigma.9 Sigma.10 Sigma.11 Sigma.12 Sigma.13 Sigma.14 Sigma.15
EndChar

StartChar: p
Encoding: 112 112 56
Width: 462
VWidth: 0
Flags: W
HStem: 285 60<378.812 428.272>
VStem: 61 100<108 235>
LayerCount: 2
Fore
SplineSet
192 48 m 1
 168 -10 l 1
 110 -33 l 1
 53 -10 l 1
 29 48 l 1
 53 105 l 1
 61 108 l 1
 65 397 l 2
 65 414 88 428 115 428 c 0
 122 428 132 426 137 425 c 2
 402 345 l 2
 427 338 438 318 426 303 c 0
 418 292 399 285 383 285 c 2
 214 280 l 1
 203 252 l 1
 162 235 l 1
 161 108 l 1
 168 105 l 1
 192 48 l 1
EndSplineSet
AlternateSubs2: "Randomize subtable" p.1 p.2 p.3 p.4 p.5 p.6 p.7 p.8 p.9 p.10 p.11 p.12 p.13 p.14 p.15 p.16 p.17 p.18 p.19 p.20 p.21 p.22 p.23 p.24 p.25 p.26 p.27 p.28 p.29 p.30 p.31
EndChar

StartChar: five
Encoding: 53 53 57
Width: 377
VWidth: 0
Flags: W
HStem: 765 20G<217.5 313.333>
LayerCount: 2
Fore
SplineSet
195 134 m 1
 172 77 l 1
 132 60 l 1
 133 31 148 3 168 -5 c 0
 172 -7 174 -7 177 -7 c 0
 186 -8 222 2 240 65 c 0
 252 106 251 157 234 209 c 0
 204 302 154 386 88 455 c 0
 83 460 80 467 81 474 c 2
 118 705 l 2
 120 720 141 732 166 733 c 2
 197 734 l 1
 208 761 l 1
 265 785 l 1
 323 761 l 1
 347 703 l 1
 323 646 l 1
 265 622 l 1
 209 646 l 1
 182 478 l 1
 252 403 302 317 332 222 c 0
 351 163 352 104 338 54 c 0
 321 -6 271 -81 160 -69 c 0
 142 -67 124 -62 110 -56 c 0
 35 -23 11 53 42 113 c 1
 33 134 l 1
 57 192 l 1
 114 216 l 1
 172 192 l 1
 195 134 l 1
EndSplineSet
AlternateSubs2: "Randomize subtable" five.1 five.2 five.3 five.4 five.5 five.6 five.7
EndChar

StartChar: oslash
Encoding: 248 248 58
Width: 494
VWidth: 0
Flags: W
HStem: -15 62<228 290.728> 476 20G<183.667 279.5>
VStem: 361 100<130.395 329.288>
LayerCount: 2
Fore
SplineSet
228 48 m 1
 232 47 237 47 241 47 c 0
 288 47 361 116 361 230 c 0
 361 265 354 299 341 331 c 1
 228 48 l 1
201 -92 m 1
 177 -150 l 1
 120 -173 l 1
 62 -150 l 1
 39 -92 l 1
 62 -35 l 1
 97 -21 l 1
 115 25 l 1
 51 67 23 151 31 227 c 0
 39 302 80 371 150 415 c 1
 174 472 l 1
 232 496 l 1
 289 472 l 1
 296 455 l 1
 318 468 358 465 373 448 c 0
 430 387 460 311 461 231 c 0
 462 121 401 -15 240 -15 c 0
 227 -15 215 -14 203 -12 c 1
 186 -56 l 1
 201 -92 l 1
194 349 m 1
 161 318 137 274 131 222 c 0
 127 183 135 145 151 114 c 1
 240 336 l 1
 232 333 l 1
 194 349 l 1
EndSplineSet
AlternateSubs2: "Randomize subtable" oslash.1 oslash.2 oslash.3 oslash.4 oslash.5 oslash.6 oslash.7 oslash.8 oslash.9 oslash.10 oslash.11 oslash.12 oslash.13 oslash.14 oslash.15 oslash.16 oslash.17 oslash.18 oslash.19 oslash.20 oslash.21 oslash.22 oslash.23 oslash.24 oslash.25 oslash.26 oslash.27 oslash.28 oslash.29 oslash.30 oslash.31
EndChar

StartChar: equal
Encoding: 61 61 59
Width: 418
VWidth: 0
Flags: W
HStem: 192 62<191 236> 429 62<182 221> 519 20G<64.5 160.333 240.435 339.565>
LayerCount: 2
Fore
SplineSet
387 225 m 1
 363 168 l 1
 305 144 l 1
 248 168 l 1
 238 193 l 1
 191 192 l 1
 179 164 l 1
 122 141 l 1
 65 164 l 1
 41 222 l 1
 65 279 l 1
 122 303 l 1
 179 279 l 1
 189 254 l 1
 236 255 l 1
 248 283 l 1
 305 307 l 1
 363 283 l 1
 387 225 l 1
371 464 m 1
 347 407 l 1
 290 383 l 1
 233 407 l 1
 223 430 l 1
 182 429 l 1
 170 400 l 1
 112 376 l 1
 55 400 l 1
 31 457 l 1
 55 515 l 1
 112 539 l 1
 170 515 l 1
 180 491 l 1
 221 492 l 1
 233 522 l 1
 290 545 l 1
 347 522 l 1
 371 464 l 1
EndSplineSet
AlternateSubs2: "Randomize subtable" equal.1 equal.2 equal.3 equal.4 equal.5 equal.6 equal.7
EndChar

StartChar: o
Encoding: 111 111 60
Width: 416
VWidth: 0
Flags: W
HStem: 20 63<177.02 240.353> 491 20G<179.5 274.5>
LayerCount: 2
Fore
SplineSet
154 449 m 1
 170 487 l 1
 227 511 l 1
 284 487 l 1
 308 430 l 1
 302 416 l 1
 349 365 376 302 382 234 c 0
 389 146 352 24 216 20 c 0
 210 20 204 21 198 21 c 0
 81 28 47 121 35 187 c 0
 18 285 44 410 154 449 c 1
175 371 m 1
 144 335 121 267 134 194 c 0
 147 122 192 84 208 83 c 0
 209 83 210 83 211 83 c 0
 231 84 290 136 282 230 c 0
 278 275 264 318 240 354 c 1
 227 349 l 1
 175 371 l 1
EndSplineSet
AlternateSubs2: "Randomize subtable" o.1 o.2 o.3 o.4 o.5 o.6 o.7 o.8 o.9 o.10 o.11 o.12 o.13 o.14 o.15 o.16 o.17 o.18 o.19 o.20 o.21 o.22 o.23 o.24 o.25 o.26 o.27 o.28 o.29 o.30 o.31
EndChar

StartChar: braceright
Encoding: 125 125 61
Width: 381
VWidth: 0
Flags: W
VStem: 208 100<71.5018 214.82>
LayerCount: 2
Fore
SplineSet
352 346 m 1
 328 289 l 1
 270 265 l 1
 243 276 l 1
 289 240 308 192 308 145 c 0
 308 83 273 3 183 -25 c 1
 168 -62 l 1
 110 -86 l 1
 53 -62 l 1
 29 -4 l 1
 53 53 l 1
 110 77 l 1
 168 53 l 1
 169 52 l 1
 192 72 208 104 208 145 c 0
 208 194 180 237 138 254 c 0
 137 254 131 256 129 258 c 0
 110 270 110 290 129 302 c 2
 191 341 l 1
 189 346 l 1
 194 359 l 1
 120 424 l 1
 104 440 110 461 138 470 c 0
 189 486 212 565 175 616 c 1
 124 595 l 1
 67 619 l 1
 43 676 l 1
 67 734 l 1
 124 758 l 1
 182 734 l 1
 199 694 l 1
 207 691 214 687 221 683 c 0
 316 627 324 499 229 436 c 1
 249 418 l 1
 270 427 l 1
 328 404 l 1
 352 346 l 1
EndSplineSet
AlternateSubs2: "Randomize subtable" braceright.1 braceright.2 braceright.3 braceright.4 braceright.5 braceright.6 braceright.7
EndChar

StartChar: quotesingle
Encoding: 39 39 62
Width: 277
VWidth: 0
Flags: W
HStem: 413 300
VStem: 31 214
LayerCount: 2
Fore
SplineSet
194 494 m 1
 170 437 l 1
 112 413 l 1
 55 437 l 1
 31 494 l 1
 55 552 l 1
 91 567 l 1
 94 575 97 582 100 590 c 1
 83 632 l 1
 106 690 l 1
 164 713 l 1
 221 690 l 1
 245 632 l 1
 221 575 l 1
 193 563 l 1
 189 552 185 540 180 529 c 1
 194 494 l 1
EndSplineSet
AlternateSubs2: "Randomize subtable" quotesingle.1 quotesingle.2 quotesingle.3 quotesingle.4 quotesingle.5 quotesingle.6 quotesingle.7
EndChar

StartChar: E
Encoding: 69 69 63
Width: 438
VWidth: 0
Flags: W
HStem: 494 20G<258.565 358.565> 580 21G<236.5 332.333> 628 63<164 215>
VStem: 63 101<503.625 626> 77 99<328.105 349 482 558.917> 96 98<-4 98.2632>
LayerCount: 2
Fore
SplineSet
390 433 m 1xf0
 366 376 l 1
 309 352 l 1
 251 376 l 1
 243 397 l 1
 182 392 l 1
 176 378 l 1xe8
 194 -4 l 1
 251 8 l 1
 268 49 l 1
 325 73 l 1
 383 49 l 1
 407 -9 l 1
 383 -66 l 1
 325 -90 l 1
 268 -66 l 1
 263 -55 l 1
 163 -77 l 2
 137 -83 108 -73 99 -57 c 0
 97 -54 96 -50 96 -48 c 2xe4
 77 349 l 1xe8
 53 359 l 1
 29 416 l 1
 53 474 l 1
 71 482 l 1
 63 655 l 2
 62 672 84 686 110 687 c 2
 215 691 l 1
 227 719 l 1
 284 743 l 1
 342 719 l 1
 366 662 l 1
 342 604 l 1
 284 580 l 1
 227 604 l 1
 217 628 l 1
 164 626 l 1
 172 465 l 1
 177 453 l 1
 238 459 l 1
 251 491 l 1
 309 514 l 1
 366 491 l 1
 390 433 l 1xf0
EndSplineSet
AlternateSubs2: "Randomize subtable" E.1 E.2 E.3 E.4 E.5 E.6 E.7 E.8 E.9 E.10 E.11 E.12 E.13 E.14 E.15
EndChar

StartChar: Upsilon
Encoding: 933 933 64
Width: 629
VWidth: 0
Flags: W
HStem: 509 21G<62.4348 162.435>
LayerCount: 2
Fore
SplineSet
375 11 m 1
 351 -47 l 1
 293 -70 l 1
 236 -47 l 1
 212 11 l 1
 236 68 l 1
 246 72 l 1
 260 340 l 2
 263 395 209 644 181 679 c 0
 175 687 170 690 167 692 c 1
 158 688 145 675 140 659 c 1
 170 647 l 1
 194 590 l 1
 170 532 l 1
 112 509 l 1
 55 532 l 1
 31 590 l 1
 42 617 l 1
 21 683 77 755 171 755 c 1
 216 754 250 733 271 707 c 0
 281 694 292 673 301 648 c 1
 309 678 319 703 334 720 c 0
 370 761 431 800 501 774 c 1
 600 740 622 613 568 553 c 0
 551 534 522 521 488 517 c 1
 479 496 l 1
 421 473 l 1
 375 492 l 1
 367 427 362 365 360 338 c 2
 346 70 l 1
 351 68 l 1
 375 11 l 1
487 593 m 1
 501 627 485 700 455 718 c 1
 449 715 437 707 422 690 c 0
 417 684 407 658 398 625 c 1
 421 635 l 1
 479 611 l 1
 487 593 l 1
EndSplineSet
AlternateSubs2: "Randomize subtable" Upsilon.1 Upsilon.2 Upsilon.3 Upsilon.4 Upsilon.5 Upsilon.6 Upsilon.7 Upsilon.8 Upsilon.9 Upsilon.10 Upsilon.11 Upsilon.12 Upsilon.13 Upsilon.14 Upsilon.15
EndChar

StartChar: at
Encoding: 64 64 65
Width: 592
VWidth: 0
Flags: W
VStem: 462 100<74.7542 458.576>
LayerCount: 2
Fore
SplineSet
155 437 m 1
 168 503 l 2
 172 520 197 532 224 530 c 0
 246 528 263 517 267 506 c 2
 373 220 l 1
 405 207 l 1
 429 150 l 1
 413 112 l 1
 433 59 l 1
 452 91 461 145 462 198 c 0
 465 354 444 512 390 604 c 0
 348 676 306 690 258 679 c 0
 186 662 129 561 155 437 c 1
225 292 m 1
 232 283 240 275 247 267 c 2
 256 257 l 1
 232 323 l 1
 225 292 l 1
192 -17 m 1
 168 -74 l 1
 110 -98 l 1
 53 -74 l 1
 29 -17 l 1
 53 41 l 1
 74 50 l 1
 122 282 l 1
 111 298 100 315 91 332 c 1
 85 345 l 1
 12 494 36 695 224 738 c 0
 354 768 440 701 484 625 c 0
 546 519 566 357 562 197 c 0
 560 116 555 -6 433 -28 c 0
 423 -30 413 -31 403 -31 c 0
 382 -31 359 -21 354 -7 c 2
 322 79 l 1
 290 93 l 1
 266 150 l 1
 266 151 l 1
 244 164 224 178 205 194 c 1
 171 33 l 1
 192 -17 l 1
EndSplineSet
AlternateSubs2: "Randomize subtable" at.1 at.2 at.3 at.4 at.5 at.6 at.7
EndChar

StartChar: zero
Encoding: 48 48 66
Width: 430
VWidth: 0
Flags: W
LayerCount: 2
Fore
SplineSet
201 432 m 1
 195 416 188 400 181 384 c 0
 130 266 119 145 142 67 c 0
 163 -4 200 -17 226 -14 c 0
 228 -14 230 -13 232 -13 c 0
 316 2 317 182 219 388 c 0
 212 402 207 417 201 432 c 1
288 694 m 1
 264 637 l 1
 257 634 l 1
 262 547 283 474 315 406 c 0
 401 224 477 -33 260 -73 c 0
 255 -74 249 -74 244 -75 c 0
 123 -89 65 -16 44 55 c 0
 17 147 31 276 85 401 c 0
 116 474 142 548 152 636 c 1
 149 637 l 1
 125 694 l 1
 149 752 l 1
 206 776 l 1
 264 752 l 1
 288 694 l 1
EndSplineSet
AlternateSubs2: "Randomize subtable" zero.1 zero.2 zero.3 zero.4 zero.5 zero.6 zero.7
EndChar

StartChar: O
Encoding: 79 79 67
Width: 551
VWidth: 0
Flags: W
HStem: 501 21G<186 256>
LayerCount: 2
Fore
SplineSet
150 599 m 1
 167 640 l 1
 224 664 l 1
 282 640 l 1
 306 582 l 1
 303 576 l 1
 338 551 370 523 398 493 c 0
 592 283 535 11 346 -57 c 0
 304 -72 254 -76 205 -65 c 0
 -4 -19 25 213 45 381 c 0
 53 450 65 559 150 599 c 1
186 517 m 1
 167 484 152 430 145 376 c 0
 122 188 136 17 238 -6 c 0
 260 -11 277 -10 296 -3 c 0
 404 36 490 266 311 462 c 0
 294 481 275 498 256 514 c 1
 224 501 l 1
 186 517 l 1
EndSplineSet
AlternateSubs2: "Randomize subtable" O.1 O.2 O.3 O.4 O.5 O.6 O.7 O.8 O.9 O.10 O.11 O.12 O.13 O.14 O.15
EndChar

StartChar: V
Encoding: 86 86 68
Width: 530
VWidth: 0
Flags: W
LayerCount: 2
Fore
SplineSet
499 625 m 1
 475 568 l 1
 451 558 l 1
 325 71 l 2
 317 35 236 39 227 71 c 2
 79 596 l 1
 53 607 l 1
 29 664 l 1
 53 721 l 1
 110 745 l 1
 168 721 l 1
 192 664 l 1
 173 619 l 1
 274 264 l 1
 355 580 l 1
 336 625 l 1
 360 683 l 1
 418 707 l 1
 475 683 l 1
 499 625 l 1
EndSplineSet
AlternateSubs2: "Randomize subtable" V.1 V.2 V.3 V.4 V.5 V.6 V.7 V.8 V.9 V.10 V.11 V.12 V.13 V.14 V.15
EndChar

StartChar: eight
Encoding: 56 56 69
Width: 335
VWidth: 0
Flags: W
HStem: -21 62<146.086 182.933>
LayerCount: 2
Fore
SplineSet
173 507 m 1
 188 526 199 544 202 566 c 0
 204 582 201 597 196 610 c 1
 171 599 l 1
 148 609 l 1
 147 575 161 534 173 507 c 1
164 300 m 1
 158 274 153 246 146 219 c 0
 119 112 146 43 163 41 c 1
 164 41 l 1
 179 46 220 113 197 200 c 0
 188 234 177 267 164 300 c 1
214 422 m 1
 233 381 l 2
 258 326 280 269 295 210 c 0
 308 161 307 112 293 72 c 0
 280 33 253 -13 182 -21 c 0
 169 -22 155 -22 142 -20 c 0
 -3 -1 26 145 47 229 c 0
 63 292 75 371 107 425 c 1
 97 447 l 1
 77 488 58 530 50 577 c 0
 43 618 48 678 99 703 c 1
 114 738 l 1
 171 762 l 1
 229 738 l 1
 253 681 l 1
 293 650 308 604 302 561 c 0
 295 508 256 471 228 439 c 0
 223 433 218 428 214 422 c 1
EndSplineSet
AlternateSubs2: "Randomize subtable" eight.1 eight.2 eight.3 eight.4 eight.5 eight.6 eight.7
EndChar

StartChar: H
Encoding: 72 72 70
Width: 525
VWidth: 0
Flags: W
HStem: 404 62<187 329>
VStem: 61 100<499 633> 68 100<214.5 377 499 633> 76 100<52 336.25> 310 100<54 318.587>
LayerCount: 2
Fore
SplineSet
494 695 m 1xc8
 471 637 l 1
 454 630 l 1
 430 446 418 249 410 52 c 1
 416 50 l 1
 439 -8 l 1
 416 -65 l 1
 358 -89 l 1
 301 -65 l 1
 277 -8 l 1
 301 50 l 1
 310 54 l 1
 314 170 320 286 329 399 c 1
 185 404 l 1
 175 380 l 1
 168 377 l 1xa8
 176 52 l 1
 184 49 l 1
 208 -9 l 1
 184 -66 l 1
 127 -90 l 1
 70 -66 l 1
 46 -9 l 1
 70 49 l 1
 76 51 l 1x98
 68 377 l 1xa8
 60 380 l 1
 36 437 l 1
 60 495 l 1
 65 497 l 1
 61 633 l 1xc8
 53 636 l 1
 29 694 l 1
 53 751 l 1
 110 775 l 1
 168 751 l 1
 192 694 l 1
 168 636 l 1xa8
 161 633 l 1
 165 499 l 1
 175 495 l 1
 187 466 l 1
 334 461 l 1
 340 522 347 582 355 641 c 1
 332 695 l 1
 356 752 l 1
 413 776 l 1
 471 752 l 1
 494 695 l 1xc8
EndSplineSet
AlternateSubs2: "Randomize subtable" H.1 H.2 H.3 H.4 H.5 H.6 H.7 H.8 H.9 H.10 H.11 H.12 H.13 H.14 H.15
EndChar

StartChar: exclamdown
Encoding: 161 161 71
Width: 251
VWidth: 0
Flags: W
HStem: 489 20G<90.5652 190.565> 545 21G<83.6667 179.5>
VStem: 29 193
LayerCount: 2
Fore
SplineSet
222 428 m 1
 198 371 l 1
 187 366 l 1
 164 -5 l 1
 168 -7 l 1
 192 -65 l 1
 168 -122 l 1
 110 -146 l 1
 53 -122 l 1
 29 -65 l 1
 53 -7 l 1
 64 -2 l 1
 87 369 l 1
 83 371 l 1
 60 428 l 1
 83 486 l 1
 141 509 l 1
 198 486 l 1
 222 428 l 1
213 627 m 1
 189 569 l 1
 132 545 l 1
 74 569 l 1
 50 627 l 1
 74 684 l 1
 132 708 l 1
 189 684 l 1
 213 627 l 1
EndSplineSet
AlternateSubs2: "Randomize subtable" exclamdown.1 exclamdown.2 exclamdown.3 exclamdown.4 exclamdown.5 exclamdown.6 exclamdown.7
EndChar

StartChar: grave
Encoding: 96 96 72
Width: 273
VWidth: 0
Flags: W
HStem: 498 270
VStem: 33 207
LayerCount: 2
Fore
SplineSet
240 579 m 1
 217 522 l 1
 159 498 l 1
 102 522 l 1
 78 579 l 1
 93 614 l 1
 57 629 l 1
 33 687 l 1
 57 744 l 1
 114 768 l 1
 172 744 l 1
 196 687 l 1
 181 651 l 1
 217 637 l 1
 240 579 l 1
EndSplineSet
AlternateSubs2: "Randomize subtable" grave.1 grave.2 grave.3 grave.4 grave.5 grave.6 grave.7
EndChar

StartChar: AE
Encoding: 198 198 73
Width: 646
VWidth: 0
Flags: W
HStem: 571 21G<449.5 545.333>
VStem: 304 100<55 186 337 387>
LayerCount: 2
Fore
SplineSet
615 -42 m 1
 592 -99 l 1
 534 -123 l 1
 477 -99 l 1
 454 -45 l 1
 322 13 l 2
 310 18 301 29 301 39 c 2
 302 186 l 1
 238 163 l 1
 174 -52 l 1
 192 -96 l 1
 168 -153 l 1
 110 -177 l 1
 53 -153 l 1
 29 -96 l 1
 53 -38 l 1
 80 -27 l 1
 113 86 l 1
 71 103 l 1
 48 160 l 1
 71 218 l 1
 129 241 l 1
 156 230 l 1
 295 695 l 1
 277 737 l 1
 301 795 l 1
 358 818 l 1
 416 795 l 1
 439 737 l 1
 437 733 l 1
 461 719 l 1
 497 734 l 1
 555 710 l 1
 578 653 l 1
 555 595 l 1
 497 571 l 1
 440 595 l 1
 416 653 l 1
 418 657 l 1
 407 663 l 1
 404 337 l 1
 445 354 l 1
 502 330 l 1
 526 272 l 1
 502 215 l 1
 445 191 l 1
 403 209 l 1
 401 55 l 1
 484 19 l 1
 534 39 l 1
 592 16 l 1
 615 -42 l 1
303 258 m 1
 304 387 l 1
 262 243 l 1
 303 258 l 1
EndSplineSet
AlternateSubs2: "Randomize subtable" AE.1 AE.2 AE.3 AE.4 AE.5 AE.6 AE.7 AE.8 AE.9 AE.10 AE.11 AE.12 AE.13 AE.14 AE.15
EndChar

StartChar: W
Encoding: 87 87 74
Width: 658
VWidth: 0
Flags: W
VStem: 302 100<557.327 604.42> 417 99<0.529148 46.7083>
LayerCount: 2
Fore
SplineSet
627 662 m 1
 603 605 l 1
 588 599 l 1
 516 14 l 2
 511 -23 423 -24 417 12 c 2
 369 250 l 1
 351 62 l 2
 350 48 333 36 310 33 c 0
 283 30 257 42 252 59 c 2
 79 662 l 1
 53 673 l 1
 29 731 l 1
 53 788 l 1
 110 812 l 1
 168 788 l 1
 192 731 l 1
 173 686 l 1
 277 327 l 1
 302 591 l 2
 306 628 395 628 402 593 c 2
 454 328 l 1
 488 605 l 1
 464 662 l 1
 488 720 l 1
 546 743 l 1
 603 720 l 1
 627 662 l 1
EndSplineSet
AlternateSubs2: "Randomize subtable" W.1 W.2 W.3 W.4 W.5 W.6 W.7 W.8 W.9 W.10 W.11 W.12 W.13 W.14 W.15
EndChar

StartChar: R
Encoding: 82 82 75
Width: 632
VWidth: 0
Flags: W
LayerCount: 2
Fore
SplineSet
178 434 m 1
 182 434 186 435 189 435 c 0
 209 436 228 426 235 418 c 2
 367 267 l 1
 423 269 509 316 499 420 c 0
 498 435 495 450 489 467 c 0
 443 600 319 654 225 641 c 0
 213 639 202 637 190 633 c 1
 168 579 l 1
 166 578 l 1
 178 434 l 1
567 68 m 1
 543 10 l 1
 485 -14 l 1
 428 10 l 1
 404 68 l 1
 412 86 l 1
 302 212 l 1
 258 222 220 243 193 273 c 1
 217 1 l 1
 229 -4 l 1
 253 -61 l 1
 229 -119 l 1
 172 -143 l 1
 115 -119 l 1
 91 -61 l 1
 115 -4 l 1
 117 -3 l 1
 65 574 l 1
 53 579 l 1
 29 637 l 1
 53 694 l 1
 110 718 l 1
 166 695 l 1
 179 698 191 700 204 702 c 0
 382 726 536 625 586 480 c 0
 634 342 549 236 418 210 c 1
 475 145 l 1
 485 149 l 1
 543 125 l 1
 567 68 l 1
EndSplineSet
AlternateSubs2: "Randomize subtable" R.1 R.2 R.3 R.4 R.5 R.6 R.7 R.8 R.9 R.10 R.11 R.12 R.13 R.14 R.15
EndChar

StartChar: l
Encoding: 108 108 76
Width: 396
VWidth: 0
Flags: W
HStem: 544 20G<78.5 174.333> 544 20G<78.5 174.333>
LayerCount: 2
Fore
SplineSet
365 -14 m 1x80
 341 -71 l 1
 283 -95 l 1
 226 -71 l 1
 211 -36 l 1
 68 -16 l 2
 46 -13 27 0 29 16 c 2
 70 425 l 1
 69 425 l 1
 45 482 l 1
 69 540 l 1
 126 564 l 1
 184 540 l 1
 207 482 l 1
 184 425 l 1
 170 419 l 1
 132 39 l 1
 219 27 l 1
 226 43 l 1
 283 67 l 1
 341 43 l 1
 365 -14 l 1x80
EndSplineSet
AlternateSubs2: "Randomize subtable" l.1 l.2 l.3 l.4 l.5 l.6 l.7 l.8 l.9 l.10 l.11 l.12 l.13 l.14 l.15 l.16 l.17 l.18 l.19 l.20 l.21 l.22 l.23 l.24 l.25 l.26 l.27 l.28 l.29 l.30 l.31
EndChar

StartChar: w
Encoding: 119 119 77
Width: 599
VWidth: 0
Flags: W
HStem: 500 20G<62.5 158.333>
VStem: 364 99<35.8027 75.6>
LayerCount: 2
Fore
SplineSet
568 395 m 1
 545 337 l 1
 524 328 l 1
 463 47 l 2
 455 12 372 13 364 47 c 2
 329 190 l 1
 247 -43 l 2
 236 -75 155 -74 149 -40 c 2
 73 373 l 1
 53 381 l 1
 29 438 l 1
 53 496 l 1
 110 520 l 1
 168 496 l 1
 192 438 l 1
 170 387 l 1
 214 153 l 1
 289 367 l 2
 295 384 321 395 348 391 c 0
 369 388 384 375 387 365 c 2
 410 271 l 1
 426 346 l 1
 406 395 l 1
 430 452 l 1
 487 476 l 1
 545 452 l 1
 568 395 l 1
EndSplineSet
AlternateSubs2: "Randomize subtable" w.1 w.2 w.3 w.4 w.5 w.6 w.7 w.8 w.9 w.10 w.11 w.12 w.13 w.14 w.15 w.16 w.17 w.18 w.19 w.20 w.21 w.22 w.23 w.24 w.25 w.26 w.27 w.28 w.29 w.30 w.31
EndChar

StartChar: d
Encoding: 100 100 78
Width: 471
VWidth: 0
Flags: W
HStem: 536 20G<62.5 158.333>
VStem: 61 100<113.7 414> 71 100<-15 285> 338 100<117.055 319.014>
LayerCount: 2
Fore
SplineSet
179 505 m 1xd0
 312 488 406 392 431 286 c 0
 435 267 438 247 438 227 c 0
 441 85 350 -49 196 -94 c 1
 179 -134 l 1
 122 -158 l 1
 64 -134 l 1
 40 -77 l 1
 64 -19 l 1
 71 -16 l 1xb0
 61 414 l 1
 53 417 l 1
 29 475 l 1
 53 532 l 1
 110 556 l 1
 168 532 l 1
 179 505 l 1xd0
161 414 m 1xd0
 171 -15 l 1xb0
 179 -19 l 1
 182 -26 l 1
 269 14 340 108 338 227 c 0
 338 244 336 260 332 276 c 0
 310 365 244 422 177 439 c 1
 168 417 l 1
 161 414 l 1xd0
EndSplineSet
AlternateSubs2: "Randomize subtable" d.1 d.2 d.3 d.4 d.5 d.6 d.7 d.8 d.9 d.10 d.11 d.12 d.13 d.14 d.15 d.16 d.17 d.18 d.19 d.20 d.21 d.22 d.23 d.24 d.25 d.26 d.27 d.28 d.29 d.30 d.31
EndChar

StartChar: six
Encoding: 54 54 79
Width: 338
VWidth: 0
Flags: W
HStem: 778 20G<166.5 262.333>
LayerCount: 2
Fore
SplineSet
295 717 m 1
 272 659 l 1
 253 651 l 1
 243 593 233 535 222 478 c 1
 257 483 289 464 284 442 c 0
 264 361 266 276 288 196 c 0
 310 115 344 -32 198 -48 c 0
 187 -49 176 -49 165 -48 c 0
 91 -41 68 9 57 47 c 0
 48 80 47 117 53 156 c 1
 29 213 l 1
 53 271 l 1
 80 282 l 1
 97 359 l 2
 118 460 138 562 155 664 c 1
 133 717 l 1
 157 774 l 1
 214 798 l 1
 272 774 l 1
 295 717 l 1
153 150 m 1
 144 81 165 23 181 14 c 1
 194 18 216 90 189 186 c 1
 186 198 l 1
 168 156 l 1
 153 150 l 1
EndSplineSet
AlternateSubs2: "Randomize subtable" six.1 six.2 six.3 six.4 six.5 six.6 six.7
EndChar

StartChar: Theta
Encoding: 920 920 80
Width: 544
VWidth: 0
Flags: W
HStem: 10 62<217.416 320.58>
VStem: 33 100<300.402 454.326>
LayerCount: 2
Fore
SplineSet
259 235 m 1
 235 178 l 1
 177 154 l 1
 161 161 l 1
 187 104 229 73 269 72 c 0
 274 72 279 73 283 73 c 0
 344 80 398 163 408 280 c 1
 375 294 l 1
 259 236 l 1
 259 235 l 1
339 355 m 1
 339 356 l 1
 363 413 l 1
 397 427 l 1
 394 439 392 452 388 464 c 0
 361 557 341 603 299 662 c 1
 294 660 l 1
 271 669 l 1
 207 608 182 556 152 444 c 0
 141 404 135 365 133 326 c 0
 133 316 133 306 133 297 c 1
 177 316 l 1
 223 297 l 1
 339 355 l 1
217 729 m 1
 212 741 l 1
 236 799 l 1
 294 823 l 1
 351 799 l 1
 375 741 l 1
 366 720 l 1
 428 640 455 585 486 476 c 0
 544 273 512 10 267 10 c 1
 78 13 27 182 33 328 c 0
 35 370 42 412 53 455 c 0
 87 584 125 649 217 729 c 1
EndSplineSet
AlternateSubs2: "Randomize subtable" Theta.1 Theta.2 Theta.3 Theta.4 Theta.5 Theta.6 Theta.7 Theta.8 Theta.9 Theta.10 Theta.11 Theta.12 Theta.13 Theta.14 Theta.15
EndChar

StartChar: plus
Encoding: 43 43 81
Width: 438
VWidth: 0
Flags: W
HStem: 351 63<184 214>
VStem: 214 100<179 289 441 595>
LayerCount: 2
Fore
SplineSet
346 656 m 1
 322 598 l 1
 315 595 l 1
 314 441 l 1
 326 446 l 1
 384 423 l 1
 408 365 l 1
 384 308 l 1
 326 284 l 1
 314 289 l 1
 313 179 l 1
 321 176 l 1
 345 119 l 1
 321 61 l 1
 263 38 l 1
 206 61 l 1
 182 119 l 1
 206 176 l 1
 213 179 l 1
 214 351 l 1
 175 356 l 1
 169 341 l 1
 111 317 l 1
 54 341 l 1
 30 398 l 1
 54 455 l 1
 111 479 l 1
 169 455 l 1
 184 419 l 1
 214 414 l 1
 215 595 l 1
 207 598 l 1
 184 656 l 1
 207 713 l 1
 265 737 l 1
 322 713 l 1
 346 656 l 1
EndSplineSet
AlternateSubs2: "Randomize subtable" plus.1 plus.2 plus.3 plus.4 plus.5 plus.6 plus.7
EndChar

StartChar: Gamma
Encoding: 915 915 82
Width: 392
VWidth: 0
Flags: W
HStem: 571 21G<230.435 330.435>
VStem: 63 100<7 441> 75 99<330.333 689>
LayerCount: 2
Fore
SplineSet
361 652 m 1xa0
 338 594 l 1
 280 571 l 1
 223 594 l 1
 199 652 l 1
 204 664 l 1
 174 689 l 1xa0
 163 7 l 1
 170 4 l 1
 194 -54 l 1
 170 -111 l 1
 112 -135 l 1
 55 -111 l 1
 31 -54 l 1
 55 4 l 1
 63 7 l 1xc0
 75 783 l 2
 75 800 99 814 126 814 c 0
 142 814 156 809 165 802 c 2
 257 723 l 1
 280 733 l 1
 338 709 l 1
 361 652 l 1xa0
EndSplineSet
AlternateSubs2: "Randomize subtable" Gamma.1 Gamma.2 Gamma.3 Gamma.4 Gamma.5 Gamma.6 Gamma.7 Gamma.8 Gamma.9 Gamma.10 Gamma.11 Gamma.12 Gamma.13 Gamma.14 Gamma.15
EndChar

StartChar: quotedblright
Encoding: 8221 8221 83
Width: 383
VWidth: 0
Flags: W
HStem: 743 20G<222.727 318.333>
VStem: 32 320
LayerCount: 2
Fore
SplineSet
352 681 m 1
 328 624 l 1
 272 601 l 1
 127 382 l 2
 118 369 94 360 71 363 c 0
 44 366 27 383 32 400 c 2
 105 638 l 1
 88 680 l 1
 112 737 l 1
 169 761 l 1
 218 741 l 1
 270 763 l 1
 328 739 l 1
 352 681 l 1
EndSplineSet
AlternateSubs2: "Randomize subtable" quotedblright.1 quotedblright.2 quotedblright.3 quotedblright.4 quotedblright.5 quotedblright.6 quotedblright.7
EndChar

StartChar: k
Encoding: 107 107 84
Width: 513
VWidth: 0
Flags: W
HStem: 550 20G<60.4348 160.435>
VStem: 62 100<117 127 275 429>
LayerCount: 2
Fore
SplineSet
482 24 m 1
 458 -33 l 1
 401 -57 l 1
 343 -33 l 1
 322 17 l 1
 292 32 266 52 244 75 c 0
 222 99 202 125 185 153 c 1
 177 133 l 1
 162 127 l 1
 162 117 l 1
 169 114 l 1
 193 57 l 1
 169 -1 l 1
 112 -24 l 1
 54 -1 l 1
 30 57 l 1
 54 114 l 1
 62 117 l 1
 62 134 l 1
 38 190 l 1
 61 246 l 1
 60 429 l 1
 53 432 l 1
 29 489 l 1
 53 547 l 1
 110 570 l 1
 168 547 l 1
 192 489 l 1
 168 432 l 1
 160 429 l 1
 161 275 l 1
 261 357 l 1
 256 368 l 1
 280 425 l 1
 337 449 l 1
 395 425 l 1
 419 368 l 1
 395 310 l 1
 337 286 l 1
 313 296 l 1
 246 242 l 1
 265 192 294 145 330 107 c 0
 337 99 345 92 353 86 c 1
 401 106 l 1
 458 82 l 1
 482 24 l 1
EndSplineSet
AlternateSubs2: "Randomize subtable" k.1 k.2 k.3 k.4 k.5 k.6 k.7 k.8 k.9 k.10 k.11 k.12 k.13 k.14 k.15 k.16 k.17 k.18 k.19 k.20 k.21 k.22 k.23 k.24 k.25 k.26 k.27 k.28 k.29 k.30 k.31
EndChar

StartChar: ae
Encoding: 230 230 85
Width: 532
VWidth: 0
Flags: W
HStem: -62 21G<369.435 469.435> 512 20G<246.667 342.5>
LayerCount: 2
Fore
SplineSet
501 19 m 1
 477 -39 l 1
 419 -62 l 1
 362 -39 l 1
 358 -30 l 1
 282 -49 l 2
 278 -50 268 -51 261 -51 c 0
 234 -50 212 -36 213 -19 c 2
 223 133 l 1
 211 128 l 1
 177 48 l 1
 192 13 l 1
 168 -45 l 1
 110 -69 l 1
 53 -45 l 1
 29 13 l 1
 53 70 l 1
 89 85 l 1
 110 134 l 1
 86 191 l 1
 110 248 l 1
 167 272 l 1
 168 272 l 1
 228 415 l 1
 214 451 l 1
 237 508 l 1
 295 532 l 1
 352 508 l 1
 372 459 l 1
 423 439 l 1
 447 381 l 1
 423 324 l 1
 366 300 l 1
 336 313 l 1
 331 249 l 1
 373 266 l 1
 430 242 l 1
 454 184 l 1
 430 127 l 1
 373 103 l 1
 323 124 l 1
 316 27 l 1
 344 34 l 1
 362 76 l 1
 419 100 l 1
 477 76 l 1
 501 19 l 1
EndSplineSet
AlternateSubs2: "Randomize subtable" ae.1 ae.2 ae.3 ae.4 ae.5 ae.6 ae.7 ae.8 ae.9 ae.10 ae.11 ae.12 ae.13 ae.14 ae.15 ae.16 ae.17 ae.18 ae.19 ae.20 ae.21 ae.22 ae.23 ae.24 ae.25 ae.26 ae.27 ae.28 ae.29 ae.30 ae.31
EndChar

StartChar: dotaccent
Encoding: 729 729 86
Width: 231
VWidth: 0
Flags: W
HStem: 512 162
VStem: 34 163
LayerCount: 2
Fore
SplineSet
197 593 m 1
 173 536 l 1
 115 512 l 1
 58 536 l 1
 34 593 l 1
 58 651 l 1
 115 674 l 1
 173 651 l 1
 197 593 l 1
EndSplineSet
AlternateSubs2: "Randomize subtable" dotaccent.1 dotaccent.2 dotaccent.3 dotaccent.4 dotaccent.5 dotaccent.6 dotaccent.7
EndChar

StartChar: S
Encoding: 83 83 87
Width: 426
VWidth: 0
Flags: W
LayerCount: 2
Fore
SplineSet
395 686 m 1
 371 628 l 1
 313 604 l 1
 256 628 l 1
 236 677 l 1
 209 686 l 1
 160 673 110 586 162 517 c 0
 181 492 213 479 254 452 c 0
 326 404 373 334 385 254 c 0
 401 147 354 40 254 -23 c 0
 231 -38 192 -33 177 -19 c 2
 129 26 l 1
 110 18 l 1
 53 42 l 1
 29 100 l 1
 53 157 l 1
 110 181 l 1
 168 157 l 1
 192 100 l 1
 186 85 l 1
 222 52 l 1
 270 100 296 174 285 248 c 0
 275 316 234 374 181 409 c 0
 153 428 104 448 72 490 c 0
 -4 590 57 741 212 750 c 0
 220 750 232 749 241 746 c 2
 255 741 l 1
 256 743 l 1
 313 767 l 1
 371 743 l 1
 395 686 l 1
EndSplineSet
AlternateSubs2: "Randomize subtable" S.1 S.2 S.3 S.4 S.5 S.6 S.7 S.8 S.9 S.10 S.11 S.12 S.13 S.14 S.15
EndChar

StartChar: x
Encoding: 120 120 88
Width: 438
VWidth: 0
Flags: W
HStem: 499 20G<62.5 158.333 272.435 372.435>
LayerCount: 2
Fore
SplineSet
403 425 m 1
 380 368 l 1
 340 352 l 1
 272 203 l 1
 343 52 l 1
 383 35 l 1
 407 -23 l 1
 383 -80 l 1
 326 -104 l 1
 268 -80 l 1
 245 -23 l 1
 258 11 l 1
 221 90 l 1
 199 42 l 1
 213 8 l 1
 189 -49 l 1
 132 -73 l 1
 74 -49 l 1
 50 8 l 1
 74 66 l 1
 113 82 l 1
 168 202 l 1
 93 363 l 1
 53 380 l 1
 29 437 l 1
 53 495 l 1
 110 519 l 1
 168 495 l 1
 192 437 l 1
 178 404 l 1
 220 315 l 1
 255 392 l 1
 241 425 l 1
 265 483 l 1
 322 506 l 1
 380 483 l 1
 403 425 l 1
EndSplineSet
AlternateSubs2: "Randomize subtable" x.1 x.2 x.3 x.4 x.5 x.6 x.7 x.8 x.9 x.10 x.11 x.12 x.13 x.14 x.15 x.16 x.17 x.18 x.19 x.20 x.21 x.22 x.23 x.24 x.25 x.26 x.27 x.28 x.29 x.30 x.31
EndChar

StartChar: asciicircum
Encoding: 94 94 89
Width: 502
VWidth: 0
Flags: W
LayerCount: 2
Fore
SplineSet
471 408 m 1
 447 350 l 1
 389 327 l 1
 332 350 l 1
 308 408 l 1
 323 444 l 1
 266 586 l 1
 183 450 l 1
 194 423 l 1
 170 366 l 1
 112 342 l 1
 55 366 l 1
 31 423 l 1
 55 481 l 1
 108 503 l 1
 229 700 l 2
 246 726 312 726 324 697 c 2
 412 479 l 1
 447 465 l 1
 471 408 l 1
EndSplineSet
AlternateSubs2: "Randomize subtable" asciicircum.1 asciicircum.2 asciicircum.3 asciicircum.4 asciicircum.5 asciicircum.6 asciicircum.7
EndChar

StartChar: M
Encoding: 77 77 90
Width: 571
VWidth: 0
Flags: W
VStem: 51 99<638.827 682.908> 59 100<22 291> 411 100<68 273> 428 100<639.777 683.893>
LayerCount: 2
Fore
SplineSet
540 6 m 1x20
 516 -51 l 1
 459 -75 l 1
 401 -51 l 1
 377 6 l 1
 401 64 l 1
 411 68 l 1
 416 273 l 1
 338 2 l 1
 327 -32 249 -32 239 2 c 2
 156 291 l 1
 159 22 l 1
 168 18 l 1
 192 -39 l 1
 168 -97 l 1
 110 -121 l 1
 53 -97 l 1
 29 -39 l 1
 53 18 l 1
 59 21 l 1x60
 51 657 l 2
 51 674 74 689 101 689 c 0
 125 689 146 677 150 663 c 2
 289 183 l 1
 428 664 l 2
 433 681 460 692 487 689 c 0
 511 686 528 673 528 658 c 2x90
 511 66 l 1
 516 64 l 1
 540 6 l 1x20
EndSplineSet
AlternateSubs2: "Randomize subtable" M.1 M.2 M.3 M.4 M.5 M.6 M.7 M.8 M.9 M.10 M.11 M.12 M.13 M.14 M.15
EndChar

StartChar: quoteleft
Encoding: 8216 8216 91
Width: 281
VWidth: 0
Flags: W
HStem: 532 20G<160 212.333>
LayerCount: 2
Fore
SplineSet
246 471 m 1
 222 413 l 1
 164 390 l 1
 107 413 l 1
 83 471 l 1
 92 493 l 1
 35 570 l 2
 30 577 29 589 37 598 c 2
 96 668 l 1
 88 687 l 1
 112 745 l 1
 169 768 l 1
 227 745 l 1
 250 687 l 1
 227 630 l 1
 169 606 l 1
 159 610 l 1
 136 583 l 1
 160 550 l 1
 164 552 l 1
 222 528 l 1
 246 471 l 1
EndSplineSet
AlternateSubs2: "Randomize subtable" quoteleft.1 quoteleft.2 quoteleft.3 quoteleft.4 quoteleft.5 quoteleft.6 quoteleft.7
EndChar

StartChar: quoteright
Encoding: 8217 8217 92
Width: 270
VWidth: 0
Flags: W
VStem: 31 205
LayerCount: 2
Fore
SplineSet
194 462 m 1
 170 404 l 1
 112 381 l 1
 55 404 l 1
 31 462 l 1
 55 519 l 1
 107 541 l 1
 136 589 l 1
 105 655 l 1
 64 672 l 1
 40 730 l 1
 64 787 l 1
 122 811 l 1
 179 787 l 1
 203 730 l 1
 189 697 l 1
 236 596 l 2
 239 589 238 582 235 576 c 2
 182 490 l 1
 194 462 l 1
EndSplineSet
AlternateSubs2: "Randomize subtable" quoteright.1 quoteright.2 quoteright.3 quoteright.4 quoteright.5 quoteright.6 quoteright.7
EndChar

StartChar: Delta
Encoding: 916 916 93
Width: 473
VWidth: 0
Flags: W
LayerCount: 2
Fore
SplineSet
170 87 m 1
 179 65 l 1
 230 70 296 79 327 85 c 1
 353 157 313 510 257 720 c 1
 170 87 l 1
70 93 m 1
 180 894 l 2
 183 914 217 926 244 921 c 0
 260 918 270 912 276 908 c 0
 376 837 513 100 396 37 c 0
 368 22 262 5 181 -1 c 1
 170 -28 l 1
 112 -52 l 1
 55 -28 l 1
 31 29 l 1
 55 87 l 1
 70 93 l 1
EndSplineSet
AlternateSubs2: "Randomize subtable" Delta.1 Delta.2 Delta.3 Delta.4 Delta.5 Delta.6 Delta.7 Delta.8 Delta.9 Delta.10 Delta.11 Delta.12 Delta.13 Delta.14 Delta.15
EndChar

StartChar: T
Encoding: 84 84 94
Width: 496
VWidth: 0
Flags: W
HStem: 763 20G<336.043 431.333>
VStem: 197 101<362.583 699> 209 100<95 470.417>
LayerCount: 2
Fore
SplineSet
341 34 m 1xa0
 318 -23 l 1
 260 -47 l 1
 203 -23 l 1
 179 34 l 1
 203 91 l 1
 209 93 l 1xa0
 197 740 l 1
 165 753 l 1
 110 731 l 1
 53 754 l 1
 29 812 l 1
 53 869 l 1
 110 893 l 1
 168 869 l 1
 190 817 l 1
 329 760 l 1
 383 783 l 1
 441 759 l 1
 465 702 l 1
 441 645 l 1
 383 621 l 1
 326 645 l 1
 304 697 l 1
 298 699 l 1xc0
 309 95 l 1
 318 91 l 1
 341 34 l 1xa0
EndSplineSet
AlternateSubs2: "Randomize subtable" T.1 T.2 T.3 T.4 T.5 T.6 T.7 T.8 T.9 T.10 T.11 T.12 T.13 T.14 T.15
EndChar

StartChar: c
Encoding: 99 99 95
Width: 442
VWidth: 0
Flags: W
HStem: 426 63<204.384 249> 488 20G<281.429 377.5>
LayerCount: 2
Fore
SplineSet
407 84 m 1x80
 383 27 l 1
 341 9 l 1
 322 -10 294 -24 258 -30 c 0
 138 -49 78 36 53 100 c 0
 44 124 38 149 34 175 c 0
 16 307 61 485 245 489 c 0x80
 257 489 268 489 279 487 c 1
 330 508 l 1x40
 387 484 l 1
 411 427 l 1
 387 369 l 1
 330 346 l 1
 273 369 l 1
 249 426 l 1
 190 425 114 323 133 180 c 0
 136 157 142 135 150 115 c 0
 178 43 221 28 234 30 c 0
 239 31 250 37 260 48 c 1
 245 84 l 1
 268 141 l 1
 326 165 l 1
 383 141 l 1
 407 84 l 1x80
EndSplineSet
AlternateSubs2: "Randomize subtable" c.1 c.2 c.3 c.4 c.5 c.6 c.7 c.8 c.9 c.10 c.11 c.12 c.13 c.14 c.15 c.16 c.17 c.18 c.19 c.20 c.21 c.22 c.23 c.24 c.25 c.26 c.27 c.28 c.29 c.30 c.31
EndChar

StartChar: circumflex
Encoding: 710 710 96
Width: 421
VWidth: 0
Flags: W
LayerCount: 2
Fore
SplineSet
388 560 m 1
 364 503 l 1
 307 479 l 1
 249 503 l 1
 225 560 l 1
 232 576 l 1
 202 606 l 1
 181 562 l 1
 195 528 l 1
 171 471 l 1
 113 447 l 1
 56 471 l 1
 32 528 l 1
 56 586 l 1
 96 602 l 1
 138 691 l 2
 151 716 208 720 229 699 c 2
 292 635 l 1
 307 641 l 1
 364 617 l 1
 388 560 l 1
EndSplineSet
AlternateSubs2: "Randomize subtable" circumflex.1 circumflex.2 circumflex.3 circumflex.4 circumflex.5 circumflex.6 circumflex.7
EndChar

StartChar: oe
Encoding: 339 339 97
Width: 653
VWidth: 0
Flags: W
HStem: 179 62<352 427> 560 20G<274.565 374.565 455.5 551.333>
LayerCount: 2
Fore
SplineSet
576 210 m 1
 553 152 l 1
 495 129 l 1
 438 152 l 1
 427 179 l 1
 347 179 l 1
 335 40 l 1
 477 15 l 1
 483 29 l 1
 541 53 l 1
 598 29 l 1
 622 -29 l 1
 598 -86 l 1
 541 -110 l 1
 483 -86 l 1
 467 -48 l 1
 274 -14 l 1
 176 -11 106 44 69 107 c 0
 -24 266 56 472 252 520 c 1
 267 557 l 1
 325 580 l 1
 382 557 l 1
 402 507 l 1
 445 493 l 1
 446 494 l 1
 503 518 l 1
 561 494 l 1
 584 437 l 1
 561 379 l 1
 503 355 l 1
 446 379 l 1
 426 428 l 1
 382 443 l 1
 382 442 l 1
 369 437 l 1
 352 241 l 1
 427 241 l 1
 438 267 l 1
 495 291 l 1
 553 267 l 1
 576 210 l 1
237 59 m 1
 270 441 l 1
 267 442 l 1
 263 453 l 1
 159 407 87 257 163 128 c 0
 183 94 211 71 237 59 c 1
EndSplineSet
AlternateSubs2: "Randomize subtable" oe.1 oe.2 oe.3 oe.4 oe.5 oe.6 oe.7 oe.8 oe.9 oe.10 oe.11 oe.12 oe.13 oe.14 oe.15 oe.16 oe.17 oe.18 oe.19 oe.20 oe.21 oe.22 oe.23 oe.24 oe.25 oe.26 oe.27 oe.28 oe.29 oe.30 oe.31
EndChar

StartChar: exclam
Encoding: 33 33 98
Width: 272
VWidth: 0
Flags: W
VStem: 29 214
LayerCount: 2
Fore
SplineSet
226 214 m 1
 202 157 l 1
 145 133 l 1
 87 157 l 1
 64 214 l 1
 87 271 l 1
 91 273 l 1
 64 692 l 1
 53 697 l 1
 29 754 l 1
 53 812 l 1
 110 836 l 1
 168 812 l 1
 192 754 l 1
 168 697 l 1
 164 695 l 1
 191 276 l 1
 202 271 l 1
 226 214 l 1
243 -14 m 1
 219 -71 l 1
 162 -95 l 1
 104 -71 l 1
 80 -14 l 1
 104 44 l 1
 162 68 l 1
 219 44 l 1
 243 -14 l 1
EndSplineSet
AlternateSubs2: "Randomize subtable" exclam.1 exclam.2 exclam.3 exclam.4 exclam.5 exclam.6 exclam.7
EndChar

StartChar: t
Encoding: 116 116 99
Width: 495
VWidth: 0
Flags: W
HStem: 531 20G<60.4348 160.435 335.5 430.5>
VStem: 187 100<101 337.778> 196 100<172.556 406>
LayerCount: 2
Fore
SplineSet
316 40 m 1xc0
 292 -18 l 1
 235 -42 l 1
 178 -18 l 1
 154 40 l 1
 178 97 l 1
 187 101 l 1xc0
 196 423 l 1
 174 427 l 1
 168 413 l 1
 110 389 l 1
 53 413 l 1
 29 470 l 1
 53 528 l 1
 110 551 l 1
 168 528 l 1
 184 490 l 1
 257 477 l 2
 259 477 261 476 263 476 c 2
 320 467 l 1
 326 481 l 1
 383 505 l 1
 440 481 l 1
 464 424 l 1
 440 366 l 1
 383 343 l 1
 326 366 l 1
 310 404 l 1
 296 406 l 1xa0
 287 99 l 1
 292 97 l 1
 316 40 l 1xc0
EndSplineSet
AlternateSubs2: "Randomize subtable" t.1 t.2 t.3 t.4 t.5 t.6 t.7 t.8 t.9 t.10 t.11 t.12 t.13 t.14 t.15 t.16 t.17 t.18 t.19 t.20 t.21 t.22 t.23 t.24 t.25 t.26 t.27 t.28 t.29 t.30 t.31
EndChar

StartChar: z
Encoding: 122 122 100
Width: 372
VWidth: 0
Flags: W
HStem: 530 20G<60.4348 160.435>
VStem: 29 312
LayerCount: 2
Fore
SplineSet
341 -51 m 1
 317 -108 l 1
 260 -132 l 1
 202 -108 l 1
 178 -51 l 1
 178 -50 l 1
 53 10 l 2
 39 17 31 31 36 43 c 2
 206 432 l 1
 177 434 l 1
 168 412 l 1
 110 388 l 1
 53 412 l 1
 29 469 l 1
 53 527 l 1
 110 550 l 1
 168 527 l 1
 181 496 l 1
 275 490 l 2
 308 488 325 466 318 451 c 2
 141 47 l 1
 213 12 l 1
 260 31 l 1
 317 7 l 1
 341 -51 l 1
EndSplineSet
AlternateSubs2: "Randomize subtable" z.1 z.2 z.3 z.4 z.5 z.6 z.7 z.8 z.9 z.10 z.11 z.12 z.13 z.14 z.15 z.16 z.17 z.18 z.19 z.20 z.21 z.22 z.23 z.24 z.25 z.26 z.27 z.28 z.29 z.30 z.31
EndChar

StartChar: m
Encoding: 109 109 101
Width: 571
VWidth: 0
Flags: W
VStem: 407 100<135 185>
LayerCount: 2
Fore
SplineSet
540 74 m 1
 516 16 l 1
 459 -7 l 1
 401 16 l 1
 378 74 l 1
 401 131 l 1
 407 134 l 1
 406 185 l 1
 336 -18 l 1
 324 -48 252 -50 239 -20 c 2
 168 140 l 1
 163 50 l 1
 168 48 l 1
 192 -9 l 1
 168 -66 l 1
 110 -90 l 1
 53 -66 l 1
 29 -9 l 1
 53 48 l 1
 63 52 l 1
 80 346 l 2
 81 363 104 377 131 376 c 0
 155 376 174 363 178 353 c 2
 281 120 l 1
 399 464 l 2
 405 481 431 492 458 488 c 0
 483 485 498 469 498 458 c 2
 507 135 l 1
 516 131 l 1
 540 74 l 1
EndSplineSet
AlternateSubs2: "Randomize subtable" m.1 m.2 m.3 m.4 m.5 m.6 m.7 m.8 m.9 m.10 m.11 m.12 m.13 m.14 m.15 m.16 m.17 m.18 m.19 m.20 m.21 m.22 m.23 m.24 m.25 m.26 m.27 m.28 m.29 m.30 m.31
EndChar

StartChar: e
Encoding: 101 101 102
Width: 423
VWidth: 0
Flags: W
HStem: 358 60<153 241> 362 63<153 241>
LayerCount: 2
Fore
SplineSet
361 290 m 1x40
 337 232 l 1
 280 208 l 1
 222 232 l 1
 216 247 l 1
 184 242 l 1
 168 204 l 1
 165 203 l 1
 180 14 l 1
 238 24 l 1
 254 63 l 1
 311 87 l 1
 368 63 l 1
 392 6 l 1
 368 -52 l 1
 311 -76 l 1
 254 -52 l 1
 248 -38 l 1
 148 -57 l 2
 118 -63 90 -51 84 -29 c 1
 66 199 l 1
 53 204 l 1
 29 262 l 1
 53 319 l 1
 56 320 l 1
 51 386 l 2
 50 403 71 417 97 418 c 2x80
 241 425 l 1
 253 455 l 1
 310 479 l 1
 368 455 l 1
 392 397 l 1
 368 340 l 1
 344 330 l 1
 361 290 l 1x40
207 310 m 1
 222 347 l 1
 246 357 l 1
 244 362 l 1x40
 153 358 l 1
 156 324 l 1
 168 319 l 1
 174 305 l 1
 207 310 l 1
EndSplineSet
AlternateSubs2: "Randomize subtable" e.1 e.2 e.3 e.4 e.5 e.6 e.7 e.8 e.9 e.10 e.11 e.12 e.13 e.14 e.15 e.16 e.17 e.18 e.19 e.20 e.21 e.22 e.23 e.24 e.25 e.26 e.27 e.28 e.29 e.30 e.31
EndChar

StartChar: numbersign
Encoding: 35 35 103
Width: 592
VWidth: 0
Flags: W
HStem: -64 21G<170.435 269.565> 435 62<179 218 325 333> 527 20G<62.5 158.333 448 529.5>
LayerCount: 2
Fore
SplineSet
549 220 m 1
 525 162 l 1
 468 138 l 1
 410 162 l 1
 399 188 l 1
 372 -4 l 2
 369 -25 335 -36 309 -31 c 2
 283 -26 l 1
 277 -41 l 1
 220 -64 l 1
 163 -41 l 1
 139 17 l 1
 163 74 l 1
 177 80 l 1
 189 188 l 1
 163 177 l 1
 105 201 l 1
 82 258 l 1
 105 315 l 1
 163 339 l 1
 205 321 l 1
 218 435 l 1
 179 434 l 1
 168 408 l 1
 110 384 l 1
 53 408 l 1
 29 465 l 1
 53 523 l 1
 110 547 l 1
 168 523 l 1
 179 496 l 1
 225 497 l 1
 247 689 l 2
 249 704 268 717 293 718 c 2
 350 721 l 1
 362 750 l 1
 420 774 l 1
 477 750 l 1
 501 693 l 1
 477 636 l 1
 461 629 l 1
 448 534 l 1
 482 548 l 1
 539 524 l 1
 563 467 l 1
 539 409 l 1
 482 385 l 1
 430 407 l 1
 412 278 l 1
 468 301 l 1
 525 277 l 1
 549 220 l 1
302 209 m 1
 292 210 l 1
 277 74 l 1
 281 63 l 1
 302 209 l 1
310 271 m 1
 333 435 l 1
 318 435 l 1
 300 272 l 1
 310 271 l 1
342 497 m 1
 362 637 l 1
 353 658 l 1
 344 658 l 1
 325 497 l 1
 342 497 l 1
EndSplineSet
AlternateSubs2: "Randomize subtable" numbersign.1 numbersign.2 numbersign.3 numbersign.4 numbersign.5 numbersign.6 numbersign.7
EndChar

StartChar: L
Encoding: 76 76 104
Width: 402
VWidth: 0
Flags: W
LayerCount: 2
Fore
SplineSet
371 -14 m 1
 347 -72 l 1
 290 -95 l 1
 232 -72 l 1
 227 -60 l 1
 183 -69 l 2
 181 -69 174 -70 170 -70 c 0
 143 -71 119 -57 118 -40 c 2
 65 613 l 1
 53 618 l 1
 29 675 l 1
 53 733 l 1
 110 756 l 1
 168 733 l 1
 192 675 l 1
 168 618 l 1
 165 617 l 1
 214 3 l 1
 216 3 l 1
 232 43 l 1
 290 67 l 1
 347 43 l 1
 371 -14 l 1
EndSplineSet
AlternateSubs2: "Randomize subtable" L.1 L.2 L.3 L.4 L.5 L.6 L.7 L.8 L.9 L.10 L.11 L.12 L.13 L.14 L.15
EndChar

StartChar: germandbls
Encoding: 223 223 105
Width: 625
VWidth: 0
Flags: W
VStem: 278 100<154 235.609>
LayerCount: 2
Fore
SplineSet
594 386 m 1
 570 329 l 1
 535 314 l 1
 596 275 590 197 574 144 c 0
 562 102 543 62 518 25 c 0
 506 7 469 3 448 10 c 2
 376 34 l 1
 375 32 l 1
 317 8 l 1
 309 11 l 1
 305 8 l 2
 285 -9 246 -7 229 4 c 2
 166 44 l 1
 131 29 l 1
 73 53 l 1
 49 111 l 1
 73 168 l 1
 131 192 l 1
 188 168 l 1
 212 111 l 1
 210 105 l 1
 236 89 l 1
 260 147 l 1
 278 154 l 1
 278 159 278 165 278 170 c 0
 277 217 250 248 238 252 c 1
 238 252 174 228 105 265 c 0
 -8 325 23 434 90 483 c 0
 118 504 165 517 211 510 c 1
 243 550 294 582 369 573 c 0
 418 567 456 544 488 510 c 0
 489 509 491 508 492 506 c 2
 518 465 l 1
 570 444 l 1
 594 386 l 1
391 387 m 1
 367 330 l 1
 322 311 l 1
 329 309 336 307 344 306 c 1
 344 306 391 337 452 337 c 1
 431 386 l 1
 442 413 l 1
 400 480 l 1
 375 505 357 511 351 512 c 0
 344 513 315 502 293 471 c 1
 299 465 l 1
 301 464 l 2
 310 468 l 1
 367 445 l 1
 391 387 l 1
394 99 m 1
 445 82 l 1
 457 105 468 129 475 155 c 0
 493 217 470 268 456 274 c 1
 454 273 415 248 361 244 c 1
 373 220 378 194 378 171 c 0
 378 162 378 152 377 143 c 1
 394 99 l 1
189 316 m 1
 163 355 163 403 174 441 c 0
 175 443 175 446 176 448 c 1
 174 447 171 445 167 442 c 0
 126 412 115 341 170 312 c 0
 174 310 179 313 189 316 c 1
EndSplineSet
AlternateSubs2: "Randomize subtable" germandbls.1 germandbls.2 germandbls.3 germandbls.4 germandbls.5 germandbls.6 germandbls.7 germandbls.8 germandbls.9 germandbls.10 germandbls.11 germandbls.12 germandbls.13 germandbls.14 germandbls.15 germandbls.16 germandbls.17 germandbls.18 germandbls.19 germandbls.20 germandbls.21 germandbls.22 germandbls.23 germandbls.24 germandbls.25 germandbls.26 germandbls.27 germandbls.28 germandbls.29 germandbls.30 germandbls.31
EndChar

StartChar: uni0237
Encoding: 567 567 106
Width: 386
VWidth: 0
Flags: W
HStem: 485 20G<223.565 323.565>
VStem: 209 99<11 172> 222 100<174.385 363>
LayerCount: 2
Fore
SplineSet
355 424 m 1xa0
 331 367 l 1
 322 363 l 1xa0
 308 -19 l 2
 307 -35 285 -48 262 -49 c 2
 180 -53 l 1
 168 -83 l 1
 110 -107 l 1
 53 -83 l 1
 29 -26 l 1
 53 31 l 1
 110 55 l 1
 168 31 l 1
 177 9 l 1
 209 11 l 1xc0
 222 365 l 1
 216 367 l 1
 193 424 l 1
 216 482 l 1
 274 505 l 1
 331 482 l 1
 355 424 l 1xa0
EndSplineSet
AlternateSubs2: "Randomize subtable" uni0237.1 uni0237.2 uni0237.3 uni0237.4 uni0237.5 uni0237.6 uni0237.7 uni0237.8 uni0237.9 uni0237.10 uni0237.11 uni0237.12 uni0237.13 uni0237.14 uni0237.15 uni0237.16 uni0237.17 uni0237.18 uni0237.19 uni0237.20 uni0237.21 uni0237.22 uni0237.23 uni0237.24 uni0237.25 uni0237.26 uni0237.27 uni0237.28 uni0237.29 uni0237.30 uni0237.31
EndChar

StartChar: caron
Encoding: 711 711 107
Width: 430
VWidth: 0
Flags: W
HStem: 559 21G<66.5 124>
LayerCount: 2
Fore
SplineSet
397 628 m 1
 373 571 l 1
 323 550 l 1
 286 486 l 1
 270 462 216 458 195 482 c 2
 124 563 l 1
 114 559 l 1
 57 583 l 1
 33 641 l 1
 57 698 l 1
 114 722 l 1
 172 698 l 1
 196 641 l 1
 188 621 l 1
 230 572 l 1
 246 599 l 1
 234 628 l 1
 258 686 l 1
 316 710 l 1
 373 686 l 1
 397 628 l 1
EndSplineSet
AlternateSubs2: "Randomize subtable" caron.1 caron.2 caron.3 caron.4 caron.5 caron.6 caron.7
EndChar

StartChar: quotedblleft
Encoding: 8220 8220 108
Width: 362
VWidth: 0
Flags: W
VStem: 31 299
LayerCount: 2
Fore
SplineSet
109 587 m 1
 55 610 l 1
 31 667 l 1
 55 725 l 1
 112 749 l 1
 136 739 l 1
 153 779 l 1
 210 803 l 1
 267 779 l 1
 291 722 l 1
 271 674 l 1
 330 401 l 2
 334 384 314 368 287 366 c 0
 264 364 242 373 234 386 c 2
 109 587 l 1
EndSplineSet
AlternateSubs2: "Randomize subtable" quotedblleft.1 quotedblleft.2 quotedblleft.3 quotedblleft.4 quotedblleft.5 quotedblleft.6 quotedblleft.7
EndChar

StartChar: A
Encoding: 65 65 109
Width: 511
VWidth: 0
Flags: W
VStem: 218 99<738.622 795.293>
LayerCount: 2
Fore
SplineSet
272 237 m 1
 248 180 l 1
 210 164 l 1
 170 -62 l 1
 192 -115 l 1
 168 -172 l 1
 110 -196 l 1
 53 -172 l 1
 29 -115 l 1
 53 -58 l 1
 72 -50 l 1
 119 215 l 1
 110 237 l 1
 133 295 l 1
 218 774 l 2
 221 791 246 803 273 801 c 0
 298 799 315 785 317 774 c 2
 391 400 l 1
 416 390 l 1
 440 332 l 1
 416 275 l 1
 437 171 l 1
 457 163 l 1
 480 105 l 1
 457 48 l 1
 399 24 l 1
 342 48 l 1
 318 105 l 1
 339 156 l 1
 317 266 l 1
 271 240 l 1
 272 237 l 1
279 330 m 1
 278 332 l 1
 295 374 l 1
 270 502 l 1
 235 305 l 1
 279 330 l 1
EndSplineSet
AlternateSubs2: "Randomize subtable" A.1 A.2 A.3 A.4 A.5 A.6 A.7 A.8 A.9 A.10 A.11 A.12 A.13 A.14 A.15
EndChar

StartChar: I
Encoding: 73 73 110
Width: 251
VWidth: 0
Flags: W
HStem: -60 21G<62.5 158.333> 761 20G<90.6667 186.5>
VStem: 89 100<89.2969 639>
LayerCount: 2
Fore
SplineSet
220 700 m 1
 196 643 l 1
 191 641 l 1
 192 583 191 524 189 466 c 0
 186 390 192 312 189 233 c 0
 187 179 181 125 171 72 c 1
 192 21 l 1
 168 -36 l 1
 110 -60 l 1
 53 -36 l 1
 29 21 l 1
 53 79 l 1
 73 87 l 1
 81 136 87 185 89 234 c 0
 92 310 86 389 89 468 c 0
 91 525 92 582 91 639 c 1
 81 643 l 1
 58 700 l 1
 81 757 l 1
 139 781 l 1
 196 757 l 1
 220 700 l 1
EndSplineSet
AlternateSubs2: "Randomize subtable" I.1 I.2 I.3 I.4 I.5 I.6 I.7 I.8 I.9 I.10 I.11 I.12 I.13 I.14 I.15
EndChar

StartChar: Phi
Encoding: 934 934 111
Width: 432
VWidth: 0
Flags: W
HStem: 556 20G<250 305.5> 743 20G<153.5 249.333>
VStem: 144 100<-68 22.2477 148 306 573 620>
LayerCount: 2
Fore
SplineSet
274 -129 m 1
 250 -187 l 1
 193 -210 l 1
 135 -187 l 1
 111 -129 l 1
 135 -72 l 1
 144 -68 l 1
 145 31 l 1
 88 55 56 107 42 154 c 0
 29 199 29 250 44 301 c 0
 62 364 99 421 149 466 c 1
 150 621 l 1
 144 624 l 1
 120 681 l 1
 144 739 l 1
 201 763 l 1
 259 739 l 1
 283 681 l 1
 259 624 l 1
 250 620 l 1
 250 573 l 1
 258 576 l 1
 315 552 l 1
 339 494 l 1
 329 469 l 1
 368 404 392 333 399 258 c 0
 407 166 382 37 244 19 c 1
 244 -69 l 1
 250 -72 l 1
 274 -129 l 1
253 415 m 1
 248 417 l 1
 245 90 l 1
 275 113 306 175 299 255 c 0
 294 311 278 365 253 415 c 1
146 148 m 1
 147 306 l 1
 145 301 144 295 142 290 c 0
 129 246 129 202 140 165 c 0
 142 159 144 153 146 148 c 1
EndSplineSet
AlternateSubs2: "Randomize subtable" Phi.1 Phi.2 Phi.3 Phi.4 Phi.5 Phi.6 Phi.7 Phi.8 Phi.9 Phi.10 Phi.11 Phi.12 Phi.13 Phi.14 Phi.15
EndChar

StartChar: asterisk
Encoding: 42 42 112
Width: 424
VWidth: 0
Flags: W
HStem: 546 59<342.478 390.98>
VStem: 52 99<262.516 307.444>
LayerCount: 2
Fore
SplineSet
144 724 m 1
 124 773 l 1
 148 830 l 1
 205 854 l 1
 262 830 l 1
 286 773 l 1
 267 726 l 1
 291 628 l 1
 365 605 l 2
 382 600 393 588 393 576 c 0
 393 559 369 546 342 546 c 0
 332 546 321 545 311 543 c 1
 389 225 l 2
 393 211 379 196 357 191 c 0
 331 185 302 193 293 209 c 2
 178 403 l 1
 151 274 l 2
 143 239 60 239 52 274 c 1
 35 357 55 424 94 482 c 1
 104 530 l 1
 34 649 l 2
 29 657 30 666 36 674 c 0
 48 689 79 695 103 687 c 1
 135 678 l 1
 144 724 l 1
EndSplineSet
AlternateSubs2: "Randomize subtable" asterisk.1 asterisk.2 asterisk.3 asterisk.4 asterisk.5 asterisk.6 asterisk.7
EndChar

StartChar: q
Encoding: 113 113 113
Width: 527
VWidth: 0
Flags: W
LayerCount: 2
Fore
SplineSet
496 -90 m 1
 472 -148 l 1
 414 -171 l 1
 357 -148 l 1
 333 -90 l 1
 337 -81 l 1
 302 -55 l 1
 188 -82 102 -20 63 45 c 0
 30 101 20 171 42 244 c 0
 60 300 101 364 175 389 c 1
 190 426 l 1
 247 449 l 1
 305 426 l 1
 328 368 l 1
 327 366 l 1
 389 326 429 268 445 202 c 0
 464 126 449 36 382 -17 c 1
 387 -21 l 1
 414 -9 l 1
 472 -33 l 1
 496 -90 l 1
242 3 m 2
 241 3 l 2
 242 3 l 2
308 61 m 1
 321 45 l 1
 346 80 360 134 346 193 c 0
 335 237 313 274 283 302 c 1
 247 287 l 1
 190 311 l 1
 190 312 l 1
 170 294 151 267 140 233 c 0
 121 172 131 111 157 67 c 0
 160 62 163 57 166 53 c 1
 154 82 l 1
 178 139 l 1
 236 163 l 1
 293 139 l 1
 317 82 l 1
 308 61 l 1
EndSplineSet
AlternateSubs2: "Randomize subtable" q.1 q.2 q.3 q.4 q.5 q.6 q.7 q.8 q.9 q.10 q.11 q.12 q.13 q.14 q.15 q.16 q.17 q.18 q.19 q.20 q.21 q.22 q.23 q.24 q.25 q.26 q.27 q.28 q.29 q.30 q.31
EndChar

StartChar: j
Encoding: 106 106 114
Width: 366
VWidth: 0
Flags: W
VStem: 29 306
LayerCount: 2
Fore
SplineSet
192 -48 m 1
 168 -105 l 1
 110 -129 l 1
 53 -105 l 1
 29 -48 l 1
 53 10 l 1
 110 33 l 1
 141 21 l 1
 194 325 l 1
 172 379 l 1
 196 436 l 1
 254 460 l 1
 311 436 l 1
 335 379 l 1
 311 321 l 1
 292 313 l 1
 237 -11 l 2
 236 -19 227 -28 219 -32 c 2
 191 -46 l 1
 192 -48 l 1
EndSplineSet
AlternateSubs2: "Randomize subtable" j.1 j.2 j.3 j.4 j.5 j.6 j.7 j.8 j.9 j.10 j.11 j.12 j.13 j.14 j.15 j.16 j.17 j.18 j.19 j.20 j.21 j.22 j.23 j.24 j.25 j.26 j.27 j.28 j.29 j.30 j.31
EndChar

StartChar: v
Encoding: 118 118 115
Width: 476
VWidth: 0
Flags: W
HStem: 562 20G<62.5 158.333>
LayerCount: 2
Fore
SplineSet
445 369 m 1
 421 312 l 1
 388 298 l 1
 273 -8 l 1
 262 -41 182 -38 174 -5 c 2
 75 435 l 1
 53 444 l 1
 29 501 l 1
 53 558 l 1
 110 582 l 1
 168 558 l 1
 192 501 l 1
 172 453 l 1
 236 168 l 1
 298 331 l 1
 282 369 l 1
 306 427 l 1
 363 451 l 1
 421 427 l 1
 445 369 l 1
EndSplineSet
AlternateSubs2: "Randomize subtable" v.1 v.2 v.3 v.4 v.5 v.6 v.7 v.8 v.9 v.10 v.11 v.12 v.13 v.14 v.15 v.16 v.17 v.18 v.19 v.20 v.21 v.22 v.23 v.24 v.25 v.26 v.27 v.28 v.29 v.30 v.31
EndChar

StartChar: X
Encoding: 88 88 116
Width: 538
VWidth: 0
Flags: W
HStem: 761 20G<62.5 158.333>
LayerCount: 2
Fore
SplineSet
507 660 m 1
 483 602 l 1
 446 586 l 1
 327 315 l 1
 431 71 l 1
 468 56 l 1
 492 -1 l 1
 468 -58 l 1
 411 -82 l 1
 353 -58 l 1
 330 -1 l 1
 344 33 l 1
 274 196 l 1
 192 7 l 1
 206 -28 l 1
 183 -85 l 1
 125 -109 l 1
 68 -85 l 1
 44 -28 l 1
 68 30 l 1
 105 46 l 1
 223 315 l 1
 90 626 l 1
 53 642 l 1
 29 700 l 1
 53 757 l 1
 110 781 l 1
 168 757 l 1
 192 700 l 1
 177 665 l 1
 276 435 l 1
 359 625 l 1
 345 660 l 1
 368 717 l 1
 426 741 l 1
 483 717 l 1
 507 660 l 1
EndSplineSet
AlternateSubs2: "Randomize subtable" X.1 X.2 X.3 X.4 X.5 X.6 X.7 X.8 X.9 X.10 X.11 X.12 X.13 X.14 X.15
EndChar

StartChar: dollar
Encoding: 36 36 117
Width: 490
VWidth: 0
Flags: W
HStem: -20 21G<168 303.5> 530 21G<188 191.274>
VStem: 189 100<63 213 229 270 385 387.133 530 603> 333 100<90.2799 239.473>
LayerCount: 2
Fore
SplineSet
449 484 m 1
 425 426 l 1
 368 403 l 1
 310 426 l 1
 291 473 l 1
 290 385 l 1
 304 372 l 2
 353 328 413 277 429 203 c 0
 432 189 433 176 433 163 c 0
 433 78 370 -20 237 -20 c 0
 99 -20 31 84 46 179 c 1
 29 221 l 1
 53 278 l 1
 110 302 l 1
 168 278 l 1
 189 229 l 1
 190 365 l 1
 151 403 114 448 97 503 c 0
 72 585 90 689 185 731 c 1
 162 786 l 1
 186 843 l 1
 243 867 l 1
 301 843 l 1
 324 786 l 1
 309 747 l 1
 374 736 419 694 440 654 c 0
 463 610 467 555 440 506 c 1
 449 484 l 1
289 270 m 1
 287 63 l 1
 311 83 333 117 333 163 c 0
 333 173 332 183 330 194 c 0
 324 222 309 247 289 270 c 1
187 63 m 1
 189 213 l 1
 168 163 l 1
 144 153 l 1
 145 116 164 83 187 63 c 1
191 530 m 1
 192 603 l 1
 187 581 185 556 191 530 c 1
292 684 m 1
 291 495 l 1
 310 541 l 1
 357 560 l 1
 362 586 357 612 345 635 c 0
 330 663 311 678 292 684 c 1
EndSplineSet
AlternateSubs2: "Randomize subtable" dollar.1 dollar.2 dollar.3 dollar.4 dollar.5 dollar.6 dollar.7
EndChar

StartChar: n
Encoding: 110 110 118
Width: 470
VWidth: 0
Flags: W
VStem: 298 106<174 308>
LayerCount: 2
Fore
SplineSet
439 371 m 1
 415 313 l 1
 404 308 l 1
 388 -14 l 1
 385 -52 305 -52 291 -23 c 2
 168 225 l 1
 163 129 l 1
 168 127 l 1
 192 70 l 1
 168 12 l 1
 110 -11 l 1
 53 12 l 1
 29 70 l 1
 53 127 l 1
 63 131 l 1
 77 414 l 2
 78 431 102 445 129 444 c 0
 151 444 169 434 175 422 c 2
 298 174 l 1
 304 311 l 1
 300 313 l 1
 276 371 l 1
 300 428 l 1
 357 452 l 1
 415 428 l 1
 439 371 l 1
EndSplineSet
AlternateSubs2: "Randomize subtable" n.1 n.2 n.3 n.4 n.5 n.6 n.7 n.8 n.9 n.10 n.11 n.12 n.13 n.14 n.15 n.16 n.17 n.18 n.19 n.20 n.21 n.22 n.23 n.24 n.25 n.26 n.27 n.28 n.29 n.30 n.31
EndChar

StartChar: K
Encoding: 75 75 119
Width: 592
VWidth: 0
Flags: W
HStem: 546 21G<441 502.565>
LayerCount: 2
Fore
SplineSet
561 -87 m 1
 537 -145 l 1
 480 -169 l 1
 422 -145 l 1
 398 -87 l 1
 400 -83 l 1
 355 -50 322 -6 302 43 c 0
 272 117 251 194 238 272 c 1
 202 257 l 1
 167 -29 l 1
 168 -29 l 1
 192 -86 l 1
 168 -144 l 1
 110 -167 l 1
 53 -144 l 1
 29 -86 l 1
 53 -29 l 1
 67 -23 l 1
 109 314 l 1
 102 330 l 1
 114 360 l 1
 154 679 l 1
 153 679 l 1
 129 736 l 1
 153 794 l 1
 211 817 l 1
 268 794 l 1
 292 736 l 1
 268 679 l 1
 253 672 l 1
 224 438 l 1
 379 608 l 1
 371 627 l 1
 395 684 l 1
 453 708 l 1
 510 684 l 1
 534 627 l 1
 510 569 l 1
 453 546 l 1
 441 551 l 1
 323 421 l 1
 327 297 353 174 399 58 c 0
 411 28 428 2 449 -19 c 1
 480 -6 l 1
 537 -30 l 1
 561 -87 l 1
EndSplineSet
AlternateSubs2: "Randomize subtable" K.1 K.2 K.3 K.4 K.5 K.6 K.7 K.8 K.9 K.10 K.11 K.12 K.13 K.14 K.15
EndChar

StartChar: Pi
Encoding: 928 928 120
Width: 509
VWidth: 0
Flags: W
HStem: 659 62<178 329>
VStem: 63 100<51 331.438> 79 99<411.562 660> 329 99<442.529 659> 345 100<89 336.471>
LayerCount: 2
Fore
SplineSet
478 27 m 1x88
 454 -30 l 1
 397 -54 l 1
 339 -30 l 1
 315 27 l 1
 339 85 l 1
 345 87 l 1x88
 329 659 l 1
 178 660 l 1xb0
 163 50 l 1
 170 47 l 1
 194 -10 l 1
 170 -68 l 1
 112 -91 l 1
 55 -68 l 1
 31 -10 l 1
 55 47 l 1
 63 51 l 1xc0
 79 692 l 2
 79 710 105 723 130 723 c 2
 379 721 l 2
 406 721 428 706 428 690 c 2xb0
 445 89 l 1
 454 85 l 1
 478 27 l 1x88
EndSplineSet
AlternateSubs2: "Randomize subtable" Pi.1 Pi.2 Pi.3 Pi.4 Pi.5 Pi.6 Pi.7 Pi.8 Pi.9 Pi.10 Pi.11 Pi.12 Pi.13 Pi.14 Pi.15
EndChar

StartChar: four
Encoding: 52 52 121
Width: 370
VWidth: 0
Flags: W
VStem: 29 312
LayerCount: 2
Fore
SplineSet
147 271 m 1
 149 282 l 1
 145 271 l 1
 147 271 l 1
245 37 m 1
 222 -21 l 1
 164 -45 l 1
 107 -21 l 1
 83 37 l 1
 107 94 l 1
 123 101 l 1
 138 207 l 1
 87 201 l 2
 60 198 33 210 29 227 c 0
 28 231 30 239 30 239 c 1
 212 722 l 2
 218 739 245 749 272 745 c 0
 298 741 312 724 310 712 c 2
 256 330 l 1
 260 332 l 1
 317 308 l 1
 341 251 l 1
 317 194 l 1
 260 170 l 1
 235 180 l 1
 222 93 l 1
 245 37 l 1
EndSplineSet
AlternateSubs2: "Randomize subtable" four.1 four.2 four.3 four.4 four.5 four.6 four.7
EndChar

StartChar: backslash
Encoding: 92 92 122
Width: 400
VWidth: 0
Flags: W
LayerCount: 2
Fore
SplineSet
371 -74 m 1
 347 -131 l 1
 289 -155 l 1
 232 -131 l 1
 208 -74 l 1
 228 -25 l 1
 75 657 l 1
 53 666 l 1
 29 723 l 1
 53 781 l 1
 110 804 l 1
 168 781 l 1
 192 723 l 1
 172 675 l 1
 325 -7 l 1
 347 -16 l 1
 371 -74 l 1
EndSplineSet
AlternateSubs2: "Randomize subtable" backslash.1 backslash.2 backslash.3 backslash.4 backslash.5 backslash.6 backslash.7
EndChar

StartChar: Q
Encoding: 81 81 123
Width: 607
VWidth: 0
Flags: W
HStem: -215 62<235.274 353.718>
LayerCount: 2
Fore
SplineSet
534 -140 m 1
 511 -198 l 1
 453 -222 l 1
 401 -200 l 1
 377 -208 350 -213 320 -215 c 0
 132 -224 51 -86 34 58 c 0
 20 177 46 320 118 458 c 0
 160 538 204 618 251 696 c 2
 253 700 l 1
 242 727 l 1
 266 785 l 1
 323 808 l 1
 381 785 l 1
 404 727 l 1
 389 689 l 1
 417 615 447 544 480 473 c 0
 577 267 615 24 522 -111 c 1
 534 -140 l 1
312 620 m 1
 213 439 l 1
 145 309 120 171 133 62 c 0
 150 -87 232 -157 313 -153 c 0
 321 -153 327 -151 334 -150 c 0
 341 -149 348 -147 354 -145 c 1
 352 -144 l 2
 341 -140 330 -133 326 -124 c 2
 261 24 l 1
 224 40 l 1
 200 98 l 1
 224 155 l 1
 281 179 l 1
 338 155 l 1
 362 98 l 1
 348 63 l 1
 410 -77 l 1
 434 -67 l 1
 490 43 482 246 384 455 c 0
 358 509 334 564 312 620 c 1
EndSplineSet
AlternateSubs2: "Randomize subtable" Q.1 Q.2 Q.3 Q.4 Q.5 Q.6 Q.7 Q.8 Q.9 Q.10 Q.11 Q.12 Q.13 Q.14 Q.15
EndChar

StartChar: s
Encoding: 115 115 124
Width: 428
VWidth: 0
Flags: W
HStem: 396 63<160.545 182>
LayerCount: 2
Fore
SplineSet
381 378 m 1
 358 321 l 1
 300 297 l 1
 243 321 l 1
 219 378 l 1
 182 396 l 2
 180 396 148 380 152 341 c 0
 156 304 190 284 235 268 c 0
 272 255 327 237 361 196 c 0
 388 163 398 127 396 92 c 0
 392 23 336 -66 211 -63 c 0
 192 -63 175 -55 168 -47 c 2
 119 12 l 1
 110 8 l 1
 53 32 l 1
 29 90 l 1
 53 147 l 1
 110 171 l 1
 168 147 l 1
 192 90 l 1
 183 69 l 1
 239 4 l 1
 285 23 322 108 272 168 c 0
 253 191 227 199 186 214 c 0
 129 234 59 271 52 337 c 0
 47 391 86 456 177 459 c 0
 198 460 223 455 240 447 c 2
 254 440 l 1
 300 460 l 1
 358 436 l 1
 381 378 l 1
EndSplineSet
AlternateSubs2: "Randomize subtable" s.1 s.2 s.3 s.4 s.5 s.6 s.7 s.8 s.9 s.10 s.11 s.12 s.13 s.14 s.15 s.16 s.17 s.18 s.19 s.20 s.21 s.22 s.23 s.24 s.25 s.26 s.27 s.28 s.29 s.30 s.31
EndChar

StartChar: h
Encoding: 104 104 125
Width: 513
VWidth: 0
Flags: W
HStem: -63 21G<62.6667 158.5> 218 62<180 341> 472 20G<345.5 440.5>
VStem: 65 100<80 185 311 337> 341 100<54.093 222 284 349> 348 100<51 219.281>
LayerCount: 2
Fore
SplineSet
474 410 m 1xf8
 450 353 l 1
 441 349 l 1
 441 319 441 289 441 259 c 0
 441 258 442 256 442 255 c 0
 442 253 441 251 441 249 c 0xf8
 442 182 445 117 448 51 c 1
 458 47 l 1
 482 -10 l 1
 458 -68 l 1
 401 -92 l 1
 343 -68 l 1
 319 -10 l 1
 343 47 l 1
 348 49 l 1xf4
 345 106 343 164 342 222 c 1
 180 218 l 1
 168 190 l 1
 165 189 l 1
 162 78 l 1
 168 76 l 1
 192 18 l 1
 168 -39 l 1
 111 -63 l 1
 53 -39 l 1
 30 18 l 1
 53 76 l 1
 62 80 l 1
 65 185 l 1
 53 190 l 1
 29 248 l 1
 53 305 l 1
 68 311 l 1
 69 338 l 1
 62 341 l 1
 38 398 l 1
 62 456 l 1
 120 479 l 1
 177 456 l 1
 201 398 l 1
 177 341 l 1
 169 337 l 1
 168 305 l 1
 178 280 l 1
 341 284 l 1
 341 306 341 329 341 351 c 1
 336 353 l 1
 312 410 l 1
 336 468 l 1
 393 492 l 1
 450 468 l 1
 474 410 l 1xf8
EndSplineSet
AlternateSubs2: "Randomize subtable" h.1 h.2 h.3 h.4 h.5 h.6 h.7 h.8 h.9 h.10 h.11 h.12 h.13 h.14 h.15 h.16 h.17 h.18 h.19 h.20 h.21 h.22 h.23 h.24 h.25 h.26 h.27 h.28 h.29 h.30 h.31
EndChar

StartChar: a
Encoding: 97 97 126
Width: 480
VWidth: 0
Flags: W
LayerCount: 2
Fore
SplineSet
449 7 m 1
 426 -51 l 1
 368 -75 l 1
 311 -51 l 1
 287 7 l 1
 301 40 l 1
 285 46 l 1
 272 78 l 1
 189 84 l 1
 180 64 l 1
 178 63 l 1
 192 29 l 1
 168 -28 l 1
 110 -52 l 1
 53 -28 l 1
 29 29 l 1
 53 87 l 1
 55 88 l 1
 41 121 l 1
 65 179 l 1
 113 198 l 1
 199 468 l 2
 204 485 231 496 258 493 c 0
 279 490 295 478 298 467 c 2
 375 171 l 1
 400 161 l 1
 424 104 l 1
 410 71 l 1
 426 64 l 1
 449 7 l 1
276 141 m 1
 280 150 l 1
 244 287 l 1
 199 147 l 1
 276 141 l 1
EndSplineSet
AlternateSubs2: "Randomize subtable" a.1 a.2 a.3 a.4 a.5 a.6 a.7 a.8 a.9 a.10 a.11 a.12 a.13 a.14 a.15 a.16 a.17 a.18 a.19 a.20 a.21 a.22 a.23 a.24 a.25 a.26 a.27 a.28 a.29 a.30 a.31
EndChar

StartChar: question
Encoding: 63 63 127
Width: 372
VWidth: 0
Flags: W
VStem: 29 310
LayerCount: 2
Fore
SplineSet
192 6 m 1
 168 -52 l 1
 110 -76 l 1
 53 -52 l 1
 29 6 l 1
 53 63 l 1
 110 87 l 1
 168 63 l 1
 192 6 l 1
286 174 m 1
 262 117 l 1
 204 93 l 1
 147 117 l 1
 123 174 l 1
 147 232 l 1
 159 237 l 1
 175 350 227 453 239 559 c 0
 246 622 222 673 202 680 c 0
 191 684 183 686 165 666 c 0
 152 652 145 633 145 614 c 1
 187 597 l 1
 211 539 l 1
 187 482 l 1
 130 458 l 1
 73 482 l 1
 49 539 l 1
 58 560 l 1
 32 607 45 660 78 697 c 0
 109 731 176 761 251 734 c 0
 342 702 346 617 339 555 c 0
 326 440 275 337 259 233 c 1
 262 232 l 1
 286 174 l 1
EndSplineSet
AlternateSubs2: "Randomize subtable" question.1 question.2 question.3 question.4 question.5 question.6 question.7
EndChar

StartChar: C
Encoding: 67 67 128
Width: 432
VWidth: 0
Flags: W
HStem: 579 21G<234.667 330.5> 826 63<168.944 244.537>
LayerCount: 2
Fore
SplineSet
364 660 m 1
 340 603 l 1
 283 579 l 1
 225 603 l 1
 202 660 l 1
 225 718 l 1
 269 736 l 1
 271 776 246 814 219 822 c 0
 206 826 197 826 193 826 c 0
 130 824 135 614 150 357 c 0
 156 257 147 23 232 31 c 1
 234 31 l 1
 246 33 267 52 275 78 c 1
 262 83 l 1
 238 140 l 1
 262 197 l 1
 319 221 l 1
 377 197 l 1
 401 140 l 1
 378 86 l 1
 374 34 338 -16 262 -29 c 0
 257 -30 252 -31 247 -31 c 0
 125 -42 85 37 70 99 c 0
 52 174 55 270 50 355 c 0
 37 560 -34 884 189 889 c 0
 213 890 238 886 261 879 c 0
 369 848 391 751 355 682 c 1
 364 660 l 1
EndSplineSet
AlternateSubs2: "Randomize subtable" C.1 C.2 C.3 C.4 C.5 C.6 C.7 C.8 C.9 C.10 C.11 C.12 C.13 C.14 C.15
EndChar

StartChar: hyphen
Encoding: 45 45 129
Width: 337
VWidth: 0
Flags: W
HStem: 191 236
VStem: 35 267
LayerCount: 2
Fore
SplineSet
302 346 m 1
 278 288 l 1
 221 265 l 1
 197 275 l 1
 198 272 l 1
 174 214 l 1
 116 191 l 1
 59 214 l 1
 35 272 l 1
 59 329 l 1
 116 353 l 1
 140 343 l 1
 139 346 l 1
 163 403 l 1
 221 427 l 1
 278 403 l 1
 302 346 l 1
EndSplineSet
AlternateSubs2: "Randomize subtable" hyphen.1 hyphen.2 hyphen.3 hyphen.4 hyphen.5 hyphen.6 hyphen.7
EndChar

StartChar: ampersand
Encoding: 38 38 130
Width: 487
VWidth: 0
Flags: W
HStem: 480 20G<329.5 425.333> 775 20G<245.565 345.565>
LayerCount: 2
Fore
SplineSet
411 14 m 1
 387 -43 l 1
 330 -67 l 1
 273 -43 l 1
 249 14 l 1
 269 61 l 1
 254 124 l 1
 167 -21 l 2
 160 -32 142 -42 122 -42 c 0
 95 -43 72 -29 71 -12 c 2
 51 341 l 2
 50 344 50 347 51 350 c 2
 31 701 l 2
 30 716 50 733 77 734 c 2
 226 742 l 1
 238 772 l 1
 296 795 l 1
 353 772 l 1
 377 714 l 1
 353 657 l 1
 308 638 l 1
 151 342 l 1
 162 148 l 1
 307 391 l 1
 296 419 l 1
 320 476 l 1
 377 500 l 1
 435 476 l 1
 458 419 l 1
 435 361 l 1
 383 339 l 1
 326 244 l 1
 364 81 l 1
 387 72 l 1
 411 14 l 1
141 523 m 1
 224 679 l 1
 133 674 l 1
 141 523 l 1
EndSplineSet
AlternateSubs2: "Randomize subtable" ampersand.1 ampersand.2 ampersand.3 ampersand.4 ampersand.5 ampersand.6 ampersand.7
EndChar

StartChar: P.1
Encoding: 65536 -1 131
Width: 455
VWidth: 0
Flags: W
VStem: 61 100<-19 272> 65 101<61.75 272 469 758>
LayerCount: 2
Fore
SplineSet
166 469 m 1x40
 314 681 l 1
 169 758 l 1
 166 469 l 1x40
211 339 m 1
 187 282 l 1
 164 272 l 1
 161 -19 l 1
 168 -22 l 1
 192 -80 l 1
 168 -137 l 1
 110 -161 l 1
 53 -137 l 1
 29 -80 l 1
 53 -22 l 1
 61 -19 l 1x80
 64 304 l 1
 49 339 l 1
 65 376 l 1
 69 826 l 2
 69 843 93 857 120 857 c 0
 132 857 143 855 152 850 c 2
 407 713 l 2
 424 704 428 689 420 677 c 2
 201 363 l 1
 211 339 l 1
EndSplineSet
EndChar

StartChar: semicolon.1
Encoding: 65537 -1 132
Width: 281
VWidth: 0
Flags: W
VStem: 34 212
LayerCount: 2
Fore
SplineSet
246 286 m 1
 222 228 l 1
 165 204 l 1
 108 228 l 1
 84 286 l 1
 108 343 l 1
 165 367 l 1
 222 343 l 1
 246 286 l 1
197 -220 m 1
 173 -278 l 1
 115 -301 l 1
 58 -278 l 1
 34 -220 l 1
 58 -163 l 1
 93 -148 l 1
 124 -73 l 1
 96 -62 l 1
 72 -5 l 1
 96 53 l 1
 154 77 l 1
 211 53 l 1
 235 -5 l 1
 221 -38 l 1
 228 -54 l 2
 230 -59 230 -65 228 -70 c 2
 182 -184 l 1
 197 -220 l 1
EndSplineSet
EndChar

StartChar: comma.1
Encoding: 65538 -1 133
Width: 271
VWidth: 0
Flags: W
VStem: 37 195
LayerCount: 2
Fore
SplineSet
200 -198 m 1
 176 -256 l 1
 118 -279 l 1
 61 -256 l 1
 37 -198 l 1
 61 -141 l 1
 109 -121 l 1
 132 -80 l 1
 124 -63 l 1
 87 -48 l 1
 63 10 l 1
 87 67 l 1
 145 91 l 1
 202 67 l 1
 226 10 l 1
 211 -25 l 1
 232 -74 l 2
 235 -80 234 -87 231 -92 c 2
 188 -169 l 1
 200 -198 l 1
EndSplineSet
EndChar

StartChar: nine.1
Encoding: 65539 -1 134
Width: 342
VWidth: 0
Flags: W
LayerCount: 2
Fore
SplineSet
191 458 m 1
 199 483 l 2
 224 561 200 631 179 647 c 1
 163 636 161 576 179 512 c 0
 184 494 188 476 191 458 c 1
192 77 m 1
 168 19 l 1
 110 -5 l 1
 53 19 l 1
 29 77 l 1
 53 134 l 1
 84 147 l 1
 115 234 l 1
 80 248 l 1
 57 306 l 1
 80 363 l 1
 96 370 l 1
 98 414 93 458 81 501 c 0
 63 563 27 667 134 703 c 0
 149 708 167 712 185 711 c 0
 230 709 258 688 274 669 c 0
 313 623 322 549 297 471 c 2
 258 353 l 1
 175 117 l 1
 192 77 l 1
EndSplineSet
EndChar

StartChar: dotlessi.1
Encoding: 65540 -1 135
Width: 245
VWidth: 0
Flags: W
HStem: 481 20G<84.6667 180.5>
VStem: 83 100<74.032 359>
LayerCount: 2
Fore
SplineSet
214 420 m 1
 190 363 l 1
 185 361 l 1
 185 334 185 306 183 279 c 0
 181 234 186 188 183 139 c 0
 181 110 178 82 172 54 c 1
 192 7 l 1
 168 -51 l 1
 110 -75 l 1
 53 -51 l 1
 29 7 l 1
 53 64 l 1
 75 73 l 1
 79 95 82 118 83 141 c 0
 85 186 80 232 83 281 c 0
 84 307 84 333 84 359 c 1
 75 363 l 1
 52 420 l 1
 75 477 l 1
 133 501 l 1
 190 477 l 1
 214 420 l 1
EndSplineSet
EndChar

StartChar: breve.1
Encoding: 65541 -1 136
Width: 407
VWidth: 0
Flags: W
HStem: 495 62<212.016 262.406> 743 20G<223.435 323.435>
LayerCount: 2
Fore
SplineSet
195 785 m 1
 171 728 l 1
 151 720 l 1
 150 656 182 594 232 562 c 0
 237 559 240 557 241 557 c 0
 257 565 268 583 270 602 c 1
 216 625 l 1
 192 682 l 1
 216 740 l 1
 273 763 l 1
 331 740 l 1
 355 682 l 1
 351 672 l 1
 392 624 370 560 330 525 c 0
 313 510 286 497 249 495 c 0
 214 494 182 504 160 519 c 0
 80 570 43 654 52 737 c 1
 32 785 l 1
 56 843 l 1
 113 867 l 1
 171 843 l 1
 195 785 l 1
EndSplineSet
EndChar

StartChar: G.1
Encoding: 65542 -1 137
Width: 436
VWidth: 0
Flags: W
HStem: 689 62<187.724 264.2>
LayerCount: 2
Fore
SplineSet
391 0 m 1
 367 -57 l 1
 309 -81 l 1
 252 -57 l 1
 238 -24 l 1
 49 3 51 209 37 345 c 0
 20 510 18 743 214 751 c 0
 228 752 241 751 255 749 c 0
 355 734 395 661 388 595 c 1
 405 553 l 1
 381 496 l 1
 324 472 l 1
 266 496 l 1
 242 553 l 1
 266 611 l 1
 288 620 l 1
 282 658 251 685 232 688 c 0
 227 689 223 689 220 689 c 0
 167 687 117 544 137 349 c 2
 186 369 l 1
 243 345 l 1
 252 323 l 1
 326 327 l 2
 357 329 381 311 380 294 c 2
 363 59 l 1
 367 57 l 1
 391 0 l 1
263 62 m 1
 277 261 l 1
 255 260 l 1
 243 230 l 1
 186 206 l 1
 155 219 l 1
 173 128 200 59 245 40 c 1
 252 57 l 1
 263 62 l 1
EndSplineSet
EndChar

StartChar: percent.1
Encoding: 65543 -1 138
Width: 617
VWidth: 0
Flags: W
VStem: 407 100<195.018 309>
LayerCount: 2
Fore
SplineSet
247 -85 m 1
 223 -142 l 1
 165 -166 l 1
 108 -142 l 1
 84 -85 l 1
 108 -27 l 1
 140 -14 l 1
 252 304 l 1
 239 298 224 295 206 292 c 0
 109 278 61 338 43 386 c 0
 23 440 25 510 52 580 c 0
 76 642 105 704 137 760 c 1
 126 787 l 1
 149 844 l 1
 207 868 l 1
 264 844 l 1
 288 787 l 1
 280 767 l 1
 290 758 301 751 311 747 c 0
 343 733 380 734 419 770 c 0
 422 773 426 776 431 778 c 0
 442 783 456 785 471 783 c 0
 494 780 510 767 510 753 c 0
 510 749 510 746 508 742 c 2
 230 -45 l 1
 247 -85 l 1
462 106 m 1
 446 45 458 -11 474 -28 c 1
 488 -14 488 43 462 106 c 1
545 372 m 1
 521 315 l 1
 508 309 l 1
 508 307 507 306 507 304 c 0
 507 249 523 198 542 159 c 0
 582 79 641 -72 492 -92 c 0
 409 -103 374 -51 363 -17 c 0
 349 25 351 79 368 132 c 1
 384 186 399 246 407 307 c 0
 407 310 407 313 407 315 c 1
 406 315 l 1
 382 372 l 1
 406 430 l 1
 464 453 l 1
 521 430 l 1
 545 372 l 1
179 636 m 1
 168 613 158 590 149 566 c 0
 125 505 126 442 141 400 c 0
 160 350 183 353 184 353 c 0
 214 357 240 446 198 571 c 0
 191 592 184 614 179 636 c 1
384 680 m 1
 345 674 305 677 268 690 c 1
 275 653 284 619 296 584 c 0
 305 558 314 528 320 497 c 1
 384 680 l 1
EndSplineSet
EndChar

StartChar: B.1
Encoding: 65544 -1 139
Width: 417
VWidth: 0
Flags: W
VStem: 62 100<47 214> 78 99<334 406 514 604.125> 87 98<514 617> 267 100<146.65 334.545>
LayerCount: 2
Fore
SplineSet
58 444 m 0x50
 54 448 52 453 52 458 c 0
 52 464 55 469 60 474 c 0
 65 479 72 483 80 486 c 1
 87 663 l 1x30
 81 665 l 1
 58 722 l 1
 81 780 l 1
 139 803 l 1
 196 780 l 1
 220 722 l 1
 213 706 l 1
 379 540 l 2
 391 528 388 504 357 495 c 2
 233 460 l 1
 318 418 366 334 367 250 c 0
 369 137 304 27 188 -24 c 1
 168 -72 l 1
 110 -96 l 1
 53 -72 l 1
 29 -14 l 1
 53 43 l 1
 62 47 l 1x90
 78 431 l 1
 70 434 62 438 58 444 c 0x50
177 406 m 1x50
 162 46 l 1x90
 222 87 268 161 267 249 c 0
 266 323 225 378 177 406 c 1x50
185 617 m 1x30
 181 514 l 1
 264 537 l 1
 185 617 l 1x30
EndSplineSet
EndChar

StartChar: quotedbl.1
Encoding: 65545 -1 140
Width: 373
VWidth: 0
Flags: W
VStem: 31 311
LayerCount: 2
Fore
SplineSet
323 380 m 1
 299 323 l 1
 242 299 l 1
 184 323 l 1
 166 366 l 1
 112 344 l 1
 55 368 l 1
 31 425 l 1
 55 483 l 1
 65 487 l 1
 69 551 l 1
 64 553 l 1
 40 610 l 1
 64 668 l 1
 122 691 l 1
 179 668 l 1
 203 610 l 1
 179 553 l 1
 169 549 l 1
 165 485 l 1
 170 483 l 1
 188 440 l 1
 196 443 l 1
 207 610 l 1
 204 611 l 1
 180 668 l 1
 204 726 l 1
 261 749 l 1
 318 726 l 1
 342 668 l 1
 318 611 l 1
 307 606 l 1
 295 440 l 1
 299 438 l 1
 323 380 l 1
EndSplineSet
EndChar

StartChar: questiondown.1
Encoding: 65546 -1 141
Width: 360
VWidth: 0
Flags: W
HStem: 466 20G<110.5 205.5> 552 21G<200.667 296.5>
VStem: 32 298
LayerCount: 2
Fore
SplineSet
330 634 m 1
 306 576 l 1
 249 552 l 1
 191 576 l 1
 167 634 l 1
 191 691 l 1
 249 715 l 1
 306 691 l 1
 330 634 l 1
239 404 m 1
 215 347 l 1
 212 346 l 1
 224 264 259 184 287 101 c 0
 305 48 324 -28 257 -73 c 0
 208 -106 138 -105 94 -79 c 0
 41 -48 14 14 41 68 c 1
 32 89 l 1
 55 146 l 1
 113 170 l 1
 168 147 l 1
 145 210 123 274 113 342 c 1
 101 347 l 1
 77 404 l 1
 101 462 l 1
 158 486 l 1
 215 462 l 1
 239 404 l 1
131 15 m 1
 133 -39 172 -38 183 -30 c 0
 203 -17 207 30 191 82 c 1
 170 32 l 1
 131 15 l 1
EndSplineSet
EndChar

StartChar: slash.1
Encoding: 65547 -1 142
Width: 458
VWidth: 0
Flags: W
LayerCount: 2
Fore
SplineSet
429 726 m 1
 405 668 l 1
 377 656 l 1
 174 24 l 1
 192 -18 l 1
 168 -75 l 1
 110 -99 l 1
 53 -75 l 1
 29 -18 l 1
 53 40 l 1
 81 52 l 1
 284 684 l 1
 267 726 l 1
 290 783 l 1
 348 807 l 1
 405 783 l 1
 429 726 l 1
EndSplineSet
EndChar

StartChar: bracketright.1
Encoding: 65548 -1 143
Width: 281
VWidth: 0
Flags: W
HStem: 782 20G<62.5 158.333>
VStem: 143 100<51 653> 150 100<51 653>
LayerCount: 2
Fore
SplineSet
150 51 m 1xa0
 143 653 l 1
 110 640 l 1
 53 663 l 1
 29 721 l 1
 53 778 l 1
 110 802 l 1
 168 778 l 1
 191 723 l 1
 222 710 l 2
 235 704 243 694 243 685 c 2xc0
 250 11 l 2
 250 0 241 -10 228 -15 c 2
 205 -25 l 1
 183 -78 l 1
 126 -102 l 1
 68 -78 l 1
 45 -20 l 1
 68 37 l 1
 126 61 l 1
 150 51 l 1xa0
EndSplineSet
EndChar

StartChar: underscore.1
Encoding: 65549 -1 144
Width: 544
VWidth: 0
Flags: W
HStem: -255 202
LayerCount: 2
Fore
SplineSet
504 -173 m 1
 480 -231 l 1
 422 -255 l 1
 365 -231 l 1
 351 -196 l 1
 186 -175 l 1
 179 -192 l 1
 121 -216 l 1
 64 -192 l 1
 40 -135 l 1
 64 -77 l 1
 121 -53 l 1
 179 -77 l 1
 194 -112 l 1
 358 -133 l 1
 365 -116 l 1
 422 -92 l 1
 480 -116 l 1
 504 -173 l 1
EndSplineSet
EndChar

StartChar: N.1
Encoding: 65550 -1 145
Width: 455
VWidth: 0
Flags: W
VStem: 59 100<143 329> 279 99<-1.57101 17 267 379> 292 100<379 734>
LayerCount: 2
Fore
SplineSet
424 795 m 1xa0
 400 737 l 1
 392 734 l 1xa0
 378 24 l 2
 378 10 362 -3 340 -6 c 0
 314 -10 286 0 279 17 c 2xc0
 155 329 l 1
 159 143 l 1
 168 139 l 1
 192 82 l 1
 168 24 l 1
 110 1 l 1
 53 24 l 1
 29 82 l 1
 53 139 l 1
 59 141 l 1
 49 598 l 2
 49 615 71 630 98 630 c 0
 123 630 143 617 147 606 c 2
 283 267 l 1
 292 734 l 1
 285 737 l 1
 262 795 l 1
 285 852 l 1
 343 876 l 1
 400 852 l 1
 424 795 l 1xa0
EndSplineSet
EndChar

StartChar: parenleft.1
Encoding: 65551 -1 146
Width: 305
VWidth: 0
Flags: W
LayerCount: 2
Fore
SplineSet
257 10 m 1
 233 -47 l 1
 176 -71 l 1
 118 -47 l 1
 94 10 l 1
 106 38 l 1
 -2 237 9 480 124 669 c 1
 114 694 l 1
 137 751 l 1
 195 775 l 1
 252 751 l 1
 276 694 l 1
 252 636 l 1
 198 613 l 1
 155 531 132 440 130 346 c 0
 128 256 149 167 187 86 c 1
 233 67 l 1
 257 10 l 1
EndSplineSet
EndChar

StartChar: i.1
Encoding: 65552 -1 147
Width: 256
VWidth: 0
Flags: W
HStem: 481 20G<62.5 158.333>
VStem: 60 100<33.6882 359>
LayerCount: 2
Fore
SplineSet
192 420 m 1
 168 363 l 1
 158 359 l 1
 158 333 158 307 160 281 c 0
 164 232 157 185 160 141 c 0
 163 105 168 68 176 32 c 1
 201 22 l 1
 225 -36 l 1
 201 -93 l 1
 144 -117 l 1
 86 -93 l 1
 63 -36 l 1
 81 9 l 1
 71 52 64 96 60 139 c 0
 56 188 63 235 60 279 c 0
 58 307 57 334 57 361 c 1
 53 363 l 1
 29 420 l 1
 53 477 l 1
 110 501 l 1
 168 477 l 1
 192 420 l 1
EndSplineSet
EndChar

StartChar: Omega.1
Encoding: 65553 -1 148
Width: 571
VWidth: 0
Flags: W
VStem: 269 100<85 199.266>
LayerCount: 2
Fore
SplineSet
540 -81 m 1
 517 -138 l 1
 459 -162 l 1
 402 -138 l 1
 378 -81 l 1
 386 -62 l 1
 275 62 l 2
 271 66 269 72 269 77 c 0
 269 221 355 340 382 466 c 0
 406 579 362 683 300 701 c 0
 266 711 225 702 183 646 c 0
 142 592 119 505 137 413 c 0
 168 254 287 109 287 -70 c 0
 287 -100 235 -108 209 -96 c 2
 181 -84 l 1
 129 -105 l 1
 72 -81 l 1
 48 -24 l 1
 72 34 l 1
 129 58 l 1
 171 41 l 1
 138 160 64 273 38 406 c 0
 18 508 41 605 92 673 c 0
 139 737 232 790 343 757 c 0
 486 715 505 572 481 458 c 0
 452 323 372 209 369 85 c 1
 448 -4 l 1
 459 0 l 1
 517 -23 l 1
 540 -81 l 1
EndSplineSet
EndChar

StartChar: braceleft.1
Encoding: 65554 -1 149
Width: 369
VWidth: 0
Flags: W
VStem: 63 100<70.3242 212.408>
LayerCount: 2
Fore
SplineSet
340 -4 m 1
 316 -62 l 1
 259 -86 l 1
 201 -62 l 1
 186 -25 l 1
 98 3 63 82 63 143 c 0
 63 194 84 248 142 285 c 1
 141 286 l 1
 110 273 l 1
 53 297 l 1
 29 354 l 1
 53 412 l 1
 110 436 l 1
 135 426 l 1
 146 434 l 1
 39 492 43 628 131 691 c 0
 142 699 155 706 169 711 c 1
 185 750 l 1
 242 774 l 1
 300 750 l 1
 324 692 l 1
 300 635 l 1
 242 611 l 1
 189 633 l 1
 184 627 181 620 177 612 c 0
 149 549 187 481 234 473 c 0
 265 467 284 441 261 424 c 2
 187 366 l 1
 192 354 l 1
 189 346 l 1
 253 301 l 2
 278 283 260 259 238 252 c 0
 195 239 163 196 163 143 c 0
 163 103 179 72 201 52 c 1
 201 53 l 1
 259 77 l 1
 316 53 l 1
 340 -4 l 1
EndSplineSet
EndChar

StartChar: three.1
Encoding: 65555 -1 150
Width: 408
VWidth: 0
Flags: W
VStem: 272 99<84.2755 250.169>
LayerCount: 2
Fore
SplineSet
208 496 m 1
 184 439 l 1
 127 415 l 1
 69 439 l 1
 45 496 l 1
 54 518 l 1
 38 548 35 579 41 609 c 0
 53 666 109 740 222 731 c 0
 370 719 397 582 365 487 c 0
 347 436 313 390 265 358 c 1
 330 315 365 251 371 180 c 0
 373 152 370 125 362 100 c 0
 343 44 286 -27 179 -13 c 0
 119 -5 83 27 68 65 c 1
 54 71 l 1
 30 128 l 1
 54 186 l 1
 111 210 l 1
 169 186 l 1
 193 128 l 1
 170 73 l 1
 180 57 194 49 200 48 c 0
 208 47 245 57 264 113 c 0
 271 132 274 154 272 177 c 0
 266 252 216 311 161 332 c 0
 157 334 149 338 145 342 c 0
 131 356 138 376 161 385 c 0
 206 402 249 444 268 500 c 0
 301 596 240 667 209 669 c 0
 191 670 150 652 140 601 c 0
 138 591 138 582 139 572 c 1
 184 554 l 1
 208 496 l 1
EndSplineSet
EndChar

StartChar: Xi.1
Encoding: 65556 -1 151
Width: 542
VWidth: 0
Flags: W
HStem: 465 20G<302.435 402.435> 776 20G<379.565 479.565>
LayerCount: 2
Fore
SplineSet
452 41 m 1
 428 -16 l 1
 370 -40 l 1
 313 -16 l 1
 307 -3 l 1
 196 -23 l 1
 180 -62 l 1
 123 -85 l 1
 65 -62 l 1
 42 -4 l 1
 65 53 l 1
 123 77 l 1
 180 53 l 1
 186 40 l 1
 297 60 l 1
 313 99 l 1
 370 122 l 1
 428 99 l 1
 452 41 l 1
434 404 m 1
 410 347 l 1
 352 323 l 1
 295 347 l 1
 288 364 l 1
 185 349 l 1
 170 314 l 1
 112 290 l 1
 55 314 l 1
 31 372 l 1
 55 429 l 1
 112 453 l 1
 170 429 l 1
 177 412 l 1
 280 427 l 1
 295 462 l 1
 352 485 l 1
 410 462 l 1
 434 404 l 1
511 715 m 1
 487 658 l 1
 430 634 l 1
 372 658 l 1
 358 690 l 1
 208 705 l 1
 200 685 l 1
 143 662 l 1
 85 685 l 1
 61 743 l 1
 85 800 l 1
 143 824 l 1
 200 800 l 1
 214 767 l 1
 364 753 l 1
 372 773 l 1
 430 796 l 1
 487 773 l 1
 511 715 l 1
EndSplineSet
EndChar

StartChar: dieresis.1
Encoding: 65557 -1 152
Width: 356
VWidth: 0
Flags: W
HStem: 550 200
VStem: 33 289
LayerCount: 2
Fore
SplineSet
322 631 m 1
 298 573 l 1
 241 550 l 1
 184 573 l 1
 168 611 l 1
 114 588 l 1
 57 612 l 1
 33 669 l 1
 57 727 l 1
 114 750 l 1
 172 727 l 1
 188 689 l 1
 241 712 l 1
 298 688 l 1
 322 631 l 1
EndSplineSet
EndChar

StartChar: acute.1
Encoding: 65558 -1 153
Width: 312
VWidth: 0
Flags: W
HStem: 495 290
VStem: 33 247
LayerCount: 2
Fore
SplineSet
196 576 m 1
 172 518 l 1
 114 495 l 1
 57 518 l 1
 33 576 l 1
 57 633 l 1
 114 657 l 1
 128 679 l 1
 118 704 l 1
 141 761 l 1
 199 785 l 1
 256 761 l 1
 280 704 l 1
 256 646 l 1
 199 623 l 1
 185 602 l 1
 196 576 l 1
EndSplineSet
EndChar

StartChar: endash.1
Encoding: 65559 -1 154
Width: 436
VWidth: 0
Flags: W
HStem: 205 235
LayerCount: 2
Fore
SplineSet
402 286 m 1
 378 228 l 1
 321 205 l 1
 264 228 l 1
 243 278 l 1
 174 303 l 1
 173 301 l 1
 115 278 l 1
 58 301 l 1
 34 359 l 1
 58 416 l 1
 115 440 l 1
 173 416 l 1
 194 367 l 1
 264 342 l 1
 264 343 l 1
 321 367 l 1
 378 343 l 1
 402 286 l 1
EndSplineSet
EndChar

StartChar: greater.1
Encoding: 65560 -1 155
Width: 413
VWidth: 0
Flags: W
HStem: 541 21G<63.5 119>
LayerCount: 2
Fore
SplineSet
205 98 m 1
 181 40 l 1
 124 17 l 1
 66 40 l 1
 42 98 l 1
 66 155 l 1
 124 179 l 1
 132 176 l 1
 277 348 l 1
 119 544 l 1
 111 541 l 1
 54 565 l 1
 30 622 l 1
 54 680 l 1
 111 703 l 1
 169 680 l 1
 193 622 l 1
 184 601 l 1
 377 362 l 2
 384 353 383 341 377 333 c 2
 197 117 l 1
 205 98 l 1
EndSplineSet
EndChar

StartChar: parenright.1
Encoding: 65561 -1 156
Width: 349
VWidth: 0
Flags: W
HStem: -65 21G<87.5 183.333>
VStem: 219 100<207.131 477.992>
LayerCount: 2
Fore
SplineSet
217 16 m 1
 193 -41 l 1
 135 -65 l 1
 78 -41 l 1
 54 16 l 1
 78 74 l 1
 135 97 l 1
 143 94 l 1
 193 168 220 256 219 348 c 0
 218 448 183 545 124 622 c 1
 110 616 l 1
 53 640 l 1
 29 698 l 1
 53 755 l 1
 110 779 l 1
 168 755 l 1
 192 698 l 1
 186 682 l 1
 271 590 318 471 319 348 c 0
 320 234 281 124 209 35 c 1
 217 16 l 1
EndSplineSet
EndChar

StartChar: seven.1
Encoding: 65562 -1 157
Width: 376
VWidth: 0
Flags: W
HStem: 534 21G<61.4348 161.435>
VStem: 127 100<30 287.203>
LayerCount: 2
Fore
SplineSet
258 -31 m 1
 234 -88 l 1
 176 -112 l 1
 119 -88 l 1
 95 -31 l 1
 119 27 l 1
 127 30 l 1
 132 234 164 437 220 633 c 1
 192 617 l 1
 193 615 l 1
 169 557 l 1
 111 534 l 1
 54 557 l 1
 30 615 l 1
 54 672 l 1
 111 696 l 1
 153 679 l 1
 264 739 l 2
 285 750 317 749 335 736 c 0
 345 728 349 717 346 709 c 0
 273 489 233 261 227 30 c 1
 234 27 l 1
 258 -31 l 1
EndSplineSet
EndChar

StartChar: Oslash.1
Encoding: 65563 -1 158
Width: 488
VWidth: 0
Flags: W
VStem: 309 99<768.053 811.665>
LayerCount: 2
Fore
SplineSet
198 79 m 1
 202 74 207 69 211 65 c 0
 234 43 251 41 270 44 c 0
 349 56 372 206 329 383 c 0
 323 410 317 437 313 463 c 1
 198 79 l 1
192 -45 m 1
 168 -102 l 1
 110 -126 l 1
 53 -102 l 1
 29 -45 l 1
 53 13 l 1
 80 24 l 1
 94 71 l 1
 52 139 35 242 58 351 c 0
 80 454 114 553 160 648 c 1
 148 679 l 1
 171 737 l 1
 229 760 l 1
 286 737 l 1
 290 727 l 1
 309 792 l 2
 313 807 337 818 363 817 c 0
 390 816 410 800 408 783 c 0
 390 653 397 520 428 392 c 0
 466 237 495 15 293 -17 c 0
 250 -24 207 -16 174 -1 c 1
 192 -45 l 1
255 609 m 1
 245 605 l 1
 207 521 176 433 157 343 c 0
 150 311 147 279 147 249 c 1
 255 609 l 1
EndSplineSet
EndChar

StartChar: Psi.1
Encoding: 65564 -1 159
Width: 521
VWidth: 0
Flags: W
VStem: 100 100<178.744 517.168> 250 101<65 87 165 256.714>
LayerCount: 2
Fore
SplineSet
490 566 m 1
 466 508 l 1
 447 500 l 1
 451 376 534 128 351 87 c 1
 350 63 l 1
 354 61 l 1
 378 3 l 1
 354 -54 l 1
 297 -78 l 1
 239 -54 l 1
 216 3 l 1
 239 61 l 1
 250 65 l 1
 250 84 l 1
 113 102 100 209 100 292 c 0
 100 373 108 460 96 520 c 1
 55 537 l 1
 31 595 l 1
 55 652 l 1
 112 676 l 1
 170 652 l 1
 194 595 l 1
 184 571 l 1
 225 492 200 381 200 292 c 0
 200 211 215 167 253 151 c 1
 272 610 l 1
 268 612 l 1
 244 670 l 1
 268 727 l 1
 325 751 l 1
 383 727 l 1
 406 670 l 1
 394 641 l 1
 409 647 l 1
 466 623 l 1
 490 566 l 1
358 272 m 1
 354 165 l 1
 372 187 367 226 358 272 c 1
EndSplineSet
EndChar

StartChar: ring.1
Encoding: 65565 -1 160
Width: 245
VWidth: 0
Flags: W
HStem: 431 229
VStem: 75 99<436.393 509.367>
LayerCount: 2
Fore
SplineSet
174 456 m 2
 172 448 166 442 158 438 c 0
 148 432 134 429 119 431 c 0
 97 433 79 443 75 456 c 1
 75 457 l 0
 63 502 -29 645 109 660 c 0
 114 661 120 661 125 661 c 0
 195 661 211 618 211 595 c 0
 211 554 186 502 174 457 c 0
 174 456 l 2
EndSplineSet
EndChar

StartChar: less.1
Encoding: 65566 -1 161
Width: 372
VWidth: 0
Flags: W
VStem: 33 309
LayerCount: 2
Fore
SplineSet
342 68 m 1
 318 11 l 1
 261 -13 l 1
 203 11 l 1
 180 68 l 1
 190 94 l 1
 34 329 l 2
 29 336 29 344 33 351 c 2
 184 626 l 1
 172 656 l 1
 196 713 l 1
 253 737 l 1
 310 713 l 1
 334 656 l 1
 310 598 l 1
 263 578 l 1
 133 342 l 1
 261 149 l 1
 318 126 l 1
 342 68 l 1
EndSplineSet
EndChar

StartChar: bracketleft.1
Encoding: 65567 -1 162
Width: 272
VWidth: 0
Flags: W
VStem: 31 103<481.864 608> 53 97<87 229.136>
LayerCount: 2
Fore
SplineSet
229 7 m 1x40
 205 -51 l 1
 147 -74 l 1
 90 -51 l 1
 76 -17 l 1
 63 -11 54 -3 53 8 c 2x40
 31 703 l 2
 31 732 76 740 103 731 c 1
 105 735 l 1
 162 758 l 1
 220 735 l 1
 243 677 l 1
 220 620 l 1
 162 596 l 1
 134 608 l 1x80
 150 87 l 1
 205 64 l 1
 229 7 l 1x40
EndSplineSet
EndChar

StartChar: emdash.1
Encoding: 65568 -1 163
Width: 664
VWidth: 0
Flags: W
HStem: 179 260
LayerCount: 2
Fore
SplineSet
630 260 m 1
 606 203 l 1
 549 179 l 1
 491 203 l 1
 474 244 l 1
 178 310 l 1
 174 300 l 1
 116 276 l 1
 59 300 l 1
 35 357 l 1
 59 415 l 1
 116 439 l 1
 174 415 l 1
 191 374 l 1
 487 308 l 1
 491 318 l 1
 549 342 l 1
 606 318 l 1
 630 260 l 1
EndSplineSet
EndChar

StartChar: f.1
Encoding: 65569 -1 164
Width: 440
VWidth: 0
Flags: W
HStem: 483 20G<106.5 126.5>
VStem: 76 99<38 266> 82 100<38 266>
LayerCount: 2
Fore
SplineSet
363 277 m 1xc0
 339 220 l 1
 282 196 l 1
 224 220 l 1
 200 277 l 1
 214 311 l 1
 207 320 200 328 192 334 c 1
 192 333 l 1
 175 294 l 1xc0
 182 38 l 1
 190 34 l 1
 214 -23 l 1
 190 -81 l 1
 133 -105 l 1
 75 -81 l 1
 51 -23 l 1
 75 34 l 1
 82 37 l 1xa0
 76 266 l 1
 53 276 l 1
 29 333 l 1
 53 391 l 1
 73 399 l 1
 71 471 l 2
 71 488 93 503 120 503 c 0
 133 503 146 499 155 494 c 2
 290 414 l 1
 327 429 l 1
 385 406 l 1
 409 348 l 1
 385 291 l 1
 361 281 l 1
 363 277 l 1xc0
EndSplineSet
EndChar

StartChar: D.1
Encoding: 65570 -1 165
Width: 508
VWidth: 0
Flags: W
HStem: 625 62<203 277.325>
VStem: 62 100<96 296.176> 79 100<384.824 585> 376 100<309.104 518.624>
LayerCount: 2
Fore
SplineSet
195 687 m 1xb0
 292 688 376 642 423 581 c 0
 458 536 478 480 476 419 c 0
 470 247 362 89 187 23 c 1
 168 -23 l 1
 110 -47 l 1
 53 -23 l 1
 29 34 l 1
 53 92 l 1
 62 96 l 1xd0
 79 587 l 1
 74 589 l 1
 50 646 l 1
 74 704 l 1
 131 728 l 1
 188 704 l 1
 195 687 l 1xb0
179 585 m 1xb0
 162 94 l 1xd0
 168 92 l 1
 283 150 371 273 376 421 c 0
 378 473 360 519 333 554 c 0
 296 601 249 624 203 625 c 1
 188 589 l 1
 179 585 l 1xb0
EndSplineSet
EndChar

StartChar: F.1
Encoding: 65571 -1 166
Width: 447
VWidth: 0
Flags: W
HStem: 507 20G<220.565 320.565>
VStem: 62 100<8 241.889> 71 100<208.333 309 430 587.818> 83 99<495.111 678>
LayerCount: 2
Fore
SplineSet
352 446 m 1x90
 328 389 l 1
 271 365 l 1
 247 375 l 1
 232 366 215 358 197 352 c 1
 181 313 l 1
 171 309 l 1xa0
 162 7 l 1
 168 4 l 1
 192 -54 l 1
 168 -111 l 1
 110 -135 l 1
 53 -111 l 1
 29 -54 l 1
 53 4 l 1
 62 8 l 1xc0
 71 311 l 1xa0
 66 313 l 1
 42 370 l 1
 66 427 l 1
 74 430 l 1
 83 723 l 2
 84 740 107 753 134 753 c 0
 139 753 150 752 150 752 c 1
 274 724 l 1
 278 734 l 1
 335 758 l 1
 393 734 l 1
 416 676 l 1
 393 619 l 1
 335 595 l 1
 278 619 l 1
 261 660 l 1
 182 678 l 1
 175 430 l 1
 181 427 l 1
 182 424 l 1
 186 427 191 430 195 433 c 1
 189 446 l 1
 213 504 l 1
 271 527 l 1
 328 504 l 1
 352 446 l 1x90
EndSplineSet
EndChar

StartChar: r.1
Encoding: 65572 -1 167
Width: 545
VWidth: 0
Flags: W
HStem: 380 63<188.285 282.494>
VStem: 333 100<187.328 328.223>
LayerCount: 2
Fore
SplineSet
174 196 m 1
 256 147 l 1
 288 155 335 190 333 260 c 0
 330 346 260 381 225 380 c 0
 214 380 201 378 187 370 c 1
 192 358 l 1
 168 300 l 1
 165 299 l 1
 174 196 l 1
514 -5 m 1
 490 -62 l 1
 433 -86 l 1
 375 -62 l 1
 351 -5 l 1
 353 0 l 1
 216 83 l 1
 214 83 211 84 209 84 c 1
 217 65 l 1
 193 7 l 1
 136 -16 l 1
 78 7 l 1
 54 65 l 1
 78 122 l 1
 81 123 l 1
 77 165 l 1
 69 176 61 190 73 204 c 1
 65 295 l 1
 53 300 l 1
 29 358 l 1
 53 415 l 1
 110 439 l 1
 141 426 l 1
 166 436 194 443 223 443 c 0
 346 445 430 361 433 262 c 0
 436 190 396 131 330 101 c 1
 396 61 l 1
 433 76 l 1
 490 53 l 1
 514 -5 l 1
EndSplineSet
EndChar

StartChar: hungarumlaut.1
Encoding: 65573 -1 168
Width: 373
VWidth: 0
Flags: W
VStem: 206 99<480 635>
LayerCount: 2
Fore
SplineSet
342 697 m 1
 319 639 l 1
 310 635 l 1
 305 441 l 1
 301 419 274 407 244 411 c 2
 70 436 l 2
 47 439 28 454 31 470 c 2
 66 645 l 1
 45 695 l 1
 69 753 l 1
 126 776 l 1
 184 753 l 1
 193 729 l 1
 204 754 l 1
 261 778 l 1
 319 754 l 1
 342 697 l 1
210 637 m 1
 204 639 l 1
 194 663 l 1
 184 638 l 1
 164 630 l 1
 136 490 l 1
 206 480 l 1
 210 637 l 1
EndSplineSet
EndChar

StartChar: tilde.1
Encoding: 65574 -1 169
Width: 554
VWidth: 0
Flags: W
HStem: 466 258 546 21G<333 384.5>
LayerCount: 2
Fore
SplineSet
521 642 m 1x80
 497 585 l 1
 458 569 l 1
 451 564 444 560 435 556 c 0
 416 548 394 546 375 546 c 0x40
 291 546 213 577 182 581 c 1
 196 547 l 1
 172 490 l 1
 114 466 l 1
 57 490 l 1
 33 547 l 1
 57 605 l 1
 96 621 l 1
 102 626 110 630 119 634 c 0
 202 667 333 621 371 611 c 1
 358 642 l 1
 382 700 l 1
 440 724 l 1
 497 700 l 1
 521 642 l 1x80
EndSplineSet
EndChar

StartChar: cedilla.1
Encoding: 65575 -1 170
Width: 355
VWidth: 0
Flags: W
HStem: -108 139<212.398 302.25>
VStem: 37 281
LayerCount: 2
Fore
SplineSet
251 31 m 0
 278 33 302 20 305 3 c 2
 318 -73 l 2
 321 -94 291 -109 264 -108 c 2
 185 -103 l 1
 176 -126 l 1
 118 -150 l 1
 61 -126 l 1
 37 -68 l 1
 61 -11 l 1
 118 13 l 1
 176 -11 l 1
 188 -41 l 1
 212 -42 l 1
 206 -3 l 2
 203 14 224 29 251 31 c 0
EndSplineSet
EndChar

StartChar: Lambda.1
Encoding: 65576 -1 171
Width: 484
VWidth: 0
Flags: W
LayerCount: 2
Fore
SplineSet
453 44 m 1
 429 -13 l 1
 372 -37 l 1
 314 -13 l 1
 290 44 l 1
 313 99 l 1
 259 427 l 1
 174 45 l 1
 194 -4 l 1
 170 -61 l 1
 112 -85 l 1
 55 -61 l 1
 31 -4 l 1
 55 54 l 1
 77 63 l 1
 218 692 l 2
 226 725 312 727 317 691 c 2
 411 109 l 1
 429 102 l 1
 453 44 l 1
EndSplineSet
EndChar

StartChar: two.1
Encoding: 65577 -1 172
Width: 441
VWidth: 0
Flags: W
HStem: 670 62<168.095 253.568>
LayerCount: 2
Fore
SplineSet
302 -36 m 1
 278 -94 l 1
 221 -118 l 1
 163 -94 l 1
 146 -51 l 1
 119 -44 l 2
 100 -39 79 -19 93 -1 c 0
 183 115 251 248 292 390 c 0
 336 542 277 664 219 670 c 0
 218 670 217 670 216 670 c 0
 189 672 141 645 132 585 c 0
 130 575 131 565 132 555 c 1
 174 538 l 1
 198 480 l 1
 174 423 l 1
 116 399 l 1
 59 423 l 1
 35 480 l 1
 45 505 l 1
 32 533 29 563 33 591 c 0
 43 657 103 739 226 732 c 0
 230 732 233 731 237 731 c 0
 419 711 431 518 391 379 c 0
 356 259 303 144 233 40 c 1
 278 21 l 1
 302 -36 l 1
EndSplineSet
EndChar

StartChar: y.1
Encoding: 65578 -1 173
Width: 466
VWidth: 0
Flags: W
HStem: 530 20G<62.5 158.333 303.565 403.565>
LayerCount: 2
Fore
SplineSet
389 -12 m 1
 365 -69 l 1
 308 -93 l 1
 250 -69 l 1
 227 -12 l 1
 248 40 l 1
 212 238 l 1
 111 387 l 1
 110 387 l 1
 53 411 l 1
 29 468 l 1
 53 526 l 1
 110 550 l 1
 168 526 l 1
 192 468 l 1
 182 443 l 1
 257 331 l 1
 284 376 l 1
 272 404 l 1
 296 462 l 1
 354 485 l 1
 411 462 l 1
 435 404 l 1
 411 347 l 1
 361 326 l 1
 311 242 l 1
 346 53 l 1
 365 45 l 1
 389 -12 l 1
EndSplineSet
EndChar

StartChar: Z.1
Encoding: 65579 -1 174
Width: 428
VWidth: 0
Flags: W
LayerCount: 2
Fore
SplineSet
397 49 m 1
 373 -8 l 1
 315 -32 l 1
 258 -8 l 1
 249 13 l 1
 138 6 l 1
 126 6 l 1
 99 8 79 24 83 41 c 2
 233 706 l 1
 190 689 l 1
 168 636 l 1
 110 612 l 1
 53 636 l 1
 29 693 l 1
 53 751 l 1
 110 775 l 1
 164 753 l 1
 270 795 l 2
 293 804 324 800 339 786 c 0
 346 779 348 768 347 764 c 2
 191 72 l 1
 245 76 l 1
 258 107 l 1
 315 130 l 1
 373 107 l 1
 397 49 l 1
EndSplineSet
EndChar

StartChar: U.1
Encoding: 65580 -1 175
Width: 452
VWidth: 0
Flags: W
HStem: 777 20G<62.5 158.333 292.5 387.5>
VStem: 54 100<83.44 655> 276 100<49.5798 402.923> 289 100<364.538 642>
LayerCount: 2
Fore
SplineSet
421 703 m 1xd0
 397 646 l 1
 389 642 l 1xd0
 376 124 l 2
 374 59 347 -43 231 -41 c 0
 218 -41 205 -39 194 -36 c 0
 78 -4 53 102 54 187 c 2
 59 655 l 1
 53 658 l 1
 29 716 l 1
 53 773 l 1
 110 797 l 1
 168 773 l 1
 192 716 l 1
 168 658 l 1
 159 655 l 1
 154 186 l 2
 153 103 192 35 233 22 c 1
 249 31 275 74 276 125 c 2xe0
 289 644 l 1
 283 646 l 1
 259 703 l 1
 283 761 l 1
 340 785 l 1
 397 761 l 1
 421 703 l 1xd0
EndSplineSet
EndChar

StartChar: u.1
Encoding: 65581 -1 176
Width: 435
VWidth: 0
Flags: W
HStem: -11 63<159.016 273.554> 558 20G<62.5 158.333 272.565 372.565>
VStem: 52 100<61.5276 429.619> 59 100<92 435> 276 100<53.2632 380>
LayerCount: 2
Fore
SplineSet
404 441 m 1xe8
 380 384 l 1
 373 381 l 1
 376 77 l 2
 377 16 298 -11 233 -11 c 0
 226 -11 219 -10 212 -10 c 0
 146 -6 51 20 52 92 c 2xe8
 59 437 l 1
 53 439 l 1
 29 497 l 1
 53 554 l 1
 110 578 l 1
 168 554 l 1
 192 497 l 1
 168 439 l 1
 159 435 l 1xd8
 157 322 152 92 152 91 c 0
 151 64 176 55 223 52 c 1
 233 52 l 2
 264 52 276 56 276 76 c 2
 273 380 l 1
 265 384 l 1
 241 441 l 1
 265 499 l 1
 323 522 l 1
 380 499 l 1
 404 441 l 1xe8
EndSplineSet
EndChar

StartChar: b.1
Encoding: 65582 -1 177
Width: 431
VWidth: 0
Flags: W
VStem: 63 100<52 197>
LayerCount: 2
Fore
SplineSet
56 205 m 0
 40 219 44 239 66 249 c 0
 72 252 l 1
 76 340 l 1
 71 342 l 1
 48 400 l 1
 71 457 l 1
 129 481 l 1
 186 457 l 1
 209 402 l 1
 337 347 l 2
 341 345 346 343 349 340 c 0
 365 326 360 306 338 296 c 2
 261 261 l 1
 343 231 395 159 400 81 c 0
 405 4 356 -61 276 -85 c 0
 230 -99 182 -96 140 -79 c 1
 110 -91 l 1
 53 -67 l 1
 29 -10 l 1
 53 48 l 1
 63 52 l 1
 70 197 l 1
 65 199 60 202 56 205 c 0
170 212 m 1
 163 50 l 1
 168 48 l 1
 192 -10 l 1
 186 -24 l 1
 204 -34 221 -32 233 -28 c 0
 262 -19 304 17 300 79 c 0
 294 172 218 213 174 212 c 0
 173 212 171 212 170 212 c 1
174 299 m 1
 222 321 l 1
 180 339 l 1
 176 338 l 1
 174 299 l 1
EndSplineSet
EndChar

StartChar: J.1
Encoding: 65583 -1 178
Width: 402
VWidth: 0
Flags: W
VStem: 242 100<527.167 783> 264 102<-22 158.833>
LayerCount: 2
Fore
SplineSet
371 845 m 1x80
 347 787 l 1
 342 785 l 1x80
 366 -99 l 2
 366 -116 344 -131 317 -131 c 0
 303 -131 287 -126 280 -122 c 2
 145 -35 l 1
 110 -49 l 1
 53 -26 l 1
 29 32 l 1
 53 89 l 1
 110 113 l 1
 168 89 l 1
 192 32 l 1
 190 26 l 1
 264 -22 l 1x40
 242 783 l 1
 232 787 l 1
 208 845 l 1
 232 902 l 1
 290 926 l 1
 347 902 l 1
 371 845 l 1x80
EndSplineSet
EndChar

StartChar: one.1
Encoding: 65584 -1 179
Width: 310
VWidth: 0
Flags: W
HStem: -21 21G<151.5 246.5>
VStem: 144 97<120 435> 148 100<120 435>
LayerCount: 2
Fore
SplineSet
280 60 m 1xa0
 256 3 l 1
 199 -21 l 1
 142 3 l 1
 118 60 l 1
 142 117 l 1
 148 120 l 1xa0
 144 435 l 1
 111 422 l 1
 54 446 l 1
 30 503 l 1
 54 561 l 1
 101 580 l 1
 143 655 l 2
 152 671 181 680 207 674 c 0
 228 669 241 657 241 645 c 2xc0
 248 120 l 1
 256 117 l 1
 280 60 l 1xa0
EndSplineSet
EndChar

StartChar: g.1
Encoding: 65585 -1 180
Width: 470
VWidth: 0
Flags: W
HStem: 136 62<283 311> 402 62<202.214 286.248>
VStem: 30 100<101.693 310.839>
LayerCount: 2
Fore
SplineSet
422 0 m 1
 399 -57 l 1
 341 -81 l 1
 284 -57 l 1
 277 -40 l 1
 270 -41 264 -42 263 -42 c 0
 133 -58 68 35 44 113 c 0
 35 142 30 175 30 207 c 0
 30 320 86 464 244 464 c 0
 295 464 334 447 362 423 c 1
 415 401 l 1
 439 343 l 1
 415 286 l 1
 358 262 l 1
 300 286 l 1
 276 343 l 1
 290 376 l 1
 277 392 260 400 251 401 c 0
 248 401 246 402 244 402 c 0
 205 402 130 329 130 207 c 0
 130 178 135 149 143 123 c 0
 169 41 220 17 244 20 c 2
 270 23 l 1
 284 57 l 1
 300 64 l 1
 311 135 l 1
 282 136 l 1
 272 111 l 1
 214 88 l 1
 157 111 l 1
 133 169 l 1
 157 226 l 1
 214 250 l 1
 272 226 l 1
 283 198 l 1
 368 195 l 2
 397 194 418 177 416 161 c 2
 400 55 l 1
 422 0 l 1
EndSplineSet
EndChar

StartChar: OE.1
Encoding: 65586 -1 181
Width: 591
VWidth: 0
Flags: W
HStem: 745 20G<241.5 337.333>
VStem: 240 101<348 609> 248 98<141 275 348 550.5>
LayerCount: 2
Fore
SplineSet
533 272 m 1xc0
 509 214 l 1
 452 191 l 1
 394 214 l 1
 373 265 l 1
 346 275 l 1xa0
 349 114 l 1
 421 88 l 1
 422 90 l 1
 479 113 l 1
 536 90 l 1
 560 32 l 1
 536 -25 l 1
 479 -49 l 1
 422 -25 l 1
 401 24 l 1
 285 65 l 1
 139 72 60 184 38 290 c 0
 6 441 70 597 209 682 c 1
 208 684 l 1
 232 741 l 1
 289 765 l 1
 347 741 l 1
 349 737 l 1
 368 743 l 1
 387 789 l 1
 445 813 l 1
 502 789 l 1
 526 732 l 1
 502 675 l 1
 445 651 l 1
 387 675 l 1
 386 678 l 1
 366 672 l 1
 347 626 l 1
 341 623 l 1
 345 348 l 1
 394 329 l 1
 452 353 l 1
 509 329 l 1
 533 272 l 1xc0
248 141 m 1
 240 609 l 1xc0
 158 537 111 419 137 299 c 0
 154 220 201 165 248 141 c 1
EndSplineSet
EndChar

StartChar: period.1
Encoding: 65587 -1 182
Width: 237
VWidth: 0
Flags: W
HStem: -114 163
VStem: 37 163
LayerCount: 2
Fore
SplineSet
200 -33 m 1
 176 -90 l 1
 118 -114 l 1
 61 -90 l 1
 37 -33 l 1
 61 25 l 1
 118 49 l 1
 176 25 l 1
 200 -33 l 1
EndSplineSet
EndChar

StartChar: colon.1
Encoding: 65588 -1 183
Width: 287
VWidth: 0
Flags: W
VStem: 35 218
LayerCount: 2
Fore
SplineSet
198 291 m 1
 174 233 l 1
 116 210 l 1
 59 233 l 1
 35 291 l 1
 59 348 l 1
 116 372 l 1
 174 348 l 1
 198 291 l 1
253 -6 m 1
 230 -63 l 1
 172 -87 l 1
 115 -63 l 1
 91 -6 l 1
 115 52 l 1
 172 76 l 1
 230 52 l 1
 253 -6 l 1
EndSplineSet
EndChar

StartChar: macron.1
Encoding: 65589 -1 184
Width: 421
VWidth: 0
Flags: W
HStem: 441 221 500 21G<259.5 355.333>
LayerCount: 2
Fore
SplineSet
388 581 m 1x80
 365 524 l 1
 307 500 l 1x40
 250 524 l 1
 248 529 l 1
 191 512 l 1
 171 465 l 1
 113 441 l 1
 56 465 l 1
 32 522 l 1
 56 580 l 1
 113 604 l 1
 171 580 l 1
 173 575 l 1
 231 592 l 1
 250 639 l 1
 307 662 l 1
 365 639 l 1
 388 581 l 1x80
EndSplineSet
EndChar

StartChar: Y.1
Encoding: 65590 -1 185
Width: 503
VWidth: 0
Flags: W
HStem: 770 20G<62.5 158.333>
VStem: 169 100<39 349>
LayerCount: 2
Fore
SplineSet
299 -21 m 1
 276 -79 l 1
 218 -103 l 1
 161 -79 l 1
 137 -21 l 1
 161 36 l 1
 169 39 l 1
 176 349 l 1
 82 639 l 1
 53 651 l 1
 29 709 l 1
 53 766 l 1
 110 790 l 1
 168 766 l 1
 192 709 l 1
 175 667 l 1
 226 510 l 1
 327 828 l 1
 310 870 l 1
 333 927 l 1
 391 951 l 1
 448 927 l 1
 472 870 l 1
 448 812 l 1
 420 801 l 1
 276 349 l 1
 269 39 l 1
 276 36 l 1
 299 -21 l 1
EndSplineSet
EndChar

StartChar: Sigma.1
Encoding: 65591 -1 186
Width: 508
VWidth: 0
Flags: W
HStem: 648 62<141 327> 653 65<141 297.375>
LayerCount: 2
Fore
SplineSet
475 -14 m 1x40
 451 -71 l 1
 394 -95 l 1
 336 -71 l 1
 324 -42 l 1
 123 -31 l 2
 100 -30 73 -15 78 5 c 2
 170 354 l 1
 109 455 62 567 32 682 c 1
 32 682 31 686 31 688 c 0
 32 705 56 719 83 718 c 2x40
 328 710 l 1
 338 735 l 1
 396 758 l 1
 453 735 l 1
 477 677 l 1
 453 620 l 1
 396 596 l 1
 338 620 l 1
 327 648 l 1x80
 141 653 l 1
 171 552 213 458 268 369 c 0
 271 364 272 358 271 353 c 2
 185 29 l 1
 327 21 l 1
 336 44 l 1
 394 67 l 1
 451 44 l 1
 475 -14 l 1x40
EndSplineSet
EndChar

StartChar: p.1
Encoding: 65592 -1 187
Width: 485
VWidth: 0
Flags: W
HStem: 530 20G<142.5 162.5>
VStem: 95 101<277 440.2> 105 97<333.8 445>
LayerCount: 2
Fore
SplineSet
196 277 m 1xc0
 334 362 l 1
 202 445 l 1xa0
 196 277 l 1xc0
220 51 m 1
 196 -7 l 1
 138 -31 l 1
 81 -7 l 1
 57 51 l 1
 81 108 l 1
 82 109 l 1
 53 121 l 1
 29 179 l 1
 53 236 l 1
 95 254 l 1xc0
 105 520 l 2xa0
 106 537 129 550 156 550 c 0
 169 550 182 546 190 541 c 2
 440 384 l 2
 460 371 458 351 440 340 c 2
 193 186 l 1
 190 110 l 1
 196 108 l 1xc0
 220 51 l 1
EndSplineSet
EndChar

StartChar: five.1
Encoding: 65593 -1 188
Width: 386
VWidth: 0
Flags: W
HStem: -27 63<165.253 223.656> 573 21G<203.667 299.5>
VStem: 29 324
LayerCount: 2
Fore
SplineSet
192 144 m 1
 168 87 l 1
 153 81 l 1
 161 56 181 38 191 36 c 1
 196 36 l 1
 217 37 267 87 253 184 c 0
 250 202 245 221 238 239 c 0
 201 336 136 418 54 474 c 0
 45 480 38 491 41 501 c 2
 96 682 l 2
 100 695 128 713 161 706 c 2
 189 700 l 1
 194 712 l 1
 252 736 l 1
 309 712 l 1
 333 655 l 1
 309 597 l 1
 252 573 l 1
 194 597 l 1
 181 627 l 1
 144 504 l 1
 232 439 298 353 336 254 c 0
 344 233 350 211 353 190 c 0
 366 101 343 -18 205 -27 c 0
 190 -28 174 -27 160 -24 c 0
 85 -8 49 44 49 97 c 1
 29 144 l 1
 53 202 l 1
 110 225 l 1
 168 202 l 1
 192 144 l 1
EndSplineSet
EndChar

StartChar: oslash.1
Encoding: 65594 -1 189
Width: 478
VWidth: 0
Flags: W
HStem: 521 20G<238.667 334.5>
VStem: 345 100<101.04 283.765>
LayerCount: 2
Fore
SplineSet
212 51 m 1
 234 35 250 34 266 38 c 0
 306 48 345 119 345 210 c 0
 345 235 343 261 340 286 c 1
 212 51 l 1
192 -40 m 1
 168 -97 l 1
 110 -121 l 1
 53 -97 l 1
 29 -40 l 1
 53 18 l 1
 99 37 l 1
 102 43 l 1
 56 96 36 182 60 268 c 0
 82 346 132 414 206 459 c 1
 206 460 l 1
 229 517 l 1
 287 541 l 1
 344 517 l 1
 368 460 l 1
 365 452 l 1
 387 451 406 442 410 428 c 0
 433 358 445 284 445 210 c 0
 445 123 425 10 302 -20 c 0
 260 -31 217 -26 181 -13 c 1
 192 -40 l 1
285 379 m 1
 247 394 l 1
 206 360 174 313 159 257 c 0
 148 217 147 177 156 142 c 1
 285 379 l 1
EndSplineSet
EndChar

StartChar: equal.1
Encoding: 65595 -1 190
Width: 426
VWidth: 0
Flags: W
HStem: 434 62<183 219> 522 20G<64.5 160.333 241.667 337.5>
LayerCount: 2
Fore
SplineSet
395 241 m 1
 371 184 l 1
 314 160 l 1
 256 184 l 1
 247 205 l 1
 197 202 l 1
 184 171 l 1
 127 147 l 1
 69 171 l 1
 46 228 l 1
 69 286 l 1
 127 310 l 1
 184 286 l 1
 193 264 l 1
 243 267 l 1
 256 298 l 1
 314 322 l 1
 371 298 l 1
 395 241 l 1
371 471 m 1
 347 414 l 1
 290 390 l 1
 232 414 l 1
 223 436 l 1
 183 434 l 1
 170 403 l 1
 112 379 l 1
 55 403 l 1
 31 461 l 1
 55 518 l 1
 112 542 l 1
 170 518 l 1
 179 496 l 1
 219 498 l 1
 232 528 l 1
 290 552 l 1
 347 528 l 1
 371 471 l 1
EndSplineSet
EndChar

StartChar: o.1
Encoding: 65596 -1 191
Width: 435
VWidth: 0
Flags: W
HStem: -0 62<181.258 257.074>
LayerCount: 2
Fore
SplineSet
273 400 m 1
 351 359 395 285 401 206 c 0
 407 115 355 3 222 -0 c 0
 210 0 199 0 187 2 c 0
 63 22 36 131 31 211 c 0
 27 278 41 374 120 411 c 1
 137 452 l 1
 194 476 l 1
 252 452 l 1
 273 400 l 1
156 329 m 1
 140 302 128 260 131 213 c 0
 136 127 180 68 211 63 c 0
 214 63 217 62 219 62 c 0
 243 63 307 112 301 203 c 0
 298 256 272 301 238 331 c 1
 194 313 l 1
 156 329 l 1
EndSplineSet
EndChar

StartChar: braceright.1
Encoding: 65597 -1 192
Width: 379
VWidth: 0
Flags: W
VStem: 216 100<75.8353 215.53>
LayerCount: 2
Fore
SplineSet
350 332 m 1
 326 275 l 1
 276 254 l 1
 305 222 316 184 316 147 c 0
 316 87 283 11 197 -17 c 1
 181 -55 l 1
 124 -78 l 1
 66 -55 l 1
 42 3 l 1
 66 60 l 1
 124 84 l 1
 181 60 l 1
 201 80 216 109 216 147 c 0
 216 197 187 239 146 253 c 0
 141 255 136 257 132 260 c 0
 114 273 116 293 137 304 c 2
 188 330 l 1
 187 332 l 1
 193 346 l 1
 122 412 l 2
 109 424 111 445 135 455 c 0
 199 483 212 577 167 628 c 1
 110 606 l 1
 53 629 l 1
 29 687 l 1
 53 744 l 1
 110 768 l 1
 168 744 l 1
 184 705 l 1
 192 702 200 699 207 695 c 0
 315 638 329 498 229 425 c 1
 249 406 l 1
 268 414 l 1
 326 390 l 1
 350 332 l 1
EndSplineSet
EndChar

StartChar: quotesingle.1
Encoding: 65598 -1 193
Width: 259
VWidth: 0
Flags: W
HStem: 761 20G<64.5 160.333>
VStem: 31 197
LayerCount: 2
Fore
SplineSet
228 499 m 1
 204 441 l 1
 147 418 l 1
 90 441 l 1
 66 499 l 1
 90 556 l 1
 116 567 l 1
 117 585 115 602 110 619 c 1
 55 642 l 1
 31 699 l 1
 55 757 l 1
 112 781 l 1
 170 757 l 1
 194 699 l 1
 186 679 l 1
 214 637 224 586 212 536 c 1
 228 499 l 1
EndSplineSet
EndChar

StartChar: E.1
Encoding: 65599 -1 194
Width: 487
VWidth: 0
Flags: W
HStem: 511 20G<62.5 122>
VStem: 121 100<53 373 526 713>
LayerCount: 2
Fore
SplineSet
431 386 m 1
 407 329 l 1
 349 305 l 1
 292 329 l 1
 274 373 l 1
 221 387 l 1
 218 53 l 1
 311 36 l 1
 317 50 l 1
 375 73 l 1
 432 50 l 1
 456 -8 l 1
 432 -65 l 1
 375 -89 l 1
 317 -65 l 1
 302 -27 l 1
 154 -1 l 2
 133 3 118 15 118 29 c 2
 121 373 l 1
 110 369 l 1
 53 392 l 1
 29 450 l 1
 53 507 l 1
 110 531 l 1
 122 526 l 1
 124 737 l 2
 124 751 140 763 160 767 c 2
 270 787 l 1
 286 825 l 1
 343 849 l 1
 401 825 l 1
 425 768 l 1
 401 710 l 1
 343 687 l 1
 286 710 l 1
 280 724 l 1
 223 713 l 1
 221 455 l 1
 289 436 l 1
 292 444 l 1
 349 468 l 1
 407 444 l 1
 431 386 l 1
EndSplineSet
EndChar

StartChar: Upsilon.1
Encoding: 65600 -1 195
Width: 629
VWidth: 0
Flags: W
HStem: -66 21G<244.565 344.565> 781 20G<133 232>
VStem: 248 100<77 224.538> 261 100<203.462 470.729>
LayerCount: 2
Fore
SplineSet
376 15 m 1xe0
 352 -43 l 1
 295 -66 l 1
 237 -43 l 1
 213 15 l 1
 237 72 l 1
 248 77 l 1xe0
 261 351 l 2
 262 379 262 450 258 521 c 1
 247 494 l 1
 189 470 l 1
 132 494 l 1
 116 533 l 1
 83 545 59 564 47 585 c 0
 1 665 66 801 200 801 c 1
 264 799 302 764 329 717 c 0
 335 706 341 689 345 670 c 1
 354 686 365 700 378 710 c 0
 409 733 449 752 497 745 c 0
 511 743 524 738 534 733 c 0
 612 692 617 580 553 532 c 0
 542 524 527 516 507 512 c 0
 501 511 494 510 488 510 c 1
 484 500 l 1
 426 476 l 1
 388 492 l 1
 374 435 363 379 361 353 c 0
 361 351 361 350 361 348 c 0xd0
 361 344 353 170 348 74 c 1
 352 72 l 1
 376 15 l 1xe0
490 601 m 1
 495 629 490 667 474 682 c 1
 470 680 463 677 455 671 c 0
 452 669 444 655 435 635 c 1
 484 615 l 1
 490 601 l 1
253 593 m 1
 249 642 243 682 235 696 c 0
 217 727 199 737 195 738 c 1
 170 731 118 659 138 612 c 1
 189 633 l 1
 247 609 l 1
 253 593 l 1
EndSplineSet
EndChar

StartChar: at.1
Encoding: 65601 -1 196
Width: 637
VWidth: 0
Flags: W
HStem: -21 21G<405 488.5>
LayerCount: 2
Fore
SplineSet
147 365 m 1
 172 491 l 2
 175 508 200 520 227 518 c 0
 249 516 266 505 270 495 c 2
 379 226 l 1
 415 211 l 1
 438 153 l 1
 423 117 l 1
 447 59 l 1
 510 127 517 316 493 436 c 0
 461 599 375 680 289 673 c 0
 286 673 284 672 281 672 c 0
 184 659 92 518 147 365 c 1
225 248 m 1
 230 244 235 240 240 236 c 0
 254 225 268 216 283 209 c 1
 239 318 l 1
 225 248 l 1
214 33 m 1
 190 -25 l 1
 133 -49 l 1
 75 -25 l 1
 51 33 l 1
 75 90 l 1
 95 98 l 1
 121 234 l 1
 93 262 73 297 56 335 c 0
 -12 496 52 700 252 732 c 0
 260 733 268 734 276 735 c 0
 475 750 562 595 592 443 c 0
 607 368 609 285 600 202 c 0
 590 114 562 -21 415 -21 c 0
 395 -21 373 -11 367 3 c 2
 335 81 l 1
 300 96 l 1
 284 135 l 1
 257 143 232 153 209 166 c 1
 193 83 l 1
 214 33 l 1
EndSplineSet
EndChar

StartChar: zero.1
Encoding: 65602 -1 197
Width: 412
VWidth: 0
Flags: W
HStem: -41 62<167.58 244.489>
LayerCount: 2
Fore
SplineSet
197 431 m 1
 192 416 186 401 180 387 c 0
 145 301 127 212 131 142 c 0
 136 48 178 20 206 21 c 0
 210 21 213 21 216 22 c 0
 277 34 310 194 220 380 c 0
 212 397 204 414 197 431 c 1
127 561 m 0
 130 583 131 604 131 625 c 1
 118 630 l 1
 94 687 l 1
 118 745 l 1
 175 768 l 1
 233 745 l 1
 256 687 l 1
 235 636 l 1
 254 549 279 471 315 398 c 0
 397 229 433 -2 245 -38 c 0
 234 -40 221 -41 209 -41 c 0
 72 -44 36 54 31 140 c 0
 27 218 46 312 84 403 c 0
 105 454 120 507 127 561 c 0
EndSplineSet
EndChar

StartChar: O.1
Encoding: 65603 -1 198
Width: 468
VWidth: 0
Flags: W
HStem: -144 63<166.69 276.251>
VStem: 54 100<169.116 680.48>
LayerCount: 2
Fore
SplineSet
132 766 m 1
 148 806 l 1
 206 830 l 1
 263 806 l 1
 287 748 l 1
 267 699 l 1
 295 581 332 466 379 354 c 0
 468 142 476 -144 222 -144 c 1
 35 -140 25 -3 31 114 c 0
 36 216 57 334 54 434 c 0
 51 537 17 715 132 766 c 1
170 682 m 1
 167 683 l 1
 145 630 151 528 154 435 c 0
 157 329 136 210 131 112 c 0
 124 -23 155 -80 225 -81 c 0
 231 -81 235 -81 240 -80 c 0
 322 -67 372 122 282 338 c 0
 236 449 198 565 170 682 c 1
EndSplineSet
EndChar

StartChar: V.1
Encoding: 65604 -1 199
Width: 492
VWidth: 0
Flags: W
LayerCount: 2
Fore
SplineSet
461 622 m 1
 437 564 l 1
 419 556 l 1
 316 2 l 2
 313 -12 295 -24 272 -26 c 0
 245 -28 219 -15 216 2 c 2
 72 799 l 1
 53 807 l 1
 29 865 l 1
 53 922 l 1
 110 946 l 1
 168 922 l 1
 192 865 l 1
 170 812 l 1
 267 280 l 1
 320 571 l 1
 299 622 l 1
 323 679 l 1
 380 703 l 1
 437 679 l 1
 461 622 l 1
EndSplineSet
EndChar

StartChar: eight.1
Encoding: 65605 -1 200
Width: 381
VWidth: 0
Flags: W
LayerCount: 2
Fore
SplineSet
215 498 m 1
 223 513 229 528 231 544 c 0
 235 574 226 604 212 626 c 1
 182 614 l 1
 173 617 l 1
 173 574 201 523 215 498 c 1
200 335 m 1
 168 293 144 248 134 199 c 0
 116 107 176 52 192 51 c 1
 196 51 l 1
 224 54 270 133 237 241 c 0
 227 273 214 304 200 335 c 1
102 698 m 1
 125 752 l 1
 182 776 l 1
 240 752 l 1
 264 695 l 1
 264 694 l 1
 317 656 339 596 331 539 c 0
 325 497 303 462 279 431 c 1
 265 414 l 1
 274 397 l 2
 299 351 319 302 335 252 c 0
 365 155 364 8 214 -10 c 1
 60 -24 14 108 34 207 c 0
 49 284 96 346 143 403 c 1
 156 418 l 1
 146 434 l 2
 124 471 101 509 85 552 c 0
 70 594 62 660 102 698 c 1
EndSplineSet
EndChar

StartChar: H.1
Encoding: 65606 -1 201
Width: 560
VWidth: 0
Flags: W
VStem: 385 100<69 330.907 450.672 612>
LayerCount: 2
Fore
SplineSet
529 676 m 1
 505 618 l 1
 490 612 l 1
 483 546 479 480 478 414 c 0
 476 299 479 184 485 69 c 1
 496 64 l 1
 519 6 l 1
 496 -51 l 1
 438 -75 l 1
 381 -51 l 1
 357 6 l 1
 381 64 l 1
 385 66 l 1
 380 173 377 279 378 386 c 1
 257 393 l 1
 248 371 l 1
 190 347 l 1
 183 350 l 1
 164 69 l 1
 168 67 l 1
 192 9 l 1
 168 -48 l 1
 110 -72 l 1
 53 -48 l 1
 29 9 l 1
 53 67 l 1
 64 72 l 1
 101 632 l 1
 98 633 l 1
 74 691 l 1
 98 748 l 1
 155 772 l 1
 213 748 l 1
 236 691 l 1
 213 633 l 1
 201 628 l 1
 193 508 l 1
 248 485 l 1
 261 455 l 1
 379 448 l 1
 381 505 385 562 391 619 c 1
 367 676 l 1
 391 733 l 1
 448 757 l 1
 505 733 l 1
 529 676 l 1
EndSplineSet
EndChar

StartChar: exclamdown.1
Encoding: 65607 -1 202
Width: 250
VWidth: 0
Flags: W
HStem: 511 20G<62.5 158.333> 529 21G<90.5 186.333>
VStem: 62 100<77.8889 389> 71 100<-11 299.889>
LayerCount: 2
Fore
SplineSet
192 450 m 1xa0
 168 392 l 1
 162 389 l 1xa0
 171 -11 l 1
 180 -15 l 1
 204 -73 l 1
 180 -130 l 1
 123 -154 l 1
 65 -130 l 1
 42 -73 l 1
 65 -15 l 1
 71 -12 l 1x90
 62 389 l 1
 53 392 l 1
 29 450 l 1
 53 507 l 1
 110 531 l 1
 168 507 l 1
 192 450 l 1xa0
220 611 m 1
 196 553 l 1
 138 529 l 1x40
 81 553 l 1
 57 611 l 1
 81 668 l 1
 138 692 l 1
 196 668 l 1
 220 611 l 1
EndSplineSet
EndChar

StartChar: grave.1
Encoding: 65608 -1 203
Width: 309
VWidth: 0
Flags: W
HStem: 442 331
VStem: 32 245
LayerCount: 2
Fore
SplineSet
277 523 m 1
 253 466 l 1
 195 442 l 1
 138 466 l 1
 114 523 l 1
 128 556 l 1
 97 618 l 1
 56 635 l 1
 32 692 l 1
 56 750 l 1
 113 773 l 1
 171 750 l 1
 195 692 l 1
 181 659 l 1
 211 598 l 1
 253 581 l 1
 277 523 l 1
EndSplineSet
EndChar

StartChar: AE.1
Encoding: 65609 -1 204
Width: 545
VWidth: 0
Flags: W
HStem: 582 21G<360 426.565>
LayerCount: 2
Fore
SplineSet
514 36 m 1
 490 -22 l 1
 433 -46 l 1
 375 -22 l 1
 362 11 l 1
 208 24 l 2
 202 24 196 25 191 27 c 1
 168 -29 l 1
 110 -52 l 1
 53 -29 l 1
 29 29 l 1
 53 86 l 1
 81 98 l 1
 126 241 l 1
 121 243 l 1
 97 301 l 1
 121 358 l 1
 169 378 l 1
 276 716 l 1
 259 758 l 1
 282 815 l 1
 340 839 l 1
 397 815 l 1
 421 758 l 1
 410 730 l 1
 434 720 l 1
 458 663 l 1
 434 605 l 1
 377 582 l 1
 360 589 l 1
 307 292 l 1
 344 279 l 1
 345 281 l 1
 402 305 l 1
 460 281 l 1
 483 224 l 1
 460 166 l 1
 402 142 l 1
 345 166 l 1
 325 214 l 1
 295 224 l 1
 270 82 l 1
 367 73 l 1
 375 93 l 1
 433 117 l 1
 490 93 l 1
 514 36 l 1
EndSplineSet
EndChar

StartChar: W.1
Encoding: 65610 -1 205
Width: 608
VWidth: 0
Flags: W
VStem: 173 99<-102.097 -36.8667> 208 100<554.131 605.938>
LayerCount: 2
Fore
SplineSet
577 778 m 1x40
 553 721 l 1
 535 713 l 1
 426 56 l 2
 421 18 335 21 327 55 c 2
 289 223 l 1
 272 -87 l 2
 270 -126 177 -125 173 -89 c 2x80
 68 693 l 1
 53 699 l 1
 29 756 l 1
 53 814 l 1
 110 838 l 1
 168 814 l 1
 192 756 l 1
 168 699 l 1
 201 450 l 1
 208 581 l 2
 209 598 233 613 260 612 c 0
 285 611 305 599 308 585 c 2
 369 316 l 1
 437 724 l 1
 414 778 l 1
 438 835 l 1
 496 859 l 1
 553 835 l 1
 577 778 l 1x40
EndSplineSet
EndChar

StartChar: R.1
Encoding: 65611 -1 206
Width: 572
VWidth: 0
Flags: W
HStem: 687 63<227.216 360.668>
VStem: 436 100<434.538 609.375>
LayerCount: 2
Fore
SplineSet
177 344 m 1
 238 313 300 320 356 363 c 0
 400 397 434 453 436 522 c 0
 439 634 350 686 295 687 c 0
 274 687 248 681 221 661 c 1
 227 646 l 1
 203 588 l 1
 192 584 l 1
 177 344 l 1
541 4 m 1
 518 -54 l 1
 460 -77 l 1
 403 -54 l 1
 379 4 l 1
 385 19 l 1
 171 232 l 1
 164 125 l 1
 168 123 l 1
 192 66 l 1
 168 8 l 1
 110 -16 l 1
 53 8 l 1
 29 66 l 1
 53 123 l 1
 64 128 l 1
 92 587 l 1
 89 588 l 1
 65 646 l 1
 89 703 l 1
 146 727 l 1
 169 717 l 1
 206 738 250 750 296 750 c 0
 439 749 540 646 536 521 c 0
 532 383 419 267 258 263 c 1
 444 78 l 1
 460 85 l 1
 518 61 l 1
 541 4 l 1
EndSplineSet
EndChar

StartChar: l.1
Encoding: 65612 -1 207
Width: 432
VWidth: 0
Flags: W
HStem: 463 20G<78.5 174.333>
LayerCount: 2
Fore
SplineSet
401 53 m 1
 377 -4 l 1
 320 -28 l 1
 262 -4 l 1
 260 1 l 1
 100 -45 l 2
 94 -47 83 -47 75 -47 c 0
 48 -46 27 -31 29 -14 c 2
 70 344 l 1
 69 344 l 1
 45 402 l 1
 69 459 l 1
 126 483 l 1
 184 459 l 1
 208 402 l 1
 184 344 l 1
 169 338 l 1
 135 34 l 1
 244 66 l 1
 262 111 l 1
 320 135 l 1
 377 111 l 1
 401 53 l 1
EndSplineSet
EndChar

StartChar: w.1
Encoding: 65613 -1 208
Width: 582
VWidth: 0
Flags: W
HStem: 511 20G<62.5 158.333 421.667 517.5>
VStem: 177 99<-9.19336 28.6> 235 99<337.833 382.058>
LayerCount: 2
Fore
SplineSet
551 434 m 1xa0
 527 376 l 1
 507 368 l 1
 434 5 l 1
 426 -30 346 -30 336 3 c 2
 298 135 l 1
 276 4 l 2
 271 -33 185 -32 177 2 c 2xc0
 77 382 l 1
 53 392 l 1
 29 449 l 1
 53 507 l 1
 110 531 l 1
 168 507 l 1
 192 449 l 1
 173 404 l 1
 215 242 l 1
 235 360 l 2
 238 377 263 390 290 388 c 0
 313 386 331 373 334 362 c 2
 376 217 l 1
 409 383 l 1
 388 434 l 1
 412 491 l 1
 470 515 l 1
 527 491 l 1
 551 434 l 1xa0
EndSplineSet
EndChar

StartChar: d.1
Encoding: 65614 -1 209
Width: 528
VWidth: 0
Flags: W
HStem: 516 20G<127.667 209>
LayerCount: 2
Fore
SplineSet
257 454 m 1
 233 397 l 1
 216 390 l 1
 169 108 l 1
 176 91 l 1
 276 114 373 200 394 330 c 0
 406 405 358 457 317 471 c 0
 298 477 276 480 252 466 c 1
 257 454 l 1
209 522 m 1
 258 541 315 544 366 526 c 0
 456 495 509 416 494 324 c 0
 470 177 351 51 181 27 c 1
 168 -4 l 1
 110 -27 l 1
 53 -4 l 1
 29 54 l 1
 53 111 l 1
 71 119 l 1
 117 400 l 1
 95 454 l 1
 118 512 l 1
 176 536 l 1
 209 522 l 1
EndSplineSet
EndChar

StartChar: six.1
Encoding: 65615 -1 210
Width: 404
VWidth: 0
Flags: W
HStem: 780 20G<169.667 265.5>
VStem: 73 100<49.5925 148>
LayerCount: 2
Fore
SplineSet
216 443 m 1
 233 440 249 432 254 422 c 2
 335 257 l 2
 387 149 409 -12 260 -40 c 0
 255 -41 249 -42 243 -43 c 0
 131 -53 93 26 80 83 c 0
 75 103 73 125 73 148 c 1
 53 156 l 1
 29 214 l 1
 53 271 l 1
 89 286 l 1
 101 359 l 2
 119 462 137 565 157 668 c 1
 137 719 l 1
 160 776 l 1
 218 800 l 1
 275 776 l 1
 299 719 l 1
 275 661 l 1
 256 653 l 1
 242 583 228 513 216 443 c 1
182 239 m 1
 192 214 l 1
 173 168 l 1
 172 141 174 115 179 92 c 0
 194 27 227 19 229 19 c 0
 230 19 230 20 231 20 c 0
 258 25 297 120 239 239 c 2
 207 305 l 1
 185 262 l 1
 182 239 l 1
EndSplineSet
EndChar

StartChar: Theta.1
Encoding: 65616 -1 211
Width: 593
VWidth: 0
Flags: W
HStem: -77 62<230.393 350.571> 160 62<218 369>
LayerCount: 2
Fore
SplineSet
369 222 m 1
 380 248 l 1
 437 271 l 1
 458 262 l 1
 457 311 449 365 431 420 c 0
 399 514 373 558 316 599 c 1
 279 584 l 1
 256 593 l 1
 195 535 171 484 147 375 c 0
 144 360 141 345 139 330 c 0
 136 309 135 289 134 269 c 1
 150 276 l 1
 207 252 l 1
 218 225 l 1
 369 222 l 1
369 160 m 1
 218 163 l 1
 207 137 l 1
 154 116 l 1
 181 38 231 -12 287 -15 c 0
 295 -15 303 -15 310 -14 c 0
 359 -7 406 40 433 111 c 1
 380 133 l 1
 369 160 l 1
202 654 m 1
 198 665 l 1
 221 722 l 1
 279 746 l 1
 336 722 l 1
 360 665 l 1
 359 662 l 1
 451 605 492 545 529 433 c 0
 601 217 555 -47 330 -76 c 0
 313 -78 297 -78 279 -77 c 0
 58 -65 14 156 40 336 c 0
 42 352 44 368 48 384 c 0
 76 511 111 577 202 654 c 1
EndSplineSet
EndChar

StartChar: plus.1
Encoding: 65617 -1 212
Width: 455
VWidth: 0
Flags: W
VStem: 176 100<139 290> 191 100<413 556>
LayerCount: 2
Fore
SplineSet
324 618 m 1x40
 300 560 l 1
 291 556 l 1x40
 286 413 l 1
 344 437 l 1
 401 413 l 1
 425 356 l 1
 401 298 l 1
 344 274 l 1
 286 298 l 1
 282 308 l 1
 276 137 l 1
 282 135 l 1
 306 78 l 1
 282 20 l 1
 224 -4 l 1
 167 20 l 1
 143 78 l 1
 167 135 l 1
 176 139 l 1x80
 181 290 l 1
 169 260 l 1
 111 237 l 1
 54 260 l 1
 30 318 l 1
 54 375 l 1
 111 399 l 1
 169 375 l 1
 175 360 l 1
 184 362 l 1
 191 558 l 1
 186 560 l 1
 162 618 l 1
 186 675 l 1
 243 699 l 1
 300 675 l 1
 324 618 l 1x40
EndSplineSet
EndChar

StartChar: Gamma.1
Encoding: 65618 -1 213
Width: 403
VWidth: 0
Flags: W
VStem: 54 101<128 715> 61 100<128 715>
LayerCount: 2
Fore
SplineSet
372 677 m 1x80
 349 620 l 1
 291 596 l 1
 234 620 l 1
 210 677 l 1
 212 682 l 1
 155 715 l 1x80
 161 128 l 1
 170 124 l 1
 194 67 l 1
 170 9 l 1
 112 -15 l 1
 55 9 l 1
 31 67 l 1
 55 124 l 1
 61 127 l 1x40
 54 788 l 2
 54 805 77 820 104 820 c 0
 117 820 131 816 139 811 c 2
 253 743 l 1
 291 759 l 1
 349 735 l 1
 372 677 l 1x80
EndSplineSet
EndChar

StartChar: quotedblright.1
Encoding: 65619 -1 214
Width: 379
VWidth: 0
Flags: W
VStem: 32 316
LayerCount: 2
Fore
SplineSet
348 669 m 1
 324 612 l 1
 266 588 l 1
 259 591 l 1
 126 428 l 2
 116 415 91 408 69 412 c 0
 43 416 25 433 32 450 c 2
 110 645 l 1
 96 681 l 1
 119 738 l 1
 177 762 l 1
 234 738 l 1
 234 737 l 1
 266 750 l 1
 324 727 l 1
 348 669 l 1
EndSplineSet
EndChar

StartChar: k.1
Encoding: 65620 -1 215
Width: 519
VWidth: 0
Flags: W
HStem: 465 20G<62.5 158.333 317.435 417.435>
VStem: 66 100<65 68 234 343>
LayerCount: 2
Fore
SplineSet
488 33 m 1
 464 -25 l 1
 406 -49 l 1
 349 -25 l 1
 332 15 l 1
 301 27 275 46 256 67 c 0
 243 82 231 98 220 115 c 1
 208 86 l 1
 166 68 l 1
 166 65 l 1
 174 62 l 1
 198 5 l 1
 174 -53 l 1
 117 -77 l 1
 59 -53 l 1
 36 5 l 1
 59 62 l 1
 66 65 l 1
 61 343 l 1
 53 346 l 1
 29 404 l 1
 53 461 l 1
 110 485 l 1
 168 461 l 1
 192 404 l 1
 168 346 l 1
 161 343 l 1
 163 234 l 1
 295 409 l 1
 286 431 l 1
 310 489 l 1
 367 512 l 1
 425 489 l 1
 448 431 l 1
 425 374 l 1
 367 350 l 1
 362 352 l 1
 274 234 l 1
 285 183 309 135 343 97 c 0
 345 95 347 92 349 90 c 1
 406 114 l 1
 464 90 l 1
 488 33 l 1
EndSplineSet
EndChar

StartChar: ae.1
Encoding: 65621 -1 216
Width: 561
VWidth: 0
Flags: W
HStem: 538 20G<245.667 341.5>
LayerCount: 2
Fore
SplineSet
510 -46 m 1
 486 -104 l 1
 429 -127 l 1
 371 -104 l 1
 347 -46 l 1
 353 -31 l 1
 240 77 l 2
 236 81 232 89 232 95 c 2
 233 132 l 1
 208 137 l 1
 203 124 l 1
 200 123 l 1
 177 67 l 1
 192 31 l 1
 168 -26 l 1
 110 -50 l 1
 53 -26 l 1
 29 31 l 1
 53 89 l 1
 88 103 l 1
 96 121 l 1
 89 124 l 1
 65 181 l 1
 89 239 l 1
 146 263 l 1
 153 260 l 1
 227 441 l 1
 212 477 l 1
 236 534 l 1
 294 558 l 1
 351 534 l 1
 375 477 l 1
 371 468 l 1
 418 434 l 1
 448 447 l 1
 506 423 l 1
 530 366 l 1
 506 308 l 1
 448 284 l 1
 391 308 l 1
 367 366 l 1
 370 374 l 1
 341 394 l 1
 334 177 l 1
 339 176 l 1
 344 189 l 1
 402 212 l 1
 459 189 l 1
 483 131 l 1
 459 74 l 1
 402 50 l 1
 377 60 l 1
 411 28 l 1
 429 35 l 1
 486 11 l 1
 510 -46 l 1
235 197 m 1
 236 210 l 1
 230 197 l 1
 235 197 l 1
EndSplineSet
EndChar

StartChar: dotaccent.1
Encoding: 65622 -1 217
Width: 231
VWidth: 0
Flags: W
HStem: 516 162
VStem: 34 163
LayerCount: 2
Fore
SplineSet
197 597 m 1
 173 540 l 1
 115 516 l 1
 58 540 l 1
 34 597 l 1
 58 655 l 1
 115 678 l 1
 173 655 l 1
 197 597 l 1
EndSplineSet
EndChar

StartChar: S.1
Encoding: 65623 -1 218
Width: 452
VWidth: 0
Flags: W
HStem: 559 21G<290.435 390.435> 625 62<185.638 251.952>
VStem: 291 100<97.2553 281.937>
LayerCount: 2
Fore
SplineSet
421 640 m 1
 398 582 l 1
 340 559 l 1
 283 582 l 1
 268 619 l 1
 230 625 l 2
 225 625 222 626 218 625 c 0
 186 618 135 555 170 490 c 0
 188 457 225 444 273 410 c 0
 345 359 388 282 391 200 c 0
 395 109 350 21 264 -32 c 0
 245 -44 212 -44 193 -32 c 0
 189 -30 184 -23 184 -23 c 1
 115 67 l 1
 110 65 l 1
 53 89 l 1
 29 147 l 1
 53 204 l 1
 110 228 l 1
 168 204 l 1
 192 147 l 1
 182 124 l 1
 239 50 l 1
 273 89 293 143 291 199 c 0
 288 269 250 332 198 369 c 0
 166 392 104 416 75 470 c 0
 31 552 70 660 187 684 c 0
 206 688 227 689 248 687 c 0
 249 687 251 686 252 686 c 2
 277 682 l 1
 283 697 l 1
 340 721 l 1
 398 697 l 1
 421 640 l 1
EndSplineSet
EndChar

StartChar: x.1
Encoding: 65624 -1 219
Width: 521
VWidth: 0
Flags: W
HStem: -62 21G<320.667 416.5> 470 20G<104.667 200.5>
LayerCount: 2
Fore
SplineSet
490 397 m 1
 466 339 l 1
 408 316 l 1
 404 318 l 1
 319 204 l 1
 379 97 l 1
 426 77 l 1
 450 20 l 1
 426 -38 l 1
 369 -62 l 1
 311 -38 l 1
 287 20 l 1
 299 49 l 1
 258 123 l 1
 183 23 l 1
 192 0 l 1
 168 -57 l 1
 110 -81 l 1
 53 -57 l 1
 29 0 l 1
 53 58 l 1
 110 81 l 1
 115 79 l 1
 211 208 l 1
 142 333 l 1
 95 352 l 1
 71 409 l 1
 95 466 l 1
 153 490 l 1
 210 466 l 1
 234 409 l 1
 222 380 l 1
 272 289 l 1
 336 374 l 1
 327 397 l 1
 351 454 l 1
 408 478 l 1
 466 454 l 1
 490 397 l 1
EndSplineSet
EndChar

StartChar: asciicircum.1
Encoding: 65625 -1 220
Width: 460
VWidth: 0
Flags: W
LayerCount: 2
Fore
SplineSet
429 427 m 1
 405 369 l 1
 348 346 l 1
 291 369 l 1
 267 427 l 1
 278 453 l 1
 201 576 l 1
 175 476 l 1
 194 431 l 1
 170 373 l 1
 112 350 l 1
 55 373 l 1
 31 431 l 1
 55 488 l 1
 79 498 l 1
 132 699 l 2
 140 731 212 732 228 706 c 2
 353 506 l 1
 405 484 l 1
 429 427 l 1
EndSplineSet
EndChar

StartChar: M.1
Encoding: 65626 -1 221
Width: 553
VWidth: 0
Flags: W
HStem: -60 21G<62.5 158.333> 778 20G<101.5 128.5>
VStem: 60 102<82 322 748.59 789.904> 257 100<-121.908 -79.0947> 401 100<674.38 735.511>
LayerCount: 2
Fore
SplineSet
522 -4 m 1
 499 -61 l 1
 441 -85 l 1
 384 -61 l 1
 371 -30 l 1
 357 -110 l 1
 352 -146 265 -144 257 -111 c 2
 162 322 l 1
 160 82 l 1
 168 79 l 1
 192 21 l 1
 168 -36 l 1
 110 -60 l 1
 53 -36 l 1
 29 21 l 1
 53 79 l 1
 60 82 l 1
 65 767 l 2
 65 784 88 798 115 798 c 0
 142 798 162 783 165 771 c 2
 301 148 l 1
 401 714 l 2
 404 731 430 743 457 741 c 0
 483 739 501 725 501 710 c 2
 492 57 l 1
 499 54 l 1
 522 -4 l 1
386 55 m 1
 392 57 l 1
 393 94 l 1
 386 55 l 1
EndSplineSet
EndChar

StartChar: quoteleft.1
Encoding: 65627 -1 222
Width: 267
VWidth: 0
Flags: W
HStem: 761 20G<92.5652 192.565>
VStem: 34 202
LayerCount: 2
Fore
SplineSet
236 468 m 1
 212 410 l 1
 155 387 l 1
 97 410 l 1
 74 468 l 1
 85 495 l 1
 34 579 l 2
 30 585 30 594 34 601 c 2
 73 670 l 1
 61 700 l 1
 85 758 l 1
 143 781 l 1
 200 758 l 1
 224 700 l 1
 200 643 l 1
 152 623 l 1
 134 591 l 1
 161 546 l 1
 212 525 l 1
 236 468 l 1
EndSplineSet
EndChar

StartChar: quoteright.1
Encoding: 65628 -1 223
Width: 283
VWidth: 0
Flags: W
HStem: 767 20G<88.4348 188.435>
VStem: 31 219
LayerCount: 2
Fore
SplineSet
194 452 m 1
 170 394 l 1
 112 371 l 1
 55 394 l 1
 31 452 l 1
 55 509 l 1
 112 533 l 1
 149 588 l 1
 127 630 l 1
 81 649 l 1
 57 706 l 1
 81 764 l 1
 138 787 l 1
 196 764 l 1
 220 706 l 1
 207 676 l 1
 250 597 l 2
 254 590 252 582 248 575 c 2
 183 478 l 1
 194 452 l 1
EndSplineSet
EndChar

StartChar: Delta.1
Encoding: 65629 -1 224
Width: 577
VWidth: 0
Flags: W
LayerCount: 2
Fore
SplineSet
175 14 m 1
 184 -7 l 1
 260 -9 390 -7 442 0 c 1
 458 77 388 410 323 584 c 1
 175 14 l 1
79 35 m 1
 255 711 l 2
 260 729 288 739 314 736 c 0
 327 734 337 730 343 727 c 0
 444 671 613 21 519 -45 c 0
 482 -71 297 -83 176 -74 c 1
 170 -89 l 1
 112 -113 l 1
 55 -89 l 1
 31 -32 l 1
 55 25 l 1
 79 35 l 1
EndSplineSet
EndChar

StartChar: T.1
Encoding: 65630 -1 225
Width: 474
VWidth: 0
Flags: W
VStem: 187 99<241.222 731> 195 100<93 611.778>
LayerCount: 2
Fore
SplineSet
327 32 m 1x40
 303 -25 l 1
 246 -49 l 1
 188 -25 l 1
 165 32 l 1
 188 90 l 1
 195 93 l 1x40
 187 731 l 1
 168 686 l 1
 110 662 l 1
 53 686 l 1
 29 744 l 1
 53 801 l 1
 110 825 l 1
 168 801 l 1
 170 796 l 1
 286 829 l 1
 305 874 l 1
 362 898 l 1
 419 874 l 1
 443 816 l 1
 419 759 l 1
 362 735 l 1
 305 759 l 1
 303 765 l 1
 286 760 l 1x80
 295 93 l 1
 303 90 l 1
 327 32 l 1x40
EndSplineSet
EndChar

StartChar: c.1
Encoding: 65631 -1 226
Width: 437
VWidth: 0
Flags: W
LayerCount: 2
Fore
SplineSet
406 84 m 1
 382 27 l 1
 337 8 l 1
 318 -10 293 -24 260 -30 c 0
 153 -51 83 14 54 72 c 0
 35 109 27 153 31 198 c 0
 38 280 88 388 219 384 c 0
 231 384 241 383 251 381 c 1
 290 396 l 1
 347 373 l 1
 371 315 l 1
 347 258 l 1
 290 234 l 1
 232 258 l 1
 208 315 l 1
 211 322 l 1
 191 318 138 278 131 195 c 0
 128 157 135 119 150 90 c 0
 178 34 215 27 230 30 c 0
 237 31 249 38 259 50 c 1
 244 84 l 1
 268 141 l 1
 325 165 l 1
 382 141 l 1
 406 84 l 1
EndSplineSet
EndChar

StartChar: circumflex.1
Encoding: 65632 -1 227
Width: 455
VWidth: 0
Flags: W
HStem: 489 21G<67.5 163.333>
LayerCount: 2
Fore
SplineSet
422 560 m 1
 398 503 l 1
 341 479 l 1
 283 503 l 1
 259 560 l 1
 274 595 l 1
 260 626 l 1
 193 579 l 1
 197 570 l 1
 173 513 l 1
 115 489 l 1
 58 513 l 1
 34 570 l 1
 58 628 l 1
 115 652 l 1
 146 639 l 1
 246 711 l 2
 272 730 321 722 332 699 c 1
 361 633 l 1
 398 617 l 1
 422 560 l 1
EndSplineSet
EndChar

StartChar: oe.1
Encoding: 65633 -1 228
Width: 594
VWidth: 0
Flags: W
HStem: 489 20G<224.5 320.333 412.667 508.5>
VStem: 30 100<117.309 297.517> 224 101<186.154 366> 237 97<32 105 181 211.846>
LayerCount: 2
Fore
SplineSet
563 9 m 1xe0
 539 -48 l 1
 481 -72 l 1
 424 -48 l 1
 416 -29 l 1
 297 -42 l 2
 293 -42 289 -42 285 -42 c 0
 119 -40 30 87 30 207 c 0
 30 221 32 234 34 248 c 0
 48 332 105 408 197 442 c 1
 215 485 l 1
 272 509 l 1
 330 485 l 1
 345 450 l 1
 396 444 l 1
 403 461 l 1
 461 485 l 1
 518 461 l 1
 542 404 l 1
 518 346 l 1
 461 323 l 1
 403 346 l 1
 389 381 l 1
 337 387 l 1
 330 370 l 1
 325 368 l 1
 331 181 l 1
 390 157 l 1
 443 178 l 1
 500 155 l 1
 524 97 l 1
 515 77 l 1
 539 67 l 1
 563 9 l 1xe0
363 93 m 1
 334 105 l 1xd0
 337 26 l 1
 403 33 l 1
 385 40 l 1
 363 93 l 1
237 32 m 1
 224 366 l 1xe0
 215 370 l 1
 168 339 130 282 130 207 c 0
 130 120 181 57 237 32 c 1
EndSplineSet
EndChar

StartChar: exclam.1
Encoding: 65634 -1 229
Width: 262
VWidth: 0
Flags: W
HStem: 782 20G<101.565 201.565>
VStem: 29 204
LayerCount: 2
Fore
SplineSet
192 207 m 1
 168 150 l 1
 110 126 l 1
 53 150 l 1
 29 207 l 1
 53 265 l 1
 65 270 l 1
 97 663 l 1
 94 664 l 1
 71 721 l 1
 94 779 l 1
 152 802 l 1
 209 779 l 1
 233 721 l 1
 209 664 l 1
 197 659 l 1
 165 266 l 1
 168 265 l 1
 192 207 l 1
220 -3 m 1
 197 -60 l 1
 139 -84 l 1
 82 -60 l 1
 58 -3 l 1
 82 55 l 1
 139 78 l 1
 197 55 l 1
 220 -3 l 1
EndSplineSet
EndChar

StartChar: t.1
Encoding: 65635 -1 230
Width: 498
VWidth: 0
Flags: W
HStem: 559 20G<62.5 158.333 338.5 434.333>
VStem: 199 100<211.692 440> 212 100<6 239.692>
LayerCount: 2
Fore
SplineSet
345 -55 m 1xa0
 322 -113 l 1
 264 -136 l 1
 207 -113 l 1
 183 -55 l 1
 207 2 l 1
 212 4 l 1xa0
 199 454 l 1
 175 458 l 1
 168 440 l 1
 110 417 l 1
 53 440 l 1
 29 498 l 1
 53 555 l 1
 110 579 l 1
 168 555 l 1
 183 519 l 1
 254 510 l 2
 257 510 260 509 263 508 c 2
 322 500 l 1
 329 517 l 1
 386 541 l 1
 444 517 l 1
 467 460 l 1
 444 402 l 1
 386 379 l 1
 329 402 l 1
 314 438 l 1
 299 440 l 1xc0
 312 6 l 1
 322 2 l 1
 345 -55 l 1xa0
EndSplineSet
EndChar

StartChar: z.1
Encoding: 65636 -1 231
Width: 441
VWidth: 0
Flags: W
HStem: 460 63<179 250> 553 20G<62.5 158.333>
LayerCount: 2
Fore
SplineSet
410 -43 m 1
 386 -101 l 1
 329 -125 l 1
 271 -101 l 1
 248 -43 l 1
 249 -40 l 1
 66 67 l 2
 54 74 45 88 52 100 c 2
 250 460 l 1
 179 460 l 1
 168 434 l 1
 110 410 l 1
 53 434 l 1
 29 492 l 1
 53 549 l 1
 110 573 l 1
 168 549 l 1
 179 523 l 1
 320 522 l 2
 347 522 370 508 370 491 c 0
 370 488 367 481 367 481 c 1
 157 99 l 1
 290 22 l 1
 329 38 l 1
 386 14 l 1
 410 -43 l 1
EndSplineSet
EndChar

StartChar: m.1
Encoding: 65637 -1 232
Width: 546
VWidth: 0
Flags: W
VStem: 383 100<-5 190>
LayerCount: 2
Fore
SplineSet
515 -66 m 1
 492 -124 l 1
 434 -147 l 1
 377 -124 l 1
 353 -66 l 1
 377 -9 l 1
 383 -7 l 1
 379 190 l 1
 297 7 l 1
 284 -25 213 -20 201 8 c 2
 154 119 l 1
 157 73 l 1
 168 68 l 1
 192 11 l 1
 168 -47 l 1
 110 -70 l 1
 53 -47 l 1
 29 11 l 1
 53 68 l 1
 56 69 l 1
 37 398 l 2
 36 415 58 430 85 431 c 0
 110 432 131 418 136 407 c 2
 250 135 l 1
 376 417 l 2
 383 433 412 444 438 439 c 0
 461 435 474 421 474 409 c 2
 483 -5 l 1
 492 -9 l 1
 515 -66 l 1
EndSplineSet
EndChar

StartChar: e.1
Encoding: 65638 -1 233
Width: 410
VWidth: 0
Flags: W
HStem: 379 62<161 228> 472 20G<247.565 347.565>
VStem: 43 102<45 149.667> 63 98<310 378>
LayerCount: 2
Fore
SplineSet
361 258 m 1xd0
 337 200 l 1
 280 176 l 1
 223 200 l 1
 213 223 l 1
 180 222 l 1
 168 192 l 1
 152 185 l 1
 145 45 l 1
 222 66 l 1
 239 109 l 1
 297 133 l 1
 354 109 l 1
 378 52 l 1
 354 -6 l 1
 297 -29 l 1
 239 -6 l 1
 236 1 l 1
 113 -32 l 2
 86 -39 43 -30 43 -2 c 1xe0
 52 193 l 1
 29 249 l 1
 53 306 l 1
 58 308 l 1
 63 409 l 2
 64 426 87 439 111 439 c 2
 228 441 l 1
 240 469 l 1
 298 492 l 1
 355 469 l 1
 379 411 l 1
 355 354 l 1
 300 331 l 1
 337 315 l 1
 361 258 l 1xd0
211 286 m 1
 223 315 l 1
 278 338 l 1
 240 354 l 1
 229 379 l 1
 161 378 l 1xd0
 158 310 l 1
 168 306 l 1
 177 284 l 1
 211 286 l 1
EndSplineSet
EndChar

StartChar: numbersign.1
Encoding: 65639 -1 234
Width: 567
VWidth: 0
Flags: W
HStem: 412 63<180 215> 501 20G<60.4348 160.435 416 488.5> 764 20G<339.667 435.5>
LayerCount: 2
Fore
SplineSet
538 236 m 1
 514 179 l 1
 457 155 l 1
 399 179 l 1
 387 207 l 1
 379 207 l 1
 355 7 l 2
 354 -3 343 -13 331 -18 c 2
 270 -41 l 1
 249 -91 l 1
 191 -115 l 1
 134 -91 l 1
 110 -34 l 1
 134 24 l 1
 152 31 l 1
 178 190 l 1
 178 189 l 1
 121 165 l 1
 63 189 l 1
 40 246 l 1
 63 304 l 1
 121 327 l 1
 178 304 l 1
 190 275 l 1
 192 275 l 1
 215 412 l 1
 180 411 l 1
 168 383 l 1
 110 359 l 1
 53 383 l 1
 29 440 l 1
 53 498 l 1
 110 521 l 1
 168 498 l 1
 178 473 l 1
 225 475 l 1
 264 710 l 2
 266 725 290 740 318 738 c 2
 321 738 l 1
 330 760 l 1
 388 784 l 1
 445 760 l 1
 469 702 l 1
 445 645 l 1
 430 639 l 1
 416 522 l 1
 441 532 l 1
 498 508 l 1
 522 450 l 1
 498 393 l 1
 441 369 l 1
 400 386 l 1
 386 269 l 1
 389 269 l 1
 399 294 l 1
 457 318 l 1
 514 294 l 1
 538 236 l 1
271 145 m 1
 251 26 l 1
 257 28 l 1
 271 145 l 1
EndSplineSet
EndChar

StartChar: L.1
Encoding: 65640 -1 235
Width: 383
VWidth: 0
Flags: W
VStem: 29 323
LayerCount: 2
Fore
SplineSet
352 53 m 1
 328 -4 l 1
 271 -28 l 1
 239 -15 l 1
 116 -98 l 2
 107 -104 92 -108 77 -108 c 0
 50 -107 28 -93 29 -76 c 2
 64 554 l 1
 60 556 l 1
 36 613 l 1
 60 671 l 1
 117 695 l 1
 175 671 l 1
 198 613 l 1
 175 556 l 1
 164 551 l 1
 134 6 l 1
 193 46 l 1
 190 53 l 1
 213 111 l 1
 271 135 l 1
 328 111 l 1
 352 53 l 1
EndSplineSet
EndChar

StartChar: germandbls.1
Encoding: 65641 -1 236
Width: 644
VWidth: 0
Flags: W
HStem: 289 62<381.711 455>
VStem: 288 101<169 234.866>
LayerCount: 2
Fore
SplineSet
612 337 m 1
 588 279 l 1
 586 278 l 1
 622 220 618 139 566 73 c 0
 542 43 508 18 466 3 c 0
 444 -5 417 0 403 10 c 2
 364 39 l 1
 335 27 l 1
 321 33 l 1
 311 24 299 17 286 10 c 0
 268 1 241 1 224 9 c 2
 177 31 l 1
 130 11 l 1
 72 35 l 1
 48 92 l 1
 72 150 l 1
 130 174 l 1
 187 150 l 1
 210 94 l 1
 248 76 l 1
 253 80 257 85 261 90 c 1
 254 108 l 1
 278 165 l 1
 288 169 l 1
 287 214 261 250 240 255 c 1
 240 255 158 234 94 276 c 0
 -10 344 27 452 103 497 c 0
 142 520 203 528 253 506 c 1
 255 509 257 511 260 514 c 0
 294 548 366 585 443 555 c 0
 477 542 500 520 520 490 c 0
 521 489 521 486 522 485 c 2
 553 409 l 1
 588 394 l 1
 612 337 l 1
413 99 m 1
 447 74 l 1
 457 81 467 90 476 101 c 0
 534 174 502 267 463 285 c 0
 459 287 454 289 449 289 c 2
 449 289 409 269 346 277 c 1
 378 248 391 207 389 167 c 1
 393 165 l 1
 416 108 l 1
 413 99 l 1
455 351 m 1
 464 373 l 1
 426 468 l 1
 411 490 397 499 390 502 c 0
 386 504 372 508 346 482 c 0
 337 473 329 463 324 452 c 1
 371 432 l 1
 394 375 l 1
 381 342 l 1
 396 347 422 353 455 351 c 1
255 318 m 1
 213 353 205 398 216 439 c 1
 211 445 207 449 202 452 c 0
 188 462 187 461 172 452 c 0
 132 428 110 356 166 319 c 0
 180 310 187 331 255 318 c 1
EndSplineSet
EndChar

StartChar: uni0237.1
Encoding: 65642 -1 237
Width: 356
VWidth: 0
Flags: W
HStem: 465 20G<186.435 286.435>
VStem: 29 296
LayerCount: 2
Fore
SplineSet
318 404 m 1
 294 347 l 1
 292 346 l 1
 325 4 l 2
 327 -12 306 -27 284 -29 c 2
 182 -40 l 1
 168 -74 l 1
 110 -97 l 1
 53 -74 l 1
 29 -16 l 1
 53 41 l 1
 110 65 l 1
 168 41 l 1
 176 23 l 1
 222 28 l 1
 192 342 l 1
 179 347 l 1
 155 404 l 1
 179 462 l 1
 236 485 l 1
 294 462 l 1
 318 404 l 1
EndSplineSet
EndChar

StartChar: caron.1
Encoding: 65643 -1 238
Width: 471
VWidth: 0
Flags: W
HStem: 538 49G<66.5 131 347 404.5>
LayerCount: 2
Fore
SplineSet
438 647 m 1
 414 590 l 1
 357 566 l 1
 347 570 l 1
 276 490 l 1
 260 468 210 469 190 488 c 2
 131 545 l 1
 114 538 l 1
 57 562 l 1
 33 620 l 1
 57 677 l 1
 114 701 l 1
 172 677 l 1
 196 620 l 1
 190 604 l 1
 229 566 l 1
 284 628 l 1
 276 647 l 1
 299 705 l 1
 357 729 l 1
 414 705 l 1
 438 647 l 1
EndSplineSet
EndChar

StartChar: quotedblleft.1
Encoding: 65644 -1 239
Width: 365
VWidth: 0
Flags: W
HStem: 568 21G<64.5 118> 767 20G<162.667 258.5>
VStem: 31 302
LayerCount: 2
Fore
SplineSet
118 570 m 1
 112 568 l 1
 55 592 l 1
 31 649 l 1
 55 707 l 1
 112 730 l 1
 135 721 l 1
 153 763 l 1
 211 787 l 1
 268 763 l 1
 292 706 l 1
 273 661 l 1
 333 435 l 2
 337 418 319 402 292 399 c 0
 269 397 247 407 239 417 c 2
 118 570 l 1
EndSplineSet
EndChar

StartChar: A.1
Encoding: 65645 -1 240
Width: 506
VWidth: 0
Flags: W
LayerCount: 2
Fore
SplineSet
427 332 m 1
 403 275 l 1
 402 275 l 1
 430 142 l 1
 451 133 l 1
 475 76 l 1
 451 18 l 1
 394 -6 l 1
 336 18 l 1
 312 76 l 1
 333 126 l 1
 304 262 l 1
 244 224 l 1
 246 218 l 1
 222 160 l 1
 175 141 l 1
 192 101 l 1
 168 43 l 1
 110 20 l 1
 53 43 l 1
 29 101 l 1
 53 158 l 1
 74 167 l 1
 84 217 l 1
 84 218 l 1
 85 220 l 1
 199 774 l 2
 202 791 228 803 255 801 c 0
 278 799 295 787 298 774 c 2
 376 401 l 1
 403 390 l 1
 427 332 l 1
266 326 m 1
 264 332 l 1
 281 374 l 1
 249 528 l 1
 199 285 l 1
 200 284 l 1
 266 326 l 1
EndSplineSet
EndChar

StartChar: I.1
Encoding: 65646 -1 241
Width: 228
VWidth: 0
Flags: W
HStem: 761 20G<62.5 158.333>
VStem: 60 100<63 639>
LayerCount: 2
Fore
SplineSet
192 700 m 1
 168 643 l 1
 159 639 l 1
 159 582 159 525 160 467 c 0
 161 389 159 311 160 234 c 0
 161 177 162 120 164 63 c 1
 173 59 l 1
 197 2 l 1
 173 -56 l 1
 116 -79 l 1
 58 -56 l 1
 34 2 l 1
 58 59 l 1
 64 61 l 1
 62 118 61 176 60 233 c 0
 59 311 61 390 60 467 c 0
 59 525 59 582 59 640 c 1
 53 643 l 1
 29 700 l 1
 53 757 l 1
 110 781 l 1
 168 757 l 1
 192 700 l 1
EndSplineSet
EndChar

StartChar: Phi.1
Encoding: 65647 -1 242
Width: 451
VWidth: 0
Flags: W
HStem: 187 63<229 298.236>
VStem: 131 100<-12 187 498 604>
LayerCount: 2
Fore
SplineSet
262 -72 m 1
 238 -130 l 1
 181 -153 l 1
 123 -130 l 1
 100 -72 l 1
 123 -15 l 1
 131 -12 l 1
 129 206 l 1
 80 226 43 260 34 307 c 0
 23 365 55 428 127 451 c 1
 125 604 l 1
 118 607 l 1
 94 665 l 1
 118 722 l 1
 175 746 l 1
 233 722 l 1
 256 665 l 1
 233 607 l 1
 225 604 l 1
 226 498 l 1
 280 476 l 1
 287 458 l 1
 341 451 382 419 400 389 c 0
 422 353 427 307 402 263 c 0
 372 210 301 188 239 187 c 0
 236 187 232 187 229 187 c 1
 231 -12 l 1
 238 -15 l 1
 262 -72 l 1
290 386 m 1
 280 361 l 1
 228 340 l 1
 228 250 l 1
 230 250 233 250 235 250 c 0
 267 251 293 257 308 284 c 0
 329 322 315 363 292 384 c 1
 290 386 l 1
EndSplineSet
EndChar

StartChar: asterisk.1
Encoding: 65648 -1 243
Width: 478
VWidth: 0
Flags: W
LayerCount: 2
Fore
SplineSet
252 488 m 1
 255 483 l 1
 253 491 l 1
 252 488 l 1
164 696 m 1
 148 734 l 1
 172 791 l 1
 230 815 l 1
 287 791 l 1
 311 734 l 1
 295 696 l 1
 363 695 l 2
 373 695 387 693 396 688 c 0
 416 677 419 657 401 644 c 0
 375 626 350 604 327 581 c 1
 446 193 l 2
 450 179 438 164 416 158 c 0
 391 151 360 159 350 175 c 2
 203 398 l 1
 196 381 l 1
 157 217 l 2
 153 200 127 188 100 191 c 0
 74 193 57 207 58 223 c 0
 64 281 77 339 98 393 c 1
 127 514 l 1
 35 653 l 2
 33 656 31 661 31 665 c 0
 31 682 54 696 81 696 c 2
 164 696 l 1
EndSplineSet
EndChar

StartChar: q.1
Encoding: 65649 -1 244
Width: 485
VWidth: 0
Flags: W
LayerCount: 2
Fore
SplineSet
454 -6 m 1
 430 -64 l 1
 376 -86 l 1
 322 -171 l 2
 305 -199 234 -197 226 -165 c 2
 192 -30 l 1
 67 -7 23 109 31 205 c 0
 33 229 38 252 47 276 c 0
 63 319 91 363 138 392 c 1
 161 447 l 1
 219 471 l 1
 276 447 l 1
 296 399 l 1
 356 371 399 325 423 272 c 0
 455 201 452 120 414 58 c 1
 430 51 l 1
 454 -6 l 1
302 -32 m 1
 300 -26 l 1
 298 -27 295 -27 292 -28 c 1
 296 -42 l 1
 302 -32 l 1
166 72 m 1
 165 72 l 1
 166 71 l 1
 166 72 l 1
262 94 m 1
 275 39 l 1
 324 70 370 160 327 256 c 0
 313 287 292 311 269 329 c 1
 219 308 l 1
 182 323 l 1
 156 292 136 247 131 201 c 0
 130 190 130 179 131 169 c 1
 142 197 l 1
 199 221 l 1
 257 197 l 1
 280 139 l 1
 262 94 l 1
EndSplineSet
EndChar

StartChar: j.1
Encoding: 65650 -1 245
Width: 345
VWidth: 0
Flags: W
HStem: 491 20G<181.667 277.5>
VStem: 29 282
LayerCount: 2
Fore
SplineSet
311 430 m 1
 287 372 l 1
 284 371 l 1
 314 -50 l 2
 315 -67 293 -82 266 -83 c 0
 249 -83 231 -77 223 -70 c 2
 132 9 l 1
 110 0 l 1
 53 24 l 1
 29 82 l 1
 53 139 l 1
 110 163 l 1
 168 139 l 1
 192 82 l 1
 187 69 l 1
 206 52 l 1
 184 367 l 1
 172 372 l 1
 149 430 l 1
 172 487 l 1
 230 511 l 1
 287 487 l 1
 311 430 l 1
EndSplineSet
EndChar

StartChar: v.1
Encoding: 65651 -1 246
Width: 487
VWidth: 0
Flags: W
HStem: 489 20G<60.4348 160.435 324.565 424.565>
LayerCount: 2
Fore
SplineSet
456 429 m 1
 432 372 l 1
 408 362 l 1
 308 -16 l 2
 305 -28 289 -39 269 -42 c 0
 242 -46 216 -35 210 -18 c 2
 82 359 l 1
 53 371 l 1
 29 428 l 1
 53 486 l 1
 110 509 l 1
 168 486 l 1
 192 428 l 1
 175 388 l 1
 253 158 l 1
 312 384 l 1
 294 429 l 1
 317 487 l 1
 375 510 l 1
 432 487 l 1
 456 429 l 1
EndSplineSet
EndChar

StartChar: X.1
Encoding: 65652 -1 247
Width: 503
VWidth: 0
Flags: W
LayerCount: 2
Fore
SplineSet
379 649 m 1
 355 591 l 1
 329 580 l 1
 286 433 l 1
 417 46 l 1
 448 33 l 1
 472 -24 l 1
 448 -82 l 1
 391 -106 l 1
 333 -82 l 1
 309 -24 l 1
 326 16 l 1
 239 272 l 1
 173 46 l 1
 192 1 l 1
 168 -56 l 1
 110 -80 l 1
 53 -56 l 1
 29 1 l 1
 53 59 l 1
 79 70 l 1
 184 433 l 1
 120 621 l 1
 90 634 l 1
 66 691 l 1
 90 748 l 1
 148 772 l 1
 205 748 l 1
 229 691 l 1
 212 650 l 1
 231 595 l 1
 234 606 l 1
 216 649 l 1
 240 706 l 1
 298 730 l 1
 355 706 l 1
 379 649 l 1
EndSplineSet
EndChar

StartChar: dollar.1
Encoding: 65653 -1 248
Width: 451
VWidth: 0
Flags: W
VStem: 169 100<527 593> 175 102<52 148 231 266> 316 100<75.7178 233.641>
LayerCount: 2
Fore
SplineSet
421 503 m 1x20
 398 445 l 1
 340 421 l 1
 283 445 l 1
 270 477 l 1
 271 385 l 1
 279 378 l 2
 340 324 409 264 416 160 c 1
 420 72 365 -35 229 -37 c 0
 228 -37 l 0
 227 -37 l 0
 97 -36 31 58 46 147 c 1
 29 187 l 1
 53 245 l 1
 110 269 l 1
 168 245 l 1
 174 231 l 1
 172 365 l 1
 126 407 82 452 67 516 c 0
 51 586 73 672 156 708 c 1
 134 762 l 1
 158 819 l 1
 215 843 l 1
 273 819 l 1
 296 762 l 1
 280 721 l 1
 341 708 381 665 398 627 c 0
 410 600 413 570 406 539 c 1
 421 503 l 1x20
273 266 m 1
 277 52 l 1x60
 300 74 318 110 316 158 c 0
 315 170 314 181 311 193 c 0
 304 220 290 244 273 266 c 1
177 48 m 1
 175 148 l 1
 168 130 l 1
 145 120 l 1
 146 91 159 66 177 48 c 1
169 514 m 1xa0
 168 593 l 1
 162 573 160 550 166 525 c 0
 167 521 168 518 169 514 c 1xa0
267 653 m 1
 269 527 l 1
 283 560 l 1
 311 572 l 1
 311 585 307 598 302 610 c 0
 293 631 280 645 267 653 c 1
EndSplineSet
EndChar

StartChar: n.1
Encoding: 65654 -1 249
Width: 452
VWidth: 0
Flags: W
HStem: 477 20G<112.5 137>
VStem: 62 100<49 271.125> 75 95<241.462 303>
LayerCount: 2
Fore
SplineSet
421 373 m 1xa0
 397 316 l 1
 390 313 l 1
 395 103 l 2
 395 90 383 79 363 74 c 0
 338 68 308 76 298 92 c 2
 170 303 l 1xa0
 162 48 l 1
 168 45 l 1
 192 -12 l 1
 168 -70 l 1
 110 -94 l 1
 53 -70 l 1
 29 -12 l 1
 53 45 l 1
 62 49 l 1xc0
 75 466 l 2
 76 483 99 497 126 497 c 0
 148 497 167 486 172 477 c 2
 291 280 l 1
 290 313 l 1
 282 316 l 1
 258 373 l 1
 282 431 l 1
 339 454 l 1
 397 431 l 1
 421 373 l 1xa0
EndSplineSet
EndChar

StartChar: K.1
Encoding: 65655 -1 250
Width: 496
VWidth: 0
Flags: W
HStem: 772 20G<89.5652 189.565 335.667 431.5>
VStem: 62 100<-74 111.091> 74 99<68.5 218> 76 105<443 510.333> 88 100<453.667 650>
LayerCount: 2
Fore
SplineSet
403 -57 m 1x90
 379 -114 l 1
 321 -138 l 1
 264 -114 l 1
 240 -57 l 1
 247 -40 l 1
 225 -12 211 19 204 53 c 0
 193 108 185 165 180 221 c 1
 173 218 l 1xa0
 162 -76 l 1
 168 -78 l 1
 192 -136 l 1
 168 -193 l 1
 110 -217 l 1
 53 -193 l 1
 29 -136 l 1
 53 -78 l 1
 62 -74 l 1xc0
 74 268 l 1xa0
 66 288 l 1
 76 312 l 1x90
 88 652 l 1
 82 654 l 1
 58 711 l 1
 82 769 l 1
 140 792 l 1
 197 769 l 1
 221 711 l 1
 197 654 l 1
 188 650 l 1x88
 181 443 l 1
 315 684 l 1
 303 714 l 1
 326 771 l 1
 384 795 l 1
 441 771 l 1
 465 714 l 1
 441 656 l 1
 394 637 l 1
 276 425 l 1
 270 303 279 181 303 61 c 0
 306 48 309 35 315 23 c 1
 321 25 l 1
 379 1 l 1
 403 -57 l 1x90
EndSplineSet
EndChar

StartChar: Pi.1
Encoding: 65656 -1 251
Width: 482
VWidth: 0
Flags: W
HStem: 673 61<148 348> 678 63<148 348>
VStem: 47 101<380 678> 61 100<52 380>
LayerCount: 2
Fore
SplineSet
435 -13 m 1xa0
 411 -71 l 1
 353 -95 l 1
 296 -71 l 1
 272 -13 l 1
 296 44 l 1
 307 49 l 1
 348 673 l 1xa0
 148 678 l 1x60
 161 52 l 1
 170 48 l 1
 194 -9 l 1
 170 -66 l 1
 112 -90 l 1
 55 -66 l 1
 31 -9 l 1
 55 48 l 1
 61 50 l 1x50
 47 710 l 2
 47 728 73 742 99 741 c 2x60
 402 734 l 2
 432 733 451 716 450 702 c 2
 407 46 l 1
 411 44 l 1
 435 -13 l 1xa0
EndSplineSet
EndChar

StartChar: four.1
Encoding: 65657 -1 252
Width: 436
VWidth: 0
Flags: W
LayerCount: 2
Fore
SplineSet
215 216 m 1
 200 432 l 1
 136 239 l 1
 215 216 l 1
362 -21 m 1
 338 -79 l 1
 281 -102 l 1
 223 -79 l 1
 199 -21 l 1
 223 36 l 1
 227 38 l 1
 219 146 l 1
 58 192 l 2
 36 198 26 214 30 227 c 2
 184 692 l 2
 190 709 216 719 243 716 c 0
 266 713 282 701 283 687 c 2
 314 227 l 1
 326 232 l 1
 383 208 l 1
 407 150 l 1
 383 93 l 1
 326 69 l 1
 325 70 l 1
 327 41 l 1
 338 36 l 1
 362 -21 l 1
EndSplineSet
EndChar

StartChar: backslash.1
Encoding: 65658 -1 253
Width: 400
VWidth: 0
Flags: W
HStem: 772 20G<62.5 158.333>
LayerCount: 2
Fore
SplineSet
371 -25 m 1
 347 -83 l 1
 290 -107 l 1
 232 -83 l 1
 208 -25 l 1
 228 21 l 1
 76 643 l 1
 53 653 l 1
 29 710 l 1
 53 768 l 1
 110 792 l 1
 168 768 l 1
 192 710 l 1
 172 664 l 1
 324 42 l 1
 347 32 l 1
 371 -25 l 1
EndSplineSet
EndChar

StartChar: Q.1
Encoding: 65659 -1 254
Width: 506
VWidth: 0
Flags: W
VStem: 30 100<187.087 422.987>
LayerCount: 2
Fore
SplineSet
475 -89 m 1
 451 -147 l 1
 394 -171 l 1
 336 -147 l 1
 328 -126 l 1
 314 -127 l 2
 291 -129 265 -120 259 -104 c 2
 211 24 l 1
 68 42 29 176 30 291 c 0
 31 334 37 379 49 423 c 0
 78 529 117 633 172 729 c 1
 161 756 l 1
 185 813 l 1
 242 837 l 1
 299 813 l 1
 323 756 l 1
 313 732 l 1
 382 623 428 502 452 376 c 0
 476 244 453 74 311 32 c 1
 335 -34 l 1
 336 -32 l 1
 394 -8 l 1
 451 -32 l 1
 475 -89 l 1
244 667 m 1
 203 587 172 500 148 412 c 0
 137 371 130 330 130 291 c 0
 129 249 135 213 145 184 c 1
 156 211 l 1
 214 235 l 1
 271 211 l 1
 295 153 l 1
 279 115 l 1
 285 100 l 1
 335 137 376 240 353 369 c 0
 334 474 296 575 244 667 c 1
EndSplineSet
EndChar

StartChar: s.1
Encoding: 65660 -1 255
Width: 458
VWidth: 0
Flags: W
HStem: 26 62<216 299.226> 237 62<171.435 299.486> 415 62<152.062 210.362>
VStem: 322 100<107.76 216.648>
LayerCount: 2
Fore
SplineSet
426 367 m 1
 402 309 l 1
 345 285 l 1
 287 309 l 1
 264 366 l 1
 226 383 l 2
 220 386 215 389 212 393 c 0
 193 415 182 415 182 415 c 1
 182 415 174 414 160 402 c 0
 120 366 121 301 171 280 c 1
 180 281 207 296 253 299 c 1
 267 299 l 2
 372 299 422 225 422 162 c 0
 422 99 371 27 267 26 c 1
 216 23 l 1
 204 -6 l 1
 146 -30 l 1
 89 -6 l 1
 65 51 l 1
 89 108 l 1
 146 132 l 1
 204 108 l 1
 213 86 l 1
 261 88 l 1
 266 88 l 2
 277 88 322 108 322 162 c 0
 322 216 277 237 267 237 c 2
 265 237 l 2
 262 237 217 210 152 218 c 0
 140 219 128 222 118 226 c 0
 -4 276 21 382 75 434 c 0
 98 456 136 479 189 477 c 0
 237 474 269 454 294 429 c 1
 296 428 l 1
 345 448 l 1
 402 424 l 1
 426 367 l 1
EndSplineSet
EndChar

StartChar: h.1
Encoding: 65661 -1 256
Width: 551
VWidth: 0
Flags: W
HStem: 489 20G<111.667 207.5 319.435 418.565>
LayerCount: 2
Fore
SplineSet
520 3 m 1
 497 -55 l 1
 439 -78 l 1
 382 -55 l 1
 358 3 l 1
 380 54 l 1
 351 220 l 1
 206 235 l 1
 198 216 l 1
 185 211 l 1
 167 64 l 1
 168 64 l 1
 192 6 l 1
 168 -51 l 1
 110 -75 l 1
 53 -51 l 1
 29 6 l 1
 53 64 l 1
 67 70 l 1
 85 215 l 1
 83 216 l 1
 59 274 l 1
 83 331 l 1
 99 338 l 1
 103 370 l 1
 102 370 l 1
 78 428 l 1
 102 485 l 1
 160 509 l 1
 217 485 l 1
 241 428 l 1
 217 370 l 1
 203 364 l 1
 199 329 l 1
 212 297 l 1
 340 284 l 1
 328 360 l 1
 312 367 l 1
 288 424 l 1
 312 482 l 1
 369 505 l 1
 426 482 l 1
 450 424 l 1
 428 371 l 1
 434 330 440 289 447 249 c 2
 478 68 l 1
 497 60 l 1
 520 3 l 1
EndSplineSet
EndChar

StartChar: a.1
Encoding: 65662 -1 257
Width: 509
VWidth: 0
Flags: W
LayerCount: 2
Fore
SplineSet
461 175 m 1
 438 117 l 1
 420 110 l 1
 424 99 l 1
 454 86 l 1
 478 29 l 1
 454 -29 l 1
 397 -52 l 1
 339 -29 l 1
 315 29 l 1
 332 69 l 1
 307 140 l 1
 193 134 l 1
 174 73 l 1
 192 31 l 1
 168 -27 l 1
 110 -51 l 1
 53 -27 l 1
 29 31 l 1
 53 88 l 1
 79 99 l 1
 64 105 l 1
 40 162 l 1
 64 220 l 1
 122 243 l 1
 125 242 l 1
 196 468 l 2
 206 500 282 501 294 469 c 2
 370 252 l 1
 380 256 l 1
 438 232 l 1
 461 175 l 1
213 197 m 1
 285 201 l 1
 248 308 l 1
 213 197 l 1
EndSplineSet
EndChar

StartChar: question.1
Encoding: 65663 -1 258
Width: 330
VWidth: 0
Flags: W
VStem: 30 268
LayerCount: 2
Fore
SplineSet
228 9 m 1
 204 -49 l 1
 147 -73 l 1
 89 -49 l 1
 66 9 l 1
 89 66 l 1
 147 90 l 1
 204 66 l 1
 228 9 l 1
207 224 m 1
 183 166 l 1
 126 142 l 1
 69 166 l 1
 45 224 l 1
 69 281 l 1
 84 287 l 1
 110 386 187 464 198 552 c 0
 205 608 172 650 161 654 c 1
 158 653 144 642 138 624 c 1
 169 611 l 1
 193 553 l 1
 169 496 l 1
 111 472 l 1
 54 496 l 1
 30 553 l 1
 41 579 l 1
 40 582 39 585 38 588 c 0
 27 634 49 707 147 716 c 0
 154 717 161 717 168 717 c 0
 283 712 306 613 298 548 c 0
 285 441 209 363 184 278 c 1
 207 224 l 1
EndSplineSet
EndChar

StartChar: C.1
Encoding: 65664 -1 259
Width: 526
VWidth: 0
Flags: W
HStem: 543 21G<363.565 463.565>
LayerCount: 2
Fore
SplineSet
478 140 m 1
 454 83 l 1
 449 81 l 1
 439 33 403 -12 336 -29 c 0
 226 -57 155 5 118 62 c 0
 80 120 57 197 44 273 c 0
 6 496 34 772 256 786 c 0
 277 787 299 786 320 782 c 0
 384 770 426 734 447 691 c 1
 471 681 l 1
 495 624 l 1
 471 566 l 1
 414 543 l 1
 356 566 l 1
 332 624 l 1
 352 671 l 1
 337 700 310 718 290 722 c 0
 280 724 273 724 266 724 c 0
 182 719 103 526 144 280 c 0
 156 207 178 134 210 85 c 0
 247 28 277 24 298 29 c 0
 315 33 337 53 347 80 c 1
 340 83 l 1
 316 140 l 1
 340 197 l 1
 397 221 l 1
 454 197 l 1
 478 140 l 1
EndSplineSet
EndChar

StartChar: hyphen.1
Encoding: 65665 -1 260
Width: 370
VWidth: 0
Flags: W
HStem: 190 250
VStem: 34 301
LayerCount: 2
Fore
SplineSet
335 359 m 1
 311 301 l 1
 254 277 l 1
 218 292 l 1
 195 278 l 1
 197 272 l 1
 173 214 l 1
 115 190 l 1
 58 214 l 1
 34 272 l 1
 58 329 l 1
 115 353 l 1
 150 338 l 1
 175 354 l 1
 173 359 l 1
 196 416 l 1
 254 440 l 1
 311 416 l 1
 335 359 l 1
EndSplineSet
EndChar

StartChar: ampersand.1
Encoding: 65666 -1 261
Width: 477
VWidth: 0
Flags: W
HStem: 489 20G<317.5 413.333> 674 64<133 288> 761 20G<318.667 414.5>
VStem: 31 102<560.853 674>
LayerCount: 2
Fore
SplineSet
437 -20 m 1
 413 -77 l 1
 356 -101 l 1
 298 -77 l 1
 275 -20 l 1
 291 21 l 1
 251 143 l 1
 162 -9 l 2
 155 -21 136 -30 116 -30 c 0
 89 -31 66 -16 65 1 c 2
 31 706 l 2
 30 720 51 739 83 738 c 2
 299 733 l 1
 309 757 l 1
 367 781 l 1
 424 757 l 1
 448 700 l 1
 424 642 l 1
 367 618 l 1
 361 620 l 1
 148 347 l 1
 157 164 l 1
 296 400 l 1
 284 428 l 1
 308 485 l 1
 365 509 l 1
 423 485 l 1
 447 428 l 1
 423 370 l 1
 372 349 l 1
 317 255 l 1
 384 50 l 1
 413 38 l 1
 437 -20 l 1
142 482 m 1
 288 670 l 1
 133 674 l 1
 142 482 l 1
EndSplineSet
EndChar

StartChar: P.2
Encoding: 65667 -1 262
Width: 511
VWidth: 0
Flags: W
LayerCount: 2
Fore
SplineSet
195 448 m 1
 364 592 l 1
 218 682 l 1
 195 448 l 1
230 356 m 1
 206 298 l 1
 180 288 l 1
 166 145 l 1
 168 144 l 1
 192 86 l 1
 168 29 l 1
 110 5 l 1
 53 29 l 1
 29 86 l 1
 53 144 l 1
 66 149 l 1
 82 319 l 1
 67 356 l 1
 91 413 l 1
 124 754 l 2
 126 771 150 784 177 783 c 0
 190 783 204 777 209 774 c 2
 466 617 l 2
 484 606 485 588 471 576 c 2
 225 368 l 1
 230 356 l 1
EndSplineSet
EndChar

StartChar: semicolon.2
Encoding: 65668 -1 263
Width: 274
VWidth: 0
Flags: W
VStem: 34 205
LayerCount: 2
Fore
SplineSet
197 301 m 1
 173 244 l 1
 115 220 l 1
 58 244 l 1
 34 301 l 1
 58 359 l 1
 115 383 l 1
 173 359 l 1
 197 301 l 1
200 -231 m 1
 176 -289 l 1
 119 -312 l 1
 62 -289 l 1
 38 -231 l 1
 62 -174 l 1
 100 -158 l 1
 138 -71 l 1
 137 -69 l 1
 83 -48 l 1
 59 10 l 1
 83 67 l 1
 141 91 l 1
 198 67 l 1
 222 10 l 1
 211 -17 l 1
 237 -58 l 2
 241 -64 242 -72 239 -78 c 2
 186 -197 l 1
 200 -231 l 1
EndSplineSet
EndChar

StartChar: comma.2
Encoding: 65669 -1 264
Width: 249
VWidth: 0
Flags: W
HStem: -273 322
VStem: 37 174
LayerCount: 2
Fore
SplineSet
211 -192 m 1
 187 -250 l 1
 130 -273 l 1
 72 -250 l 1
 49 -192 l 1
 72 -135 l 1
 98 -124 l 1
 103 -107 l 1
 61 -90 l 1
 37 -32 l 1
 61 25 l 1
 118 49 l 1
 176 25 l 1
 200 -32 l 1
 194 -47 l 1
 204 -56 l 2
 211 -63 214 -73 212 -79 c 2
 193 -148 l 1
 211 -192 l 1
EndSplineSet
EndChar

StartChar: nine.2
Encoding: 65670 -1 265
Width: 377
VWidth: 0
Flags: W
LayerCount: 2
Fore
SplineSet
308 39 m 1
 284 -18 l 1
 227 -42 l 1
 169 -18 l 1
 146 39 l 1
 169 97 l 1
 180 102 l 1
 182 141 186 179 190 218 c 1
 162 230 l 1
 138 287 l 1
 145 305 l 1
 108 348 78 397 56 448 c 0
 4 568 28 719 166 742 c 0
 187 745 209 745 230 741 c 0
 369 712 353 572 333 481 c 0
 320 420 308 356 299 289 c 1
 300 287 l 1
 299 284 l 1
 291 223 284 161 280 99 c 1
 284 97 l 1
 308 39 l 1
209 365 m 1
 210 365 l 1
 217 407 225 448 234 490 c 0
 257 596 230 676 199 682 c 0
 195 683 194 682 192 682 c 0
 167 678 101 586 153 464 c 0
 168 428 186 396 209 365 c 1
EndSplineSet
EndChar

StartChar: dotlessi.2
Encoding: 65671 -1 266
Width: 234
VWidth: 0
Flags: W
HStem: 481 20G<73.6667 169.5>
VStem: 72 100<39 359>
LayerCount: 2
Fore
SplineSet
203 420 m 1
 179 363 l 1
 173 360 l 1
 173 333 173 307 172 280 c 0
 171 234 173 188 172 140 c 0
 171 105 169 69 166 34 c 1
 168 33 l 1
 192 -24 l 1
 168 -81 l 1
 110 -105 l 1
 53 -81 l 1
 29 -24 l 1
 53 33 l 1
 66 39 l 1
 69 73 71 107 72 141 c 0
 73 187 71 233 72 281 c 0
 73 307 73 333 73 359 c 1
 64 363 l 1
 40 420 l 1
 64 477 l 1
 122 501 l 1
 179 477 l 1
 203 420 l 1
EndSplineSet
EndChar

StartChar: breve.2
Encoding: 65672 -1 267
Width: 434
VWidth: 0
Flags: W
HStem: 480 290
LayerCount: 2
Fore
SplineSet
196 688 m 1
 172 631 l 1
 171 631 l 1
 189 580 234 547 270 542 c 0
 272 542 276 539 286 552 c 0
 294 562 298 574 298 586 c 1
 294 584 l 1
 236 608 l 1
 212 665 l 1
 236 723 l 1
 294 747 l 1
 351 723 l 1
 375 665 l 1
 373 660 l 1
 414 619 404 559 375 523 c 0
 355 498 311 472 250 480 c 0
 151 493 90 554 70 625 c 1
 57 631 l 1
 33 688 l 1
 57 746 l 1
 114 770 l 1
 172 746 l 1
 196 688 l 1
EndSplineSet
EndChar

StartChar: G.2
Encoding: 65673 -1 268
Width: 431
VWidth: 0
Flags: W
HStem: 267 62<258 288> 518 21G<253.667 349.5> 669 62<184.647 239.671>
LayerCount: 2
Fore
SplineSet
400 0 m 1
 376 -57 l 1
 319 -81 l 1
 261 -57 l 1
 248 -25 l 1
 216 -22 l 2
 22 -3 45 207 35 333 c 0
 21 497 21 726 201 731 c 0
 224 732 246 728 266 721 c 0
 301 710 324 689 338 666 c 1
 359 657 l 1
 383 599 l 1
 359 542 l 1
 302 518 l 1
 244 542 l 1
 220 599 l 1
 240 648 l 1
 233 658 225 664 220 666 c 0
 211 669 206 669 205 669 c 0
 175 668 123 543 134 356 c 1
 189 379 l 1
 247 355 l 1
 257 329 l 1
 340 330 l 2
 369 330 392 315 391 298 c 2
 373 58 l 1
 376 57 l 1
 400 0 l 1
273 62 m 1
 288 267 l 1
 258 267 l 1
 247 240 l 1
 189 216 l 1
 145 235 l 1
 158 125 178 45 231 40 c 2
 253 38 l 1
 261 57 l 1
 273 62 l 1
EndSplineSet
EndChar

StartChar: percent.2
Encoding: 65674 -1 269
Width: 566
VWidth: 0
Flags: W
LayerCount: 2
Fore
SplineSet
201 -75 m 1
 177 -133 l 1
 120 -157 l 1
 62 -133 l 1
 38 -75 l 1
 62 -18 l 1
 95 -4 l 1
 224 333 l 1
 211 327 196 322 179 320 c 0
 165 318 149 318 135 320 c 0
 -11 342 26 488 58 573 c 1
 78 622 92 672 103 726 c 1
 81 779 l 1
 105 836 l 1
 162 860 l 1
 220 836 l 1
 243 779 l 1
 235 759 l 1
 249 747 263 738 277 734 c 0
 309 723 352 725 390 768 c 1
 394 777 406 784 419 787 c 0
 432 791 447 792 461 787 c 0
 467 785 473 782 477 778 c 0
 486 771 490 762 487 752 c 2
 185 -38 l 1
 201 -75 l 1
429 100 m 1
 401 40 400 -14 413 -29 c 1
 429 -11 441 41 429 100 c 1
519 329 m 1
 495 271 l 1
 494 270 l 1
 500 222 510 178 522 136 c 0
 548 49 553 -80 430 -94 c 0
 413 -96 396 -95 381 -91 c 0
 251 -60 306 70 345 142 c 0
 365 177 380 221 386 269 c 1
 380 271 l 1
 357 329 l 1
 380 386 l 1
 438 410 l 1
 495 386 l 1
 519 329 l 1
168 592 m 1
 163 579 157 565 153 551 c 1
 115 448 145 383 158 381 c 1
 178 390 209 473 177 567 c 1
 168 592 l 1
353 671 m 1
 318 664 280 665 244 674 c 1
 274 580 l 2
 282 558 288 534 291 509 c 1
 353 671 l 1
EndSplineSet
EndChar

StartChar: B.2
Encoding: 65675 -1 270
Width: 440
VWidth: 0
Flags: W
VStem: 62 104<478 571> 83 100<47 220> 306 100<152.818 327.643>
LayerCount: 2
Fore
SplineSet
255 446 m 1xa0
 353 417 408 331 406 245 c 0
 403 129 333 19 211 -27 c 1
 192 -72 l 1
 135 -95 l 1
 77 -72 l 1
 54 -14 l 1
 77 43 l 1
 83 45 l 1x60
 62 580 l 1
 53 584 l 1
 29 641 l 1
 53 699 l 1
 110 722 l 1
 168 699 l 1
 192 641 l 1
 191 639 l 1
 350 552 l 2
 366 543 375 521 352 507 c 2
 255 446 l 1xa0
169 393 m 1
 183 47 l 1
 191 44 l 1
 254 83 304 156 306 246 c 0
 308 341 231 394 183 394 c 0
 178 394 174 393 169 393 c 1
163 571 m 1
 166 478 l 1xa0
 244 527 l 1
 163 571 l 1
EndSplineSet
EndChar

StartChar: quotedbl.2
Encoding: 65676 -1 271
Width: 408
VWidth: 0
Flags: W
HStem: 760 20G<248.5 344.333>
LayerCount: 2
Fore
SplineSet
347 381 m 1
 324 324 l 1
 266 300 l 1
 209 324 l 1
 185 381 l 1
 209 439 l 1
 222 444 l 1
 240 640 l 1
 239 641 l 1
 215 699 l 1
 239 756 l 1
 296 780 l 1
 354 756 l 1
 377 699 l 1
 354 641 l 1
 340 636 l 1
 322 440 l 1
 324 439 l 1
 347 381 l 1
194 454 m 1
 170 397 l 1
 112 373 l 1
 55 397 l 1
 31 454 l 1
 55 512 l 1
 67 517 l 1
 71 560 l 1
 68 561 l 1
 45 619 l 1
 68 676 l 1
 126 700 l 1
 183 676 l 1
 207 619 l 1
 183 561 l 1
 171 556 l 1
 167 513 l 1
 170 512 l 1
 194 454 l 1
EndSplineSet
EndChar

StartChar: questiondown.2
Encoding: 65677 -1 272
Width: 318
VWidth: 0
Flags: W
HStem: 487 20G<119.667 215.5> 527 21G<121.5 217.333>
VStem: 29 258
LayerCount: 2
Fore
SplineSet
251 608 m 1
 227 551 l 1
 169 527 l 1
 112 551 l 1
 88 608 l 1
 112 666 l 1
 169 690 l 1
 227 666 l 1
 251 608 l 1
249 426 m 1
 225 368 l 1
 223 367 l 1
 237 273 276 179 287 76 c 0
 292 22 291 -68 188 -86 c 0
 180 -87 170 -89 162 -89 c 0
 95 -90 62 -52 49 -24 c 0
 42 -7 38 11 42 30 c 1
 29 61 l 1
 53 119 l 1
 110 143 l 1
 168 119 l 1
 187 73 l 1
 177 167 136 262 122 363 c 1
 110 368 l 1
 87 426 l 1
 110 483 l 1
 168 507 l 1
 225 483 l 1
 249 426 l 1
147 -5 m 1
 151 -15 156 -23 162 -26 c 1
 172 -20 187 11 188 51 c 1
 168 4 l 1
 147 -5 l 1
EndSplineSet
EndChar

StartChar: slash.2
Encoding: 65678 -1 273
Width: 366
VWidth: 0
Flags: W
VStem: 29 308
LayerCount: 2
Fore
SplineSet
337 681 m 1
 313 624 l 1
 292 615 l 1
 171 50 l 1
 192 0 l 1
 168 -57 l 1
 110 -81 l 1
 53 -57 l 1
 29 0 l 1
 53 58 l 1
 74 67 l 1
 195 632 l 1
 175 681 l 1
 198 739 l 1
 256 762 l 1
 313 739 l 1
 337 681 l 1
EndSplineSet
EndChar

StartChar: bracketright.2
Encoding: 65679 -1 274
Width: 308
VWidth: 0
Flags: W
HStem: 767 20G<62.5 158.333>
VStem: 168 100<62 660> 174 101<62 660>
LayerCount: 2
Fore
SplineSet
168 62 m 1xc0
 174 660 l 1xa0
 173 660 l 1
 168 648 l 1
 110 624 l 1
 53 648 l 1
 29 706 l 1
 53 763 l 1
 110 787 l 1
 168 763 l 1xc0
 185 724 l 1
 240 713 l 2
 261 709 275 696 275 683 c 2xa0
 268 6 l 2
 268 -8 251 -20 233 -24 c 2
 217 -27 l 1
 201 -66 l 1
 144 -90 l 1
 86 -66 l 1
 62 -9 l 1
 86 48 l 1
 144 72 l 1
 168 62 l 1xc0
EndSplineSet
EndChar

StartChar: underscore.2
Encoding: 65680 -1 275
Width: 563
VWidth: 0
Flags: W
HStem: -175 62<192 371> -81 20G<74.5 170.333>
LayerCount: 2
Fore
SplineSet
522 -152 m 1
 498 -210 l 1
 441 -233 l 1
 383 -210 l 1
 371 -181 l 1
 190 -175 l 1
 180 -199 l 1
 122 -223 l 1
 65 -199 l 1
 41 -142 l 1
 65 -85 l 1
 122 -61 l 1
 180 -85 l 1
 192 -113 l 1
 373 -119 l 1
 383 -95 l 1
 441 -71 l 1
 498 -95 l 1
 522 -152 l 1
EndSplineSet
EndChar

StartChar: N.2
Encoding: 65681 -1 276
Width: 497
VWidth: 0
Flags: W
VStem: 61 100<86 390> 73 94<348.917 390 698.812 741.586>
LayerCount: 2
Fore
SplineSet
466 674 m 1x40
 442 617 l 1
 431 612 l 1
 394 -46 l 2
 393 -60 376 -73 353 -76 c 0
 326 -79 300 -68 295 -51 c 2
 167 390 l 1x40
 161 86 l 1
 168 83 l 1
 192 26 l 1
 168 -32 l 1
 110 -55 l 1
 53 -32 l 1
 29 26 l 1
 53 83 l 1
 61 86 l 1x80
 73 717 l 2
 73 734 96 747 123 747 c 0
 148 747 168 735 172 722 c 2
 311 245 l 1
 331 615 l 1
 327 617 l 1
 303 674 l 1
 327 732 l 1
 384 756 l 1
 442 732 l 1
 466 674 l 1x40
EndSplineSet
EndChar

StartChar: parenleft.2
Encoding: 65682 -1 277
Width: 323
VWidth: 0
Flags: W
HStem: 770 20G<164.667 260.5>
LayerCount: 2
Fore
SplineSet
271 -11 m 1
 247 -68 l 1
 190 -92 l 1
 132 -68 l 1
 108 -11 l 1
 119 15 l 1
 -7 224 5 490 141 687 c 1
 132 709 l 1
 155 766 l 1
 213 790 l 1
 270 766 l 1
 294 709 l 1
 270 651 l 1
 213 628 l 1
 211 629 l 1
 159 542 131 442 130 338 c 0
 129 243 152 150 195 68 c 1
 247 47 l 1
 271 -11 l 1
EndSplineSet
EndChar

StartChar: i.2
Encoding: 65683 -1 278
Width: 242
VWidth: 0
Flags: W
HStem: 481 20G<62.5 158.333>
VStem: 60 100<53.4055 359>
LayerCount: 2
Fore
SplineSet
192 420 m 1
 168 363 l 1
 159 359 l 1
 159 333 159 307 160 281 c 0
 162 233 158 186 160 141 c 0
 161 111 165 82 169 52 c 1
 187 44 l 1
 211 -14 l 1
 187 -71 l 1
 130 -95 l 1
 73 -71 l 1
 49 -14 l 1
 70 37 l 1
 65 71 61 105 60 139 c 0
 58 187 62 234 60 279 c 0
 59 306 59 334 59 361 c 1
 53 363 l 1
 29 420 l 1
 53 477 l 1
 110 501 l 1
 168 477 l 1
 192 420 l 1
EndSplineSet
EndChar

StartChar: Omega.2
Encoding: 65684 -1 279
Width: 496
VWidth: 0
Flags: W
HStem: 766 63<186.975 276.127>
VStem: 107 98<-120.31 -103 65 165.694>
LayerCount: 2
Fore
SplineSet
465 11 m 1
 441 -46 l 1
 383 -70 l 1
 326 -46 l 1
 319 -28 l 1
 312 -29 l 1
 312 -29 306 -30 302 -30 c 0
 275 -30 252 -16 252 1 c 0
 252 190 344 359 354 534 c 0
 362 673 284 765 235 766 c 1
 228 766 l 1
 146 759 112 625 152 430 c 0
 157 405 163 380 170 355 c 0
 210 207 205 54 205 -95 c 0
 205 -109 190 -121 168 -125 c 0
 142 -129 114 -119 107 -103 c 2
 98 -83 l 1
 62 -68 l 1
 38 -10 l 1
 62 47 l 1
 104 65 l 1
 102 161 95 254 71 345 c 0
 64 371 58 396 53 422 c 0
 17 597 1 829 238 829 c 1
 410 826 461 660 454 532 c 0
 445 373 377 228 357 82 c 1
 383 93 l 1
 441 69 l 1
 465 11 l 1
EndSplineSet
EndChar

StartChar: braceleft.2
Encoding: 65685 -1 280
Width: 409
VWidth: 0
Flags: W
VStem: 95 100<80.8635 224.602>
LayerCount: 2
Fore
SplineSet
380 -1 m 1
 356 -58 l 1
 298 -82 l 1
 241 -58 l 1
 226 -22 l 1
 134 7 95 89 95 154 c 0
 95 197 111 242 150 279 c 1
 142 284 l 1
 110 271 l 1
 53 295 l 1
 29 353 l 1
 53 410 l 1
 88 425 l 1
 16 511 40 643 148 699 c 0
 158 704 168 708 180 712 c 1
 195 750 l 1
 253 773 l 1
 310 750 l 1
 334 692 l 1
 310 635 l 1
 253 611 l 1
 195 635 l 1
 193 639 l 1
 190 637 188 634 185 631 c 0
 124 569 143 452 224 420 c 0
 255 408 254 378 228 368 c 1
 191 351 l 1
 189 345 l 1
 252 301 l 2
 270 288 267 268 251 258 c 0
 215 235 195 196 195 154 c 0
 195 110 215 76 240 55 c 1
 241 57 l 1
 298 81 l 1
 356 57 l 1
 380 -1 l 1
EndSplineSet
EndChar

StartChar: three.2
Encoding: 65686 -1 281
Width: 381
VWidth: 0
Flags: W
HStem: -37 62<166.032 219.471>
VStem: 246 99<54.0156 257.663 471.977 624.929>
LayerCount: 2
Fore
SplineSet
192 130 m 1
 168 72 l 1
 153 66 l 1
 161 44 178 28 187 26 c 0
 188 26 189 25 190 25 c 0
 202 25 251 60 250 145 c 0
 250 159 249 173 246 187 c 0
 233 255 200 317 154 366 c 0
 143 377 145 394 162 404 c 0
 203 429 236 475 245 530 c 0
 257 603 212 649 197 651 c 0
 188 652 159 644 146 604 c 0
 143 595 142 586 142 577 c 1
 188 558 l 1
 212 501 l 1
 188 443 l 1
 130 419 l 1
 73 443 l 1
 49 501 l 1
 57 520 l 1
 39 551 38 586 48 616 c 0
 63 662 115 724 216 712 c 0
 335 697 357 595 345 523 c 0
 335 467 306 415 258 377 c 1
 303 323 332 262 345 195 c 0
 348 178 350 161 350 145 c 0
 351 69 320 -37 191 -37 c 0
 98 -37 50 22 49 82 c 1
 29 130 l 1
 53 187 l 1
 110 211 l 1
 168 187 l 1
 192 130 l 1
EndSplineSet
EndChar

StartChar: Xi.2
Encoding: 65687 -1 282
Width: 520
VWidth: 0
Flags: W
HStem: 762 20G<119.5 215.333>
LayerCount: 2
Fore
SplineSet
460 -36 m 1
 436 -93 l 1
 379 -117 l 1
 321 -93 l 1
 304 -51 l 1
 238 -36 l 1
 234 -46 l 1
 177 -69 l 1
 120 -46 l 1
 96 12 l 1
 120 69 l 1
 177 93 l 1
 234 69 l 1
 252 27 l 1
 317 12 l 1
 321 22 l 1
 379 46 l 1
 436 22 l 1
 460 -36 l 1
459 367 m 1
 435 310 l 1
 378 286 l 1
 320 310 l 1
 313 327 l 1
 186 310 l 1
 171 274 l 1
 113 251 l 1
 56 274 l 1
 32 332 l 1
 56 389 l 1
 113 413 l 1
 171 389 l 1
 178 372 l 1
 305 389 l 1
 320 425 l 1
 378 448 l 1
 435 425 l 1
 459 367 l 1
489 747 m 1
 465 689 l 1
 407 665 l 1
 350 689 l 1
 345 702 l 1
 241 682 l 1
 225 643 l 1
 167 619 l 1
 110 643 l 1
 86 701 l 1
 110 758 l 1
 167 782 l 1
 225 758 l 1
 230 745 l 1
 333 765 l 1
 350 804 l 1
 407 828 l 1
 465 804 l 1
 489 747 l 1
EndSplineSet
EndChar

StartChar: dieresis.2
Encoding: 65688 -1 283
Width: 406
VWidth: 0
Flags: W
HStem: 545 204
LayerCount: 2
Fore
SplineSet
373 668 m 1
 350 610 l 1
 292 587 l 1
 235 610 l 1
 211 668 l 1
 235 725 l 1
 292 749 l 1
 350 725 l 1
 373 668 l 1
197 626 m 1
 173 569 l 1
 115 545 l 1
 58 569 l 1
 34 626 l 1
 58 684 l 1
 115 708 l 1
 173 684 l 1
 197 626 l 1
EndSplineSet
EndChar

StartChar: acute.2
Encoding: 65689 -1 284
Width: 330
VWidth: 0
Flags: W
HStem: 513 256
VStem: 34 263
LayerCount: 2
Fore
SplineSet
197 595 m 1
 173 537 l 1
 115 513 l 1
 58 537 l 1
 34 595 l 1
 58 652 l 1
 115 676 l 1
 134 668 l 1
 140 674 l 1
 135 687 l 1
 158 745 l 1
 216 769 l 1
 273 745 l 1
 297 687 l 1
 273 630 l 1
 216 606 l 1
 197 614 l 1
 191 609 l 1
 197 595 l 1
EndSplineSet
EndChar

StartChar: endash.2
Encoding: 65690 -1 285
Width: 429
VWidth: 0
Flags: W
HStem: 217 232
LayerCount: 2
Fore
SplineSet
395 298 m 1
 371 241 l 1
 314 217 l 1
 257 241 l 1
 237 290 l 1
 174 311 l 1
 173 310 l 1
 115 286 l 1
 58 310 l 1
 34 368 l 1
 58 425 l 1
 115 449 l 1
 173 425 l 1
 193 376 l 1
 256 354 l 1
 257 356 l 1
 314 379 l 1
 371 356 l 1
 395 298 l 1
EndSplineSet
EndChar

StartChar: greater.2
Encoding: 65691 -1 286
Width: 344
VWidth: 0
Flags: W
VStem: 30 281
LayerCount: 2
Fore
SplineSet
197 63 m 1
 173 5 l 1
 115 -19 l 1
 58 5 l 1
 34 63 l 1
 58 120 l 1
 98 137 l 1
 211 371 l 1
 102 561 l 1
 54 581 l 1
 30 638 l 1
 54 695 l 1
 111 719 l 1
 169 695 l 1
 193 638 l 1
 181 609 l 1
 311 382 l 2
 315 376 315 369 312 363 c 2
 183 96 l 1
 197 63 l 1
EndSplineSet
EndChar

StartChar: parenright.2
Encoding: 65692 -1 287
Width: 371
VWidth: 0
Flags: W
VStem: 29 311
LayerCount: 2
Fore
SplineSet
192 2 m 1
 168 -56 l 1
 110 -80 l 1
 53 -56 l 1
 29 2 l 1
 53 59 l 1
 110 83 l 1
 128 76 l 1
 193 150 234 247 240 350 c 0
 246 461 211 568 146 653 c 1
 133 648 l 1
 75 672 l 1
 52 730 l 1
 75 787 l 1
 133 811 l 1
 190 787 l 1
 214 730 l 1
 207 714 l 1
 300 613 347 483 340 348 c 0
 333 222 280 103 187 14 c 1
 192 2 l 1
EndSplineSet
EndChar

StartChar: seven.2
Encoding: 65693 -1 288
Width: 362
VWidth: 0
Flags: W
VStem: 113 100<73 284.096>
LayerCount: 2
Fore
SplineSet
244 13 m 1
 220 -45 l 1
 162 -69 l 1
 105 -45 l 1
 81 13 l 1
 105 70 l 1
 113 73 l 1
 120 262 158 448 227 626 c 1
 150 670 l 1
 110 653 l 1
 53 677 l 1
 29 734 l 1
 53 792 l 1
 110 816 l 1
 168 792 l 1
 192 734 l 1
 191 731 l 1
 316 660 l 2
 330 652 335 639 331 629 c 0
 260 452 220 264 213 73 c 1
 220 70 l 1
 244 13 l 1
EndSplineSet
EndChar

StartChar: Oslash.2
Encoding: 65694 -1 289
Width: 505
VWidth: 0
Flags: W
HStem: 10 63<236.625 304.847>
LayerCount: 2
Fore
SplineSet
236 81 m 1
 246 75 254 73 265 73 c 2
 270 73 l 1
 337 76 381 220 357 410 c 1
 236 81 l 1
192 -121 m 1
 168 -178 l 1
 110 -202 l 1
 53 -178 l 1
 29 -121 l 1
 53 -63 l 1
 85 -50 l 1
 128 67 l 1
 67 135 54 259 81 377 c 0
 106 488 137 599 171 708 c 1
 153 751 l 1
 177 808 l 1
 235 832 l 1
 292 808 l 1
 316 751 l 1
 292 693 l 1
 264 681 l 1
 232 578 204 474 180 368 c 0
 166 307 164 243 174 191 c 1
 375 738 l 2
 381 754 406 764 431 762 c 0
 458 760 477 744 473 727 c 0
 449 625 444 519 457 415 c 0
 477 254 485 20 277 10 c 0
 272 10 267 10 262 10 c 0
 245 10 228 13 212 17 c 1
 176 -82 l 1
 192 -121 l 1
EndSplineSet
EndChar

StartChar: Psi.2
Encoding: 65695 -1 290
Width: 542
VWidth: 0
Flags: W
HStem: 782 20G<232.667 328.5>
VStem: 78 100<230.906 475.021>
LayerCount: 2
Fore
SplineSet
511 530 m 1
 488 473 l 1
 443 455 l 1
 423 370 409 218 298 174 c 1
 288 -3 l 1
 291 -4 l 1
 315 -62 l 1
 291 -119 l 1
 234 -143 l 1
 177 -119 l 1
 153 -62 l 1
 177 -4 l 1
 188 0 l 1
 197 163 l 1
 94 175 78 248 78 301 c 0
 78 361 87 425 86 470 c 1
 55 483 l 1
 31 540 l 1
 55 597 l 1
 112 621 l 1
 170 597 l 1
 194 540 l 1
 183 514 l 1
 208 449 178 363 178 301 c 0
 178 258 186 238 201 229 c 1
 227 662 l 1
 223 664 l 1
 199 721 l 1
 223 778 l 1
 281 802 l 1
 338 778 l 1
 362 721 l 1
 338 664 l 1
 327 660 l 1
 315 447 l 1
 323 471 336 495 355 517 c 1
 349 530 l 1
 373 588 l 1
 430 611 l 1
 488 588 l 1
 511 530 l 1
EndSplineSet
EndChar

StartChar: ring.2
Encoding: 65696 -1 291
Width: 245
VWidth: 0
Flags: W
HStem: 431 229
VStem: 75 99<436.393 509.367>
LayerCount: 2
Fore
SplineSet
174 456 m 2
 172 448 166 442 158 438 c 0
 148 432 134 429 119 431 c 0
 97 433 79 443 75 456 c 1
 75 457 l 0
 63 502 -29 645 109 660 c 0
 114 661 120 661 125 661 c 0
 195 661 211 618 211 595 c 0
 211 554 186 502 174 457 c 0
 174 456 l 2
EndSplineSet
EndChar

StartChar: less.2
Encoding: 65697 -1 292
Width: 376
VWidth: 0
Flags: W
VStem: 33 313
LayerCount: 2
Fore
SplineSet
346 67 m 1
 323 10 l 1
 265 -14 l 1
 208 10 l 1
 184 67 l 1
 194 91 l 1
 34 315 l 2
 30 321 29 330 33 338 c 2
 176 592 l 1
 164 621 l 1
 188 678 l 1
 245 702 l 1
 303 678 l 1
 327 621 l 1
 303 563 l 1
 255 543 l 1
 133 329 l 1
 263 147 l 1
 265 148 l 1
 323 125 l 1
 346 67 l 1
EndSplineSet
EndChar

StartChar: bracketleft.2
Encoding: 65698 -1 293
Width: 279
VWidth: 0
Flags: W
VStem: 31 102<55 335.867> 46 98<384.133 618>
LayerCount: 2
Fore
SplineSet
250 -12 m 1x80
 226 -69 l 1
 169 -93 l 1
 111 -69 l 1
 97 -36 l 1
 72 -33 l 2
 50 -31 31 -18 31 -2 c 2x80
 46 722 l 2
 46 741 67 750 89 752 c 1
 90 755 l 1
 148 779 l 1
 205 755 l 1
 229 698 l 1
 205 640 l 1
 148 616 l 1
 144 618 l 1x40
 133 55 l 1
 169 70 l 1
 226 46 l 1
 250 -12 l 1x80
EndSplineSet
EndChar

StartChar: emdash.2
Encoding: 65699 -1 294
Width: 673
VWidth: 0
Flags: W
HStem: 191 232
LayerCount: 2
Fore
SplineSet
638 273 m 1
 614 215 l 1
 557 191 l 1
 500 215 l 1
 485 252 l 1
 181 300 l 1
 174 284 l 1
 116 261 l 1
 59 284 l 1
 35 342 l 1
 59 399 l 1
 116 423 l 1
 174 399 l 1
 189 362 l 1
 494 315 l 1
 500 330 l 1
 557 354 l 1
 614 330 l 1
 638 273 l 1
EndSplineSet
EndChar

StartChar: f.2
Encoding: 65700 -1 295
Width: 441
VWidth: 0
Flags: W
LayerCount: 2
Fore
SplineSet
371 248 m 1
 347 191 l 1
 321 180 l 1
 306 162 281 148 244 145 c 0
 225 143 206 146 189 152 c 0
 182 154 176 157 170 160 c 1
 165 94 l 1
 168 93 l 1
 192 35 l 1
 168 -22 l 1
 110 -46 l 1
 53 -22 l 1
 29 35 l 1
 53 93 l 1
 65 98 l 1
 76 246 l 1
 75 246 l 1
 51 303 l 1
 75 361 l 1
 85 365 l 1
 92 454 l 2
 93 471 118 485 145 484 c 0
 155 484 168 479 171 478 c 2
 279 431 l 1
 329 452 l 1
 387 428 l 1
 410 371 l 1
 387 314 l 1
 350 299 l 1
 371 248 l 1
222 216 m 1
 208 248 l 1
 232 306 l 1
 269 322 l 1
 249 368 l 1
 188 395 l 1
 186 363 l 1
 190 361 l 1
 214 303 l 1
 192 251 l 1
 199 236 211 224 222 216 c 1
EndSplineSet
EndChar

StartChar: D.2
Encoding: 65701 -1 296
Width: 435
VWidth: 0
Flags: W
VStem: 61 101<299 648> 73 100<50 405> 302 100<209.648 464.935>
LayerCount: 2
Fore
SplineSet
205 -26 m 1xa0
 181 -83 l 1
 124 -107 l 1
 66 -83 l 1
 42 -26 l 1
 66 31 l 1
 73 34 l 1x60
 61 670 l 1
 53 673 l 1
 29 730 l 1
 53 788 l 1
 110 812 l 1
 168 788 l 1
 192 730 l 1
 190 725 l 1
 323 636 399 492 402 339 c 0
 405 194 333 57 204 -24 c 1
 205 -26 l 1xa0
162 648 m 1xa0
 173 50 l 1x60
 253 118 304 223 302 339 c 0
 300 461 246 572 162 648 c 1xa0
EndSplineSet
EndChar

